<svg width="536" height="456" viewBox="0 0 536 456" fill="none" xmlns="http://www.w3.org/2000/svg"><path d="m203.053 119.39 35.309 7.332 2.663-60.296h-.094c1.962-30.124-18.495-58.007-48.9-64.312-30.405-6.352-60.249 11.022-70.524 39.419h-.094L98.341 97.579l36.71 7.659c8.313 8.641 19.196 14.946 31.759 17.608 12.704 2.615 25.174 1.168 36.243-3.456Z" fill="#412F6B"/><path d="M239.296 116.914h-.094c1.682-34.561-21.857-66.227-56.839-73.513-34.562-7.193-68.377 11.863-81.034 43.529h-.046l-91.215 204.1 231.89 48.34-2.662-222.456Z" fill="#0294F7"/><path d="m181.617 340.117 59.222 12.33 2.148-92.802.374-13.638c2.195-51.189-29.238-92.196-80.239-102.845-51.049-10.648-101.164 18.496-118.35 66.181h-.094L5.913 303.454l61.65 12.844c13.918 14.478 32.227 25.127 53.337 29.517 21.158 4.437 42.175 2.009 60.717-5.698Z" fill="#412F6B"/><path opacity=".3" d="M192.076 2.114c-7.473-1.542-14.899-1.682-21.998-.56l-34.235 104.385L90.68 243.625l56.373 11.77 27.415-131.475L199.409 4.215a48.841 48.841 0 0 0-7.333-2.101Z" fill="#EDEDED"/><path d="M232.381 356.932c-12.704 60.857-72.3 99.949-133.203 87.245-60.857-12.704-99.949-72.299-87.245-133.203 12.704-60.856 72.3-99.948 133.156-87.245 60.903 12.704 99.949 72.346 87.292 133.203Z" fill="#CECECE"/><path d="M223.276 332.692c-10.742 51.609-62.725 84.396-116.109 73.28-53.384-11.116-87.898-61.977-77.156-113.54 10.742-51.562 62.724-84.396 116.108-73.28 53.337 11.116 87.899 61.931 77.157 113.54Z" fill="#EDEDED"/><path d="M97.406 452.632C31.972 438.994-10.156 374.681 3.482 309.247c13.638-65.433 77.95-107.561 143.384-93.923 65.434 13.638 107.562 77.95 93.924 143.431-13.591 65.386-77.95 107.514-143.384 93.877Zm45.958-220.401c-56.093-11.676-111.252 24.427-122.975 80.566-11.676 56.093 24.427 111.298 80.566 122.974 56.093 11.676 111.298-24.427 122.975-80.566 11.676-56.139-24.474-111.298-80.566-122.974Z" fill="#0294F7"/><path d="M196.281 337.502c-4.11 19.803-23.539 32.554-43.342 28.397-19.803-4.11-32.554-23.539-28.397-43.342 4.11-19.803 23.539-32.507 43.342-28.397 19.85 4.11 32.554 23.493 28.397 43.342Z" fill="#fff"/><path d="m333.826 119.389-35.262 7.333-2.662-60.296h.093c-1.962-30.125 18.495-58.007 48.9-64.313 30.405-6.351 60.25 11.023 70.525 39.42h.093l23.072 56.045-36.71 7.66c-8.313 8.64-19.196 14.945-31.759 17.608-12.751 2.615-25.268 1.167-36.29-3.457Z" fill="#412F6B"/><path d="M297.583 116.914h.093c-1.681-34.562 21.858-66.228 56.84-73.513 34.515-7.193 68.376 11.862 80.987 43.529h.046l91.215 204.1-231.89 48.34 2.709-222.456Z" fill="#0294F7"/><path d="m355.263 340.117-59.221 12.33-2.149-92.803-.42-13.637c-2.195-51.189 29.237-92.196 80.239-102.845 51.048-10.649 101.163 18.495 118.35 66.181h.094l38.765 94.111-61.651 12.843c-13.918 14.479-32.226 25.128-53.337 29.518-21.11 4.437-42.128 2.008-60.67-5.698Z" fill="#412F6B"/><path opacity=".3" d="M344.804 2.113c7.473-1.54 14.899-1.681 21.998-.56l34.235 104.385 45.164 137.687-56.373 11.769-27.416-131.474L337.425 4.215a51.025 51.025 0 0 1 7.379-2.102Z" fill="#EDEDED"/><path d="M304.496 356.929c12.657 60.856 72.299 99.948 133.203 87.245 60.856-12.704 99.901-72.3 87.244-133.203-12.703-60.857-72.299-99.949-133.202-87.245-60.857 12.704-99.949 72.346-87.245 133.203Z" fill="#CECECE"/><path d="M313.604 332.689c10.742 51.609 62.725 84.396 116.109 73.28 53.383-11.116 87.898-61.978 77.156-113.54-10.742-51.562-62.725-84.396-116.108-73.28-53.337 11.116-87.899 61.931-77.157 113.54Z" fill="#EDEDED"/><path d="M296.046 358.703c-13.638-65.434 28.49-129.746 93.923-143.431 65.434-13.638 129.747 28.49 143.385 93.924 13.637 65.434-28.49 129.746-93.924 143.384-65.387 13.685-129.747-28.443-143.384-93.877Zm16.907-3.549c11.676 56.092 66.881 92.242 122.974 80.566 56.093-11.677 92.242-66.835 80.566-122.975-11.676-56.092-66.835-92.242-122.974-80.566-56.093 11.723-92.242 66.882-80.566 122.975Z" fill="#0294F7"/><path d="M340.555 337.501c4.11 19.803 23.54 32.553 43.343 28.397 19.803-4.11 32.553-23.54 28.396-43.343-4.11-19.802-23.539-32.506-43.342-28.396-19.803 4.11-32.507 23.493-28.397 43.342Z" fill="#fff"/><path d="M230.187 249.416s34.001-43.996 77.951 0v-71.225s-33.861-40.493-76.27 1.915l-1.681 69.31Zm2.193-96.773s32.087-42.594 73.561-.186l-4.577-71.225s-29.752-37.131-63.799 1.914l-5.185 69.497Z" fill="#412F6B"/></svg>