<svg width="264" height="259" viewBox="0 0 264 259" fill="none" xmlns="http://www.w3.org/2000/svg"><mask id="a" style="mask-type:luminance" maskUnits="userSpaceOnUse" x="-1" y="0" width="265" height="260"><path d="M263.833.001h-264v259.346h264V.001Z" fill="#fff"/></mask><g mask="url(#a)"><mask id="b" style="mask-type:luminance" maskUnits="userSpaceOnUse" x="-1" y="0" width="265" height="260"><path d="M263.833.002H-.062v259.346h263.895V.002Z" fill="#fff"/></mask><g mask="url(#b)"><mask id="c" style="mask-type:luminance" maskUnits="userSpaceOnUse" x="-1" y="0" width="265" height="260"><path d="M263.834.003H-.062V259.35h263.896V.003Z" fill="#fff"/></mask><g mask="url(#c)"><mask id="d" style="mask-type:luminance" maskUnits="userSpaceOnUse" x="-1" y="0" width="265" height="260"><path d="M263.834.004H-.061V259.35h263.895V.004Z" fill="#fff"/></mask><g mask="url(#d)"><mask id="e" style="mask-type:luminance" maskUnits="userSpaceOnUse" x="-1" y="0" width="265" height="260"><path d="M263.835.005H-.061v259.346h263.896V.005Z" fill="#fff"/></mask><g mask="url(#e)"><path d="M1.745 65.825h196.301v192.036H1.745V65.825Z" fill="#412F6B"/><path fill-rule="evenodd" clip-rule="evenodd" d="m198.046 65.826 63.981-64.012V193.85l-63.981 64.012V65.826Z" fill="#342656"/><path fill-rule="evenodd" clip-rule="evenodd" d="m1.745 65.826 63.98-64.012h196.302l-63.981 64.012H1.745Z" fill="#665888"/><path d="m1.745 65.826 63.98-64.012h196.302M1.745 65.826v192.036h196.301M1.745 65.826h196.301m63.981-64.012V193.85l-63.981 64.012M262.027 1.814l-63.981 64.012m0 192.036V65.826" stroke="#fff" stroke-width="2.939" stroke-miterlimit="8"/></g></g></g></g><path fill-rule="evenodd" clip-rule="evenodd" d="M102.187 105.833c13.652 0 24.316 2.865 31.993 8.594 7.676 5.729 12.614 13.648 14.815 23.756l-22.055 4.128c-1.549-5.404-4.463-9.67-8.738-12.798-4.276-3.126-9.614-4.691-16.015-4.691-9.702 0-17.415 3.078-23.141 9.233-5.727 6.155-8.59 15.287-8.59 27.396 0 13.061 2.901 22.856 8.702 29.386 5.801 6.531 13.402 9.796 22.803 9.796 4.651 0 9.314-.914 13.99-2.74 4.676-1.827 8.69-4.041 12.04-6.643v-13.961h-25.429V158.75h47.858v43.834c-4.651 4.504-11.39 8.469-20.216 11.896-8.826 3.429-17.765 5.142-26.817 5.142-11.502 0-21.529-2.414-30.08-7.243-8.552-4.828-14.977-11.734-19.278-20.716-4.301-8.982-6.45-18.752-6.45-29.311 0-11.459 2.4-21.642 7.2-30.549 4.801-8.907 11.827-15.737 21.079-20.491 7.05-3.653 15.827-5.479 26.329-5.479Z" fill="#fff" stroke="#08060D" stroke-width="2.947" stroke-miterlimit="10" stroke-linejoin="round"/></g></svg>