<svg width="264" height="259" viewBox="0 0 264 259" fill="none" xmlns="http://www.w3.org/2000/svg"><mask id="a" style="mask-type:luminance" maskUnits="userSpaceOnUse" x="0" y="0" width="264" height="260"><path d="M264 .001H0v259.184h264V.001Z" fill="#fff"/></mask><g mask="url(#a)"><mask id="b" style="mask-type:luminance" maskUnits="userSpaceOnUse" x="0" y="0" width="265" height="260"><path d="M264.001.002H.105v259.184h263.896V.002Z" fill="#fff"/></mask><g mask="url(#b)"><mask id="c" style="mask-type:luminance" maskUnits="userSpaceOnUse" x="0" y="0" width="265" height="260"><path d="M264.001.003H.106v259.183h263.895V.003Z" fill="#fff"/></mask><g mask="url(#c)"><mask id="d" style="mask-type:luminance" maskUnits="userSpaceOnUse" x="0" y="0" width="265" height="260"><path d="M264.002.004H.106v259.183h263.896V.004Z" fill="#fff"/></mask><g mask="url(#d)"><mask id="e" style="mask-type:luminance" maskUnits="userSpaceOnUse" x="0" y="0" width="265" height="260"><path d="M264.002.005H.107v259.183h263.895V.005Z" fill="#fff"/></mask><g mask="url(#e)"><path d="M262.196 65.783H65.894v191.916h196.302V65.783Z" fill="#6F5E4E"/><path fill-rule="evenodd" clip-rule="evenodd" d="M65.894 65.783 1.914 1.811v191.916l63.98 63.972V65.783Z" fill="#594C3F"/><path fill-rule="evenodd" clip-rule="evenodd" d="M262.196 65.783 198.215 1.811H1.914l63.98 63.972h196.302Z" fill="#8B7E71"/><path d="M262.196 65.783 198.215 1.811H1.914m260.282 63.972v191.916H65.894M262.196 65.783H65.894M1.914 1.811v191.916l63.98 63.972M1.914 1.811l63.98 63.972m0 191.916V65.783" stroke="#fff" stroke-width="2.924" stroke-miterlimit="8"/></g></g></g></g><path fill-rule="evenodd" clip-rule="evenodd" d="M167.495 105.767c13.453 0 24.379 3.976 32.78 11.927 5.001 4.701 8.751 11.452 11.252 20.253l-21.979 5.252c-1.299-5.701-4.013-10.202-8.139-13.503-4.125-3.301-9.139-4.951-15.04-4.951-8.151 0-14.764 2.926-19.84 8.776-5.076 5.851-7.614 15.328-7.614 28.43 0 13.903 2.501 23.804 7.502 29.705 5 5.901 11.501 8.852 19.503 8.852 5.901 0 10.977-1.876 15.228-5.627 4.25-3.75 7.301-9.651 9.151-17.703l21.528 6.827c-3.3 12.002-8.789 20.916-16.465 26.741-7.677 5.827-17.416 8.739-29.218 8.739-14.602 0-26.604-4.987-36.005-14.964-9.401-9.977-14.102-23.617-14.102-40.92 0-18.303 4.726-32.517 14.177-42.644 9.452-10.126 21.879-15.19 37.281-15.19Z" fill="#fff" stroke="#08060D" stroke-width="2.932" stroke-miterlimit="10" stroke-linejoin="round"/></g></svg>