<svg width="264" height="259" viewBox="0 0 264 259" fill="none" xmlns="http://www.w3.org/2000/svg"><mask id="a" style="mask-type:luminance" maskUnits="userSpaceOnUse" x="-1" y="-1" width="265" height="261"><path d="M263.948-.034h-264v259.183h264V-.034Z" fill="#fff"/></mask><g mask="url(#a)"><mask id="b" style="mask-type:luminance" maskUnits="userSpaceOnUse" x="0" y="-1" width="264" height="261"><path d="M263.949-.03H.053v259.182H263.95V-.031Z" fill="#fff"/></mask><g mask="url(#b)"><mask id="c" style="mask-type:luminance" maskUnits="userSpaceOnUse" x="0" y="-1" width="264" height="261"><path d="M263.948-.03H.053v259.184h263.895V-.029Z" fill="#fff"/></mask><g mask="url(#c)"><mask id="d" style="mask-type:luminance" maskUnits="userSpaceOnUse" x="0" y="-1" width="264" height="261"><path d="M263.948-.027H.053v259.182h263.895V-.027Z" fill="#fff"/></mask><g mask="url(#d)"><mask id="e" style="mask-type:luminance" maskUnits="userSpaceOnUse" x="0" y="-1" width="264" height="261"><path d="M263.948-.026H.052v259.183h263.896V-.026Z" fill="#fff"/></mask><g mask="url(#e)"><path d="M1.857 65.752H198.16v191.916H1.857V65.752Z" fill="#0294F7"/><path fill-rule="evenodd" clip-rule="evenodd" d="M198.159 65.752 262.14 1.781v191.916l-63.981 63.971V65.752Z" fill="#0277C7"/><path fill-rule="evenodd" clip-rule="evenodd" d="M1.857 65.752 65.838 1.781H262.14l-63.981 63.971H1.857Z" fill="#34A9F9"/><path d="M1.857 65.752 65.838 1.781H262.14M1.857 65.752v191.916H198.16M1.857 65.752H198.16m63.98-63.971v191.916l-63.981 63.971M262.14 1.781l-63.981 63.971m0 191.916V65.752" stroke="#fff" stroke-width="2.924" stroke-miterlimit="8"/></g></g></g></g><path fill-rule="evenodd" clip-rule="evenodd" d="M56.453 107.609h87.388v18.602h-32.554v91.365H89.083v-91.365h-32.63v-18.602Z" fill="#fff" stroke="#08060D" stroke-width="2.932" stroke-miterlimit="10" stroke-linejoin="round"/></g></svg>