<svg width="264" height="259" viewBox="0 0 264 259" fill="none" xmlns="http://www.w3.org/2000/svg"><mask id="a" style="mask-type:luminance" maskUnits="userSpaceOnUse" x="-1" y="-1" width="265" height="261"><path d="M263.95-.034h-264v259.183h264V-.034Z" fill="#fff"/></mask><g mask="url(#a)"><mask id="b" style="mask-type:luminance" maskUnits="userSpaceOnUse" x="0" y="-1" width="264" height="261"><path d="M263.949-.03H.054v259.182h263.895V-.031Z" fill="#fff"/></mask><g mask="url(#b)"><mask id="c" style="mask-type:luminance" maskUnits="userSpaceOnUse" x="0" y="-1" width="264" height="261"><path d="M263.949-.03H.053v259.184H263.95V-.029Z" fill="#fff"/></mask><g mask="url(#c)"><mask id="d" style="mask-type:luminance" maskUnits="userSpaceOnUse" x="0" y="-1" width="264" height="261"><path d="M263.948-.027H.053v259.182h263.895V-.027Z" fill="#fff"/></mask><g mask="url(#d)"><mask id="e" style="mask-type:luminance" maskUnits="userSpaceOnUse" x="0" y="-1" width="264" height="261"><path d="M263.948-.026H.052v259.183h263.896V-.026Z" fill="#fff"/></mask><g mask="url(#e)"><path d="M1.858 65.752H198.16v191.916H1.858V65.752Z" fill="#5AB17A"/><path fill-rule="evenodd" clip-rule="evenodd" d="m198.16 65.752 63.981-63.971v191.916l-63.981 63.971V65.752Z" fill="#488E62"/><path fill-rule="evenodd" clip-rule="evenodd" d="M1.858 65.752 65.84 1.781h196.302L198.16 65.752H1.858Z" fill="#7AC094"/><path d="M1.858 65.752 65.84 1.781h196.302M1.858 65.752v191.916H198.16M1.858 65.752H198.16m63.981-63.971v191.916l-63.981 63.971M262.141 1.781 198.16 65.752m0 191.916V65.752" stroke="#fff" stroke-width="2.924" stroke-miterlimit="8"/></g></g></g></g><path fill-rule="evenodd" clip-rule="evenodd" d="M98.49 105.732c13.803 0 24.192 3.026 31.169 9.077 6.976 6.05 10.639 14.127 10.989 24.229l-22.204.975c-.95-5.651-2.988-9.714-6.113-12.19-3.125-2.475-7.814-3.713-14.064-3.713-6.452 0-11.503 1.326-15.153 3.976-2.35 1.7-3.526 3.975-3.526 6.826 0 2.6 1.1 4.825 3.3 6.676 2.8 2.351 9.602 4.801 20.404 7.351 10.802 2.551 18.79 5.189 23.966 7.914 5.176 2.726 9.226 6.452 12.152 11.176 2.926 4.727 4.388 10.565 4.388 17.516 0 6.301-1.75 12.202-5.251 17.703-3.501 5.501-8.451 9.589-14.852 12.265-6.401 2.674-14.377 4.013-23.929 4.013-13.901 0-24.579-3.213-32.03-9.64-7.452-6.425-11.902-15.79-13.353-28.091l21.604-2.101c1.301 7.251 3.939 12.577 7.914 15.977 3.976 3.401 9.339 5.101 16.09 5.101 7.152 0 12.54-1.512 16.165-4.538 3.626-3.026 5.439-6.563 5.439-10.614 0-2.601-.763-4.814-2.288-6.639-1.526-1.825-4.188-3.413-7.989-4.763-2.6-.9-8.526-2.5-17.777-4.801-11.903-2.95-20.254-6.575-25.055-10.876-6.751-6.051-10.126-13.427-10.126-22.129 0-5.601 1.587-10.839 4.763-15.715 3.176-4.876 7.75-8.589 13.727-11.139 5.976-2.55 13.19-3.826 21.64-3.826Z" fill="#fff" stroke="#08060D" stroke-width="2.932" stroke-miterlimit="10" stroke-linejoin="round"/></g></svg>