<svg width="264" height="259" viewBox="0 0 264 259" fill="none" xmlns="http://www.w3.org/2000/svg"><mask id="a" style="mask-type:luminance" maskUnits="userSpaceOnUse" x="0" y="0" width="264" height="260"><path d="M264 .001H0v259.183h264V.001Z" fill="#fff"/></mask><g mask="url(#a)"><mask id="b" style="mask-type:luminance" maskUnits="userSpaceOnUse" x="0" y="0" width="265" height="260"><path d="M264.001.002H.105v259.183h263.896V.002Z" fill="#fff"/></mask><g mask="url(#b)"><mask id="c" style="mask-type:luminance" maskUnits="userSpaceOnUse" x="0" y="0" width="265" height="260"><path d="M264.001.003H.106v259.182h263.895V.003Z" fill="#fff"/></mask><g mask="url(#c)"><mask id="d" style="mask-type:luminance" maskUnits="userSpaceOnUse" x="0" y="0" width="265" height="260"><path d="M264.002.003H.106v259.183h263.896V.003Z" fill="#fff"/></mask><g mask="url(#d)"><mask id="e" style="mask-type:luminance" maskUnits="userSpaceOnUse" x="0" y="0" width="265" height="260"><path d="M264.002.004H.107v259.183h263.895V.004Z" fill="#fff"/></mask><g mask="url(#e)"><path d="M1.912 65.782h196.302v191.916H1.912V65.782Z" fill="#C11E22"/><path fill-rule="evenodd" clip-rule="evenodd" d="m198.214 65.782 63.98-63.971v191.915l-63.98 63.972V65.782Z" fill="#9B181B"/><path fill-rule="evenodd" clip-rule="evenodd" d="m1.912 65.782 63.98-63.971h196.302l-63.98 63.971H1.912Z" fill="#CD4A4D"/><path d="m1.912 65.782 63.98-63.971h196.302M1.912 65.782v191.916h196.302M1.912 65.782h196.302m63.98-63.971v191.915l-63.98 63.972m63.98-255.887-63.98 63.971m0 191.916V65.782" stroke="#fff" stroke-width="2.924" stroke-miterlimit="8"/></g></g></g></g><path fill-rule="evenodd" clip-rule="evenodd" d="M103.389 105.767c13.451 0 24.379 3.976 32.779 11.927 5.002 4.701 8.752 11.452 11.252 20.253l-21.978 5.252c-1.3-5.701-4.013-10.202-8.139-13.503-4.125-3.301-9.139-4.951-15.04-4.951-8.151 0-14.765 2.926-19.84 8.776-5.076 5.851-7.615 15.328-7.615 28.43 0 13.903 2.501 23.804 7.501 29.705 5.002 5.901 11.503 8.852 19.504 8.852 5.901 0 10.976-1.876 15.228-5.627 4.251-3.75 7.301-9.651 9.151-17.703l21.529 6.827c-3.301 12.002-8.789 20.916-16.465 26.741-7.677 5.827-17.416 8.739-29.218 8.739-14.602 0-26.604-4.988-36.005-14.964-9.402-9.977-14.103-23.617-14.103-40.92 0-18.303 4.726-32.518 14.177-42.644 9.452-10.126 21.878-15.19 37.282-15.19Z" fill="#fff" stroke="#08060D" stroke-width="2.932" stroke-miterlimit="10" stroke-linejoin="round"/></g></svg>