<svg width="264" height="259" viewBox="0 0 264 259" fill="none" xmlns="http://www.w3.org/2000/svg"><mask id="a" style="mask-type:luminance" maskUnits="userSpaceOnUse" x="0" y="0" width="264" height="260"><path d="M264 .001H0v259.184h264V.001Z" fill="#fff"/></mask><g mask="url(#a)"><mask id="b" style="mask-type:luminance" maskUnits="userSpaceOnUse" x="0" y="0" width="265" height="260"><path d="M264.001.002H.105v259.184h263.896V.002Z" fill="#fff"/></mask><g mask="url(#b)"><mask id="c" style="mask-type:luminance" maskUnits="userSpaceOnUse" x="0" y="0" width="265" height="260"><path d="M264.001.003H.106v259.183h263.895V.003Z" fill="#fff"/></mask><g mask="url(#c)"><mask id="d" style="mask-type:luminance" maskUnits="userSpaceOnUse" x="0" y="0" width="265" height="260"><path d="M264.002.004H.106v259.183h263.896V.004Z" fill="#fff"/></mask><g mask="url(#d)"><mask id="e" style="mask-type:luminance" maskUnits="userSpaceOnUse" x="0" y="0" width="265" height="260"><path d="M264.002.005H.107v259.183h263.895V.005Z" fill="#fff"/></mask><g mask="url(#e)"><path d="M262.195 65.783H65.894v191.916h196.301V65.783Z" fill="#DD5723"/><path fill-rule="evenodd" clip-rule="evenodd" d="M65.894 65.783 1.914 1.811v191.916l63.98 63.972V65.783Z" fill="#B2461C"/><path fill-rule="evenodd" clip-rule="evenodd" d="m262.195 65.783-63.98-63.972H1.913l63.98 63.972h196.302Z" fill="#E4784E"/><path d="m262.195 65.783-63.98-63.972H1.913m260.282 63.972v191.916H65.894M262.195 65.783H65.894M1.914 1.811v191.916l63.98 63.972M1.914 1.811l63.98 63.972m0 191.916V65.783" stroke="#fff" stroke-width="2.924" stroke-miterlimit="8"/></g></g></g></g><path fill-rule="evenodd" clip-rule="evenodd" d="M128.637 107.643h75.387v18.602h-53.183v26.029h45.907v18.603h-45.907v46.733h-22.204V107.643Z" fill="#fff" stroke="#08060D" stroke-width="2.932" stroke-miterlimit="10" stroke-linejoin="round"/></g></svg>