<svg width="597" height="607" viewBox="0 0 597 607" fill="none" xmlns="http://www.w3.org/2000/svg"><path fill-rule="evenodd" clip-rule="evenodd" d="m156.809 263.882 142.016 82.048 142.165-82.048c-4.008-2.301-138.157-79.71-142.165-82.048-85.314 49.318-52.546 30.392-142.016 82.048Z" fill="#6F5E4E"/><path fill-rule="evenodd" clip-rule="evenodd" d="m156.809 263.882 142.016 82.048 142.165-82.048c-4.008-2.301-138.157-79.71-142.165-82.048-85.314 49.318-52.546 30.392-142.016 82.048Z" fill="#fff" fill-opacity=".2"/><path fill-rule="evenodd" clip-rule="evenodd" d="m298.789 345.891-142.017-82.048v164.059c85.351 49.244 52.732 30.392 142.017 82.011V345.891Z" fill="#6F5E4E"/><path fill-rule="evenodd" clip-rule="evenodd" d="m298.789 345.891-142.017-82.048v164.059c85.351 49.244 52.732 30.392 142.017 82.011V345.891Z" fill="#000" fill-opacity=".2"/><path fill-rule="evenodd" clip-rule="evenodd" d="M298.787 345.894v164.059c5.418-3.154 146.618-84.609 142.165-82.011V263.883l-142.165 82.011Z" fill="#6F5E4E"/><path fill-rule="evenodd" clip-rule="evenodd" d="m.95 360.367 142.017 82.048 142.165-82.048c-4.008-2.301-138.158-79.71-142.165-82.048C57.653 327.637 90.42 308.711.95 360.367Z" fill="#412F6B"/><path fill-rule="evenodd" clip-rule="evenodd" d="m.95 360.367 142.017 82.048 142.165-82.048c-4.008-2.301-138.158-79.71-142.165-82.048C57.653 327.637 90.42 308.711.95 360.367Z" fill="#fff" fill-opacity=".2"/><path fill-rule="evenodd" clip-rule="evenodd" d="M142.93 442.375.914 360.327v164.059c85.351 49.244 52.732 30.393 142.016 82.011V442.375Z" fill="#412F6B"/><path fill-rule="evenodd" clip-rule="evenodd" d="M142.93 442.375.914 360.327v164.059c85.351 49.244 52.732 30.393 142.016 82.011V442.375Z" fill="#000" fill-opacity=".2"/><path fill-rule="evenodd" clip-rule="evenodd" d="M142.93 442.379v164.059c5.418-3.154 146.618-84.608 142.165-82.011V360.368L142.93 442.379Z" fill="#412F6B"/><path fill-rule="evenodd" clip-rule="evenodd" d="m312.667 360.367 142.016 82.048 142.165-82.048c-4.007-2.301-138.157-79.71-142.165-82.048-85.313 49.318-52.546 30.392-142.016 82.048Z" fill="#E1A932"/><path fill-rule="evenodd" clip-rule="evenodd" d="m312.667 360.367 142.016 82.048 142.165-82.048c-4.007-2.301-138.157-79.71-142.165-82.048-85.313 49.318-52.546 30.392-142.016 82.048Z" fill="#fff" fill-opacity=".2"/><path fill-rule="evenodd" clip-rule="evenodd" d="m454.647 442.375-142.016-82.048v164.059c85.351 49.244 52.732 30.393 142.016 82.011V442.375Z" fill="#E1A932"/><path fill-rule="evenodd" clip-rule="evenodd" d="m454.647 442.375-142.016-82.048v164.059c85.351 49.244 52.732 30.393 142.016 82.011V442.375Z" fill="#000" fill-opacity=".2"/><path fill-rule="evenodd" clip-rule="evenodd" d="M454.646 442.379v164.059c5.417-3.154 146.618-84.608 142.165-82.011V360.368l-142.165 82.011Z" fill="#E1A932"/><path fill-rule="evenodd" clip-rule="evenodd" d="m156.809 82.048 142.016 82.048L440.99 82.048C436.982 79.748 302.833 2.338 298.825 0c-85.314 49.318-52.546 30.392-142.016 82.048Z" fill="#C11E22"/><path fill-rule="evenodd" clip-rule="evenodd" d="m156.809 82.048 142.016 82.048L440.99 82.048C436.982 79.748 302.833 2.338 298.825 0c-85.314 49.318-52.546 30.392-142.016 82.048Z" fill="#fff" fill-opacity=".2"/><path fill-rule="evenodd" clip-rule="evenodd" d="M298.789 164.057 156.772 82.009v164.059c85.351 49.244 52.732 30.393 142.017 82.011V164.057Z" fill="#C11E22"/><path fill-rule="evenodd" clip-rule="evenodd" d="M298.789 164.057 156.772 82.009v164.059c85.351 49.244 52.732 30.393 142.017 82.011V164.057Z" fill="#000" fill-opacity=".2"/><path fill-rule="evenodd" clip-rule="evenodd" d="M298.787 164.06v164.059c5.418-3.154 146.618-84.609 142.165-82.011V82.048L298.787 164.06Z" fill="#C11E22"/></svg>