<svg width="1041" height="585" viewBox="0 0 1041 585" fill="none" xmlns="http://www.w3.org/2000/svg"><path d="M536.5 1072.11c295.811 0 535.61-239.799 535.61-535.61C1072.11 240.689 832.311.886 536.5.886 240.689.886.887 240.69.887 536.5c0 295.811 239.802 535.61 535.613 535.61Z" fill="#0294F7"/><path d="M874.153 251.819c5.464 2.927 10.59 6.418 16.279 8.951 6.139 2.702 5.238.113 4.731-1.239.451.563.845 1.126 1.296 1.746.169-1.014.281-1.802 1.971-2.309l-.112-.281c-.62-3.547-.62-3.547 1.858-6.474-.394 2.252.395 4.56-.169 6.868a5.29 5.29 0 0 0-1.014.282s-.056-.057-.112-.057c.788 3.322.732 3.603.394 4.729-.282.056-.676-.056-.957-.169-.057 0-.057-.056-.113-.112 1.69 2.195 4.45 2.758 6.478 4.447-.113 1.295-1.127 7.882-9.238 11.091 9.519 7.994 16.504 21.561 26.192 40.365-.676-1.408-.676-1.408-.789-2.027.113.113 8.956 12.61 8.844 19.366l-.338.338c-2.929-1.689-2.535-5.405-4.675-7.544l-.338.507c.281 1.126.957 2.083 1.126 3.209-.845-.788-.845-.788-1.464-.732.112 1.858 1.464 3.547.788 5.461-.957-.226-3.267-2.083-2.084-3.66-.225-.225-.619-.45-.957-.563-.507.676-.845 1.126.563 4.56-1.014-.281-1.408-.337-2.816-.281h-.451c-1.634-.056-1.859-.113-2.929-.507.169.957.732 3.772.056 7.488v.056c-.957 4.279-3.21 1.013-3.999-.056-.789-1.126-1.183-1.802-2.197-3.547l.676 3.547c.057.281.113.619.169.844.338 2.027.732 4.054 1.07 6.08-1.915-1.407-2.816-1.632-3.323-.9-.338.45-.338 1.914-.338 2.589 0 2.365-.056 2.815-.338 3.828-3.098-3.603-5.858-5.517-9.463-6.53 2.986-.169 4.225-1.97 5.914-5.968 1.465-3.603 2.085-4.897 3.887-6.192-4.168-5.123-17.011-.169-18.869 4.729 1.182.394 1.52.563 2.76 1.463 6.252 5.123 9.969 15.313 10.702 19.141 1.014 5.292-1.296 4.504-1.915 3.998-4.845-3.716-7.098-9.402-10.928-13.906-.225-.281-.225-.281-.394-.281-.113.225-.169.281-.282 1.576-.563-1.52-.901-2.083-2.76-3.997-2.197-2.252-2.535-3.547-1.69-6.587 1.296-4.053 8.28-23.87 21.236-16.439-7.492-14.468-4.225-14.58-2.253-14.58 3.886-.057 3.943-17.959-10.421-31.527 1.803 1.239 3.943 2.027 5.52 3.547-.901-1.351-.901-1.351-3.943-5.179 0 .056.057.112-.056.506-.451.451-.732.732-2.76 0-.169-.056-15.434-7.769-6.647-12.498-1.014-.394-2.309-1.295-2.872-2.195-2.648-4.223-4.225-9.064-6.816-13.286-.563-.394-1.183-1.126-1.69-1.689ZM326.259 75.834c1.521-.225 3.211-1.07 7.21-3.096 4.9-2.477 5.576-2.759 6.478-2.533.225.45 0 1.463-3.662 3.434.789.394 1.859.338 4.901-.282 2.309-.506 2.591-.506 3.774-.619.45-1.464.507-1.858-.057-2.702-.845-1.183-2.365-1.351-3.492-2.14 2.141-.112 6.14-.281 13.237-1.463 5.633-.957 3.83-3.997 3.83-3.997-.676-.45-2.197-.45-3.041-.395-5.746.395-10.928 2.027-12.505 2.872 0 .056-.056.112-.056.169-.789.112-1.634.056-2.366.281-.338.113-.394.62-.789.676.395.168.676.281 1.634.337a8.666 8.666 0 0 0-1.07.45c-1.465-.731-2.873-.224-4.845 1.802-.112-.844-1.408-1.52-.619-2.477-.676.282-2.704 1.239-4.337.563-.226-.112-.564 0-.733.056-.845.507-1.126 1.69-2.084 2.084.169-.507.169-.507.057-.789-.733 0-1.747 1.633-1.465 2.027.451.676.789 0 1.239-.957 2.197.62 4.506-.338 6.647.563-9.97 3.828-9.97 3.828-10.364 4.504.169.957 2.478 1.632 2.478 1.632Zm-127.412 47.628c3.154-1.971 17.687-11.879 17.799-11.992l-.506.507c1.577-.225 1.971-.282 6.815-3.04 4.675-2.984 11.378-2.646 14.42-8.501-1.296.113-2.479.676-3.718 1.013 2.366-1.407 4.732-2.814 7.154-4.11-.901.958-1.972 1.746-2.986 2.647 1.916-.282 6.703-3.378 7.098-3.829-.451.17-1.014.507-1.465.732 1.465-.844 2.929-1.632 4.337-2.646-.45.226-1.013.563-1.464.789.113-.226.113-.226 6.421-5.912.676.17 2.366.563 3.211-1.407.056.225.112.45.225.675 2.31.732 3.436-1.463 5.239-2.026-1.014.056-1.014.056-2.591.9 4.055-2.533 4.224-2.59 7.491-3.208 4.112-1.352 6.759-5.01 10.533-6.869-.225.057-.507.113-.676.17 0-.226.057-.564.057-.789 2.534-1.52 5.801-.957 8.111-3.04-.226 0-.451-.056-.676-.056.845-.45 1.859-.676 2.591-1.351-.563 0-.563 0-2.76.675 8.843-4.616 18.588-6.98 27.713-10.809.619-.281 1.408-.619 2.028-.9-3.436-.901-3.436-.901-14.814 3.152 3.435-5.235 12.448-.675 14.532-8.332-.507-.169-1.183-.338-1.69-.338-2.535.338-5.858 1.295-7.266 1.858-.169.113-.338.17-.563.282l.281-.113-.112.056-.395.17c-.056 0-.112.056-.112.056l.112-.057h.057l.676-.338c-3.943.901-3.943.901-8.112 3.21.676-.564.676-.564 2.197-1.52-1.07.394-2.028 1.013-3.098 1.407.226-.113.451-.282.676-.394-.507.225-1.183.563-1.69.788.507-.282 1.24-.676 1.746-.9-1.239.618-2.76 1.407-4.337 2.195-24.558 12.723-47.99 27.247-70.127 43.517a525.042 525.042 0 0 0-36.106 28.993c5.239-4.503 15.152-12.835 18.138-14.693-1.409 1.126-2.986 2.139-4.394 3.378Zm675.7 122.558c-1.52-2.308-2.929-3.828-10.026-10.246-6.365-5.742-7.548-7.037-8.111-8.613l.225-.451c.958-.225 1.465-.281 4.901.788-.901-2.533-1.746-4.334-5.858-7.656-6.14-4.954-13.913-7.15-20.222-11.822-6.534-4.786-11.434-11.372-17.855-16.214-2.084-1.576-5.182-3.434-7.83-3.378-.676.057-.845.113-1.521.338 1.972 2.308 5.07 3.209 6.929 5.686v.056c9.857 6.306 31.487 28.993 41.851 39.971 9.012 9.458 11.265 11.71 13.293 13.23-1.746-2.252-2.647-3.716-3.774-6.249.732.169.732.169 3.098 1.858 2.366 1.576 4.394 2.984 4.9 2.702ZM392.106 97.565c.112.338.281.675 1.633 1.07.282-.226.62-.563.789-.901-.113-.225-.338-.45-.507-.62.112-.225.338-.562.563-.731 3.492 5.348 7.491 6.361 12.392 3.04-1.239-2.534-3.323-4.504-4.394-7.094 3.493-.9 6.703-3.772 7.661-6.755 1.859.9 4.112-.45 9.463-3.603 5.745-3.378 12.561-2.59 18.644-4.448.732-.225 1.746-.675 2.479-.957-4.225-.675-8.393-1.013-12.505-.9-2.422.168-3.492.225-5.408.788-1.239.394-2.084 1.463-3.323 1.857-4.281 1.464-8.843 2.083-13.124 3.716.732 1.013.394 1.407-2.591 2.871-.113.056-13.519 8.557-13.293 10.359 1.07.62 2.422.506 3.379 1.238-1.295.45-1.577.507-1.858 1.07Zm480.245 238.474c.056.113.112.169.225.282-.056-.113-.113-.169-.225-.282Zm-709.61-141.024c-3.999 2.646-3.999 2.646-11.378 10.978 0 0-.676 2.308 1.296 2.308 1.295 0 3.042-1.069 3.774-1.52-.789.619-1.183.957-1.803 1.351 8.337-4.222 10.027-2.252 10.59-.112 1.07-3.603 4.788-4.617 6.928-7.206 2.76-3.322.225-3.097-1.07-2.928-.732.057-.789.057-1.127 0 1.577-1.858 3.943-4.616 3.436-5.855 2.028.732 5.239-13.68 5.182-13.849-.056-.169-.338-.338-.45-.506 4.675-1.971 12.392-8.67 12.673-11.035-.619-.731-1.577-.281-5.745 1.577 6.816-5.067 6.816-5.067 8.562-6.869a52.147 52.147 0 0 1-1.803 1.689c-5.914 4.392-9.913 5.517-11.04 5.799.282-.507.676-1.013.845-1.576-.056 0-.169-.057-.225-.057 2.196-1.632 3.717-3.04 4.956-4.729-.957 0-1.577.563-3.548 2.309-2.985 2.533-2.985 2.533-2.985 2.702-1.859 1.576-3.098 3.152-3.324 3.434 1.127-1.07 2.197-2.252 3.324-3.378 0 .056 0 .169-.057.282l.169.169c.338-.057.338-.057.732-.282-2.084 1.97-3.21 3.828-3.21 3.828.563.225.788-.225 1.239-1.013 0 .056.056.169.056.225.395.056.62 0 1.972-.901-.057.057-7.942 6.7-8.393 7.206 0 0 4.619-2.589 6.196-3.884-1.127 1.182-1.127 1.182-4.562 4.053.225-.225.619-.563.844-.788-3.154 2.083-3.154 2.083-5.125 4.335.901-.619 1.464-1.07 2.422-1.858-.507.507-1.859 1.914-2.422 3.209.281 0 .901 0 4.844-3.772-3.155 3.491-3.718 4.222-3.83 5.517.45.451.45.451 2.422.507-1.69 1.238-3.943 3.716-4.507 5.179a.776.776 0 0 1 .169.225l.507-.168c-2.422 2.533-3.323 3.265-6.534 5.404Zm739.012 46.164c0-.338-.337-1.295-1.07-2.815 0-.057-.056-.113-.112-.169 0 .056 0 .112-.057.169-.056.394-.169 1.069.057 1.858-.113-.057-.282-.169-.395-.226.507.451 1.577 1.746 1.577 1.183ZM220.702 119.352c-1.183.338-2.478-.225-3.661.281-1.577.676-2.591 1.408-4.619 3.209 1.07-1.069 1.464-1.576 1.521-1.97-.62-.338-3.324 1.182-7.041 3.997 5.971-5.348 6.646-6.249 7.097-6.812-.056 0-.113 0-.169.056-.901.62-2.197 1.689-3.774 3.153.338-.45.338-.507.395-.732-.226-.056-.451-.112-3.38 2.59a.434.434 0 0 0 .113-.282c-.226-.056-.338-.056-2.254 1.351h.282c.056.282-.056.563 0 .845.056.056.113.056.169.112-.282.169-.62.451-.901.62-.169.281-.169.281-.169.45.056.056.112.056.112.113-.056 0-4.393 1.689-4.337 2.927.226.056.226.113.62-.056-6.703 4.841-3.774 5.63-3.718 5.63 1.24.281 5.971-1.126 10.646-4.054.958-.563 2.141-1.407 3.042-2.027 1.577-1.182 2.816-2.758 4.619-3.659-.057-.056-.169-.112-.226-.169.113-.563.451-1.463 5.633-5.573Zm652.099 217.25c-.112-.113-.169-.169-.225-.281.113.112.169.168.225.281ZM182.4 136.86l-.057.113-.338.338c1.014-.901 2.084-1.802 3.098-2.703-1.183.957-2.14 1.746-2.703 2.252Zm308.616-70.596c0-.056-.056-.056-.056-.113 1.971-.563 3.717-.788 7.097-1.013-2.478.281-2.985.9-3.492 1.801 3.717 1.239 6.928 3.603 10.814 4.279 3.324.62 5.295-.676 6.084-1.182.225-.17.845-.62 1.521-1.408l.056-.056c-.169-.169-.169-.169-1.183-.507-1.295-.506-1.183-.844-.056-1.689-4.056.113-5.746-.788-7.83-1.857-2.478-1.295-4.393-1.915-8.787-1.858a92.6 92.6 0 0 0-4.055.225c.225 1.07.281 2.196-1.803 1.801 1.521.338 2.479.45 3.943.62-1.69 0-2.704-.056-4.168-.17.338.339 1.126 1.24 1.915 1.127Zm135.185 14.468c-.281.113-.282.113-.563.113 1.295.169 2.647.056 3.943.225 4.562.563 8.956 2.083 13.518 2.533 2.986.282 5.07-.056 5.52-.506-.45-1.07-8.167-2.252-8.223-2.252h-.057c-1.915-.17-3.774-.732-5.689-.957-3.492.169-6.196-2.534-9.632-2.421-1.014.056-1.126.394-1.183.675.62 1.014 1.859 1.464 2.366 2.59Zm-109.387-8.22h.056c5.52-.055 9.125-1.294 10.759-2.082l.676-.338c-1.972-1.745-6.816-3.434-9.745-3.378-3.83.225-4.337 4.335-3.098 5.292a2.22 2.22 0 0 0 1.352.507Zm148.929 10.19c.056-.112.056-.225.112-.337-3.942-2.477-7.209-3.434-11.321-3.322-1.746.113-2.929.338-4.788 1.07.507-.113 1.69.281 3.999 1.07 4.337 1.52 10.871 3.771 11.998 1.52Zm227.336 140.349c.056-.056 0-.282-.169-.507-.394-.732-1.69-2.308-2.309-2.533v.056c.112.394.845 1.52 1.408 2.196.225.225.901 1.013 1.07.788Zm4.45 8.613s.056-.056 0-.168c-.056-.226-.507-.395-.845-.507v.112c.113.732.732.732.845.563Zm3.887 13.962c-.057-.056-.057-.169-.113-.225-.338-.113-.338-.113-.507-.056-.451.168-.62.731-.507 1.745l-.169-.338c0 .113-.056.225 1.408 3.209.676-.45 1.352-1.351-.112-4.335Zm-2.479-11.316c.169.057.225-.056.225-.281v-.056c-.338-.338-.788-.789-.957-.732-.169.056.394.957.732 1.069ZM410.356 64.744c.225.112 2.76.675 2.76.675.788.113 1.577-.056 1.858-.112.057-.338.057-.394-.281-.62.225-.056.507-.112.676-.168 2.422.957 2.422.957 7.266-1.126.563 1.689.563 1.689 9.125-1.239-.113.169-.225.45-.338.62-.563.562-.62.619-.676.788.169.056.732-.057 1.577-.282l.282-.563.056-.169c.169-.675.169-.732.113-1.013-1.014-.45-1.296-.507-3.887-.282.338-.337.845-.731 1.183-1.013-1.69 0-3.211.844-4.9.9 0 .057.112.789 1.746.676-.958.338-2.028.507-2.986.845-.563.056-1.464.112-5.182 1.013.057.113.113.282.113.45-.62-.112-1.127-.112-1.859-.112 1.127-.338 1.803-.62 2.704-1.013-1.352-.395-2.366-.507-4.056-.563.845-.113 2.197-.45 2.986-.732 1.07.281 3.661.9 3.943-.17a.681.681 0 0 0-.282-.28c-.732-.226-1.521-.057-2.197-.395-1.859-.844-2.084-.788-2.309-.732-.113.17-.113.17.225.957-2.422.45-4.731 1.52-7.266 1.352l-.507.281c.113.338.113.338.056.563-.169.113-.281.169-1.014-.169 0 .282 0 .282.113.676h-.169c-.789-.17-1.633-.338-3.323-.225a3.09 3.09 0 0 0 .056 1.238c4.225-.112 4.225-.112 4.394-.056Zm484.3 161.178a3.278 3.278 0 0 0-.507-.619c-.225 0 0 .563.676 1.745.113-.225.057-.676-.169-1.126ZM392.444 63.956c1.126-.17 3.154-.45 5.463-.282-1.408.225-1.408.225-1.577.338 0 .056.056.112.113.169-1.014.225-1.577.338-2.366.338.507 1.125 1.971 1.238 5.689.337-.282.113-.62.226-.845.338.338.113.676.113 1.07.056-.338.395-.957 1.126.62.957.901-.112 2.309-.506 2.816-.675.113 0 .226-.056.282-.056-1.07-.507-2.084-.563-3.492-.282.563-.112.845-.281 1.408-.62-.113-.055-.338-.055-.451-.112 1.183-.281 2.31-.619 3.492-.9-.056-.732-.168-2.027-4.168-1.97-2.816.168-5.914.844-9.125 2.082.507.225.845.282 1.071.282.056 0 .056 0 0 0Zm458.221 900.02c-1.803.957-3.492 2.026-5.295 2.984 5.351-3.66 5.351-3.66 5.52-4.279-.451.113-1.014.225-1.408.338-9.576 5.292-18.25 12.047-28.333 16.495-14.194 6.249-14.194 6.249-18.024 8.388-7.661 4.335-8.449 5.405-8.562 6.08 3.492 1.351 42.865-20.942 53.342-28.148.788-.451 1.915-1.239 2.76-1.858Zm-5.07 3.884c2.535-.169 24.728-15.087 32.219-21.336.113-.113.226-.226.338-.282-1.689.563-2.703 2.083-4.337 2.759.507-.732.507-.732 9.801-8.783-1.408 1.126-2.873 2.196-4.281 3.322.676-.619 1.296-1.239 1.972-1.858-9.069 7.825-35.374 26.009-35.712 26.178Zm49.85-39.464c-4.394 3.659-8.393 7.769-12.674 11.597.564-.338 1.014-.788 1.577-1.126-.112.169-.338.394-.563.62 4.225-3.998 8.449-7.995 12.843-11.879-.395.281-.845.563-1.183.788Zm-68.663-801.894c-.056 0-.056-.057-.113-.057.057.057.057.057.113.057Zm-.225-.113c.056 0 .056.056.112.056-.056 0-.056 0-.112-.056Zm-682.742 80.505c1.352-.563 8.562-3.997 19.828-17.734 1.183-1.407 4.675-5.686 2.253-5.63-.169 0-.338.057-.507.057-4.394 1.407-7.379 5.235-11.604 7.037-.732 1.97-1.464 2.871-3.098 3.884.845.957-.676 2.703-4.618 6.643-2.085 2.027-8.449 8.276-2.254 5.743ZM812.137 934.87l.056-.056a.68.68 0 0 0-.281.281.441.441 0 0 1 .225-.225Zm110.007-66.655.845-1.014v.057c-.338.281-.62.619-.845.957Zm-38.415 71.272-2.366 2.195c1.07-.844 1.859-1.576 2.366-2.195Zm-80.83 25.164c-1.295-.056-2.534-.225-3.83-.225-1.295.056-3.999.169-8.618 3.153-5.295 3.434-9.688 7.994-14.701 11.822 6.027-1.07 6.759-1.52 13.687-6.192 6.59-4.392 11.829-7.882 13.068-8.445.169 0 .338-.056.394-.113ZM348.508 402.526c1.577.225 1.972.112 2.084 0 .169-.225-.45-.563-1.07-.507-.619 0-.845.225-1.014.507Zm-128.876-85.234c.056 0 .056 0 0 0Zm-76.943-31.414v.226c-.169.788-.451 1.689-1.408 4.503-1.746 5.18-4.675 13.793-2.197 12.217 2.253-1.408 6.421-8.557 8.393-12.892 2.478-5.405 1.014-5.348.507-5.292-.282.056-1.239.281-3.549 1.576-1.69.957-1.69.845-1.746-.338Zm5.013-2.983c.789-1.126 3.154-4.448 5.633-9.571a82.676 82.676 0 0 0 1.69-3.828 4.418 4.418 0 0 0-.507.225c-3.267 2.252-6.478 8.22-6.365 8.614-1.071 2.364-1.183 3.434-.451 4.56Zm733.154 277.206c.282-3.884-1.126-6.305-1.915-7.713-.113.169-.225.451-.338.62-.958 2.139-2.478 5.911-1.915 6.699.338-.113.507-.225 1.521-1.576-4.506 7.6-9.407 15.369-9.858 15.988l-.619.901c-1.577 2.533-2.366 4.166-3.436 7.093 6.534-3.378 15.94-12.948 16.56-22.012Zm30.248 87.429c.281-.957.169-2.364.056-3.377-.901.168-2.028.45-2.929.619-7.717 1.576-15.603 2.026-23.319 3.884-2.141.507-3.718 1.464-4.676 2.871-.619.845-.957 1.689-1.295 2.365-1.69 3.828-2.366 7.938-3.718 11.879-2.534 7.487-8.336 13.286-10.589 20.942-2.253 7.656-.451 15.651-1.69 23.363 2.591-.844 4.506-.844 6.703-.112.056-.226 4.281-21.224 7.773-24.658 1.577 2.252 1.803 2.589.958 9.57-1.239 9.796 4.055 7.938 5.125 7.488-.45 1.013-1.746 4.109-1.295 7.825.169.113.394.225.563.338 3.098-1.464 5.746-9.402 5.633-12.329-1.183.394-1.915.788-2.985 1.745 1.295-7.994-2.197-15.538-2.422-23.42 4.956 6.306 7.773-8.557 13.687-10.077-6.478-1.182-13.012 2.59-19.433-.45-2.535-1.183-1.464-3.209 3.774-6.981 5.689-4.053 9.238-3.603 16.279-2.759 6.139.789 6.59.338 9.181-2.195-.282.394-.732.957-1.014 1.351 5.126-6.136 5.126-6.136 5.633-7.882Zm11.491 38.564c-2.873.169-6.985 1.745-3.605 4.729.45.394 1.013.732 1.408 1.013-.226.169-.226.169-.282.282l.056.056c.113-.056.169-.056.282-.282 4.957 2.703 10.026 2.984 11.547.563 1.07-1.689-.394-3.265-.676-3.434.057.62.62 1.295.901 1.858-2.76-4.673-8.505-4.841-9.631-4.785Zm-27.882-138.716c0-.056 0-.113-.057-.113 0 .057 0 .113.057.113Zm2.365 119.237c-.169-.113-.281-.169-.394-.169.169.056.282.113.394.169Zm-3.21-105.613c1.239 2.702 6.139-1.745 6.196-1.802.845-.788 1.352-1.632 1.408-2.42.112-1.183-.338-1.746-1.746-3.322-3.098-3.49-3.831-4.56-4.394-5.517-.225.113-.338 0-.619-.619v.169c0 .563-.113 1.069-.395 3.04-.45 3.265-1.295 8.669-.45 10.471Zm-15.941 172.212 2.535.732a3.912 3.912 0 0 0-.169.451c-.845.225-1.915.45-2.76.619.507.563.507.563 2.309 1.238l.226-.168c1.802-.507 3.435-1.352 5.182-1.915-.113.282-.282.62-.395.845.676-.113 1.634-.225 2.141-.619.676-.507.732-1.408 1.352-1.915.112-.112.281-.168.45-.225-.112-.056-.281-.112-.394-.169h-.056c-.789-.112-1.521.338-2.31.113-1.69.169-2.534.338-3.548.676-1.972-2.252-4.845-.113-4.845-.113-5.013-1.464-13.011-.844-17.123-.113-2.704.507-4.957 2.196-7.717 2.59-2.028.282-3.886-.507-5.858-.675.451.675.732 1.013 1.634 1.351-1.69 1.238-2.422.281-3.718-1.408-3.098-.056-4.337.451-5.182.788-.958-3.04-2.535-3.715-3.211-3.715-2.816.901-.901 3.265 1.915 6.924l.169-.112c4.563 1.238 9.125-.845 13.688-.057-1.352-3.434 15.94-1.52 16.109-1.463a5.107 5.107 0 0 1-.281.45c3.38-1.295 6.421-3.153 9.857-4.11Zm-85.73-4.841h.169c-9.519-1.971-15.546-3.997-24.671-8.219 4.844-1.464 8.393-5.236 13.011-7.094 7.774-1.126 12.505 6.868 19.94 6.587 6.422-.225 12.505-3.209 19.039-2.534.45.057 1.07.113 1.521.169 4.393.901 4.956 3.04 5.407 4.898-2.478 1.689-5.295 3.04-8.9 1.633 1.859 2.984 2.197 3.546 8.055 4.447 8.9 1.351 7.942 4.842 7.435 5.855-.112.169-.281.451-.394.563-1.127 1.239-6.928 3.547-6.928-2.196-1.07 4.054-9.294 1.971-33.684-4.222-.056.113 0 .113 0 .113Zm.62 0c.338 0 1.014 0 1.126-.056-.112-.113-1.577-.226-1.689-.113.112 0 .112 0 .563.169Zm107.641 4.391c.451-.957-.507-.901-1.634-.788-13.743 3.209-22.418 14.919-24.614 19.197.788-.281 2.703-.844 8.843-4.222 5.633-3.04 16.109-11.372 17.405-14.187Zm-55.595-39.689c.056 0 5.182-1.633 1.014 3.49 1.239-1.407 2.76-3.434 3.605-5.123 2.422-4.785 1.802-10.415 4.112-15.257 2.816-5.911 8.167-10.077 10.815-16.1 1.858-4.223 1.689-6.024 1.464-9.121 3.38 4.223 4.844 1.802 5.295.563 1.183-3.096.788-9.289-7.435-21.224 1.126.732 1.126.732 1.858 1.07.057-.281.057-.281-2.591-4.616 1.127.112 4.732.112 3.718-3.716.113.113.225.338.282.451l.45-.226c-.056-.506-.169-1.52-.788-3.603 2.816 2.534 4.618-.732 4.45-2.815-.057-.619-.395-1.407-.62-1.97l.113-.112c.901-1.014 8.73-9.909 4.337-10.021-1.521-.057-4.394 1.238-5.746 1.857 1.127-.731 1.127-.731 1.465-1.407-.901-.394-.901-.394-3.436-.113 2.76-6.136-1.915-9.12-3.098-9.007-.845.281-1.014.45-1.634 1.182v-.563c-.056 0-8.28.451-11.547 20.943-.169-1.858-.394-2.252-1.577-3.434-1.521 2.983-2.197 4.897-2.985 8.163-2.704-.62-1.746-4.448-4.394-5.123-3.098 8.613-17.236 20.435-19.151 17.452-.112-.113-.113-.338-.169-.507-1.915 4.504-2.591 7.487-2.816 12.216-2.76-2.195-9.013-1.126-8.618-6.08-4.844 4.786-6.872 6.812-6.14 16.664 0 .338 4.394 32.427 9.857 32.765 1.69.113 3.211-2.59 3.943-3.884.958 5.46 12.73 6.023 16.166 4.222-1.859 7.544 6.252 4.616 9.801 2.984Zm-18.757-244.217c-.169.169-.281.394-.394.62.169-.226.225-.338.394-.62Zm42.64-18.634c2.253-4.053 3.041-5.63 2.591-7.319-.056-.112-.113-.281-.169-.394.45.732 1.014 1.745 1.126 4.054.169 2.983-.619 6.699-1.295 9.964-1.239 6.137-1.859 9.458-.845 12.611-1.746-2.14-1.746-2.14-3.436-3.434.056.056.169.112.282.169-.564-.451-.564-.451-.676-.676.225.113.45.225.619.338-3.379-4.166-2.14-8.276 1.803-15.313Zm-.62 16.495-.901-.901v.113l.676.563.225.225Zm.056-.338-.337-.281h-.057l.394.281Zm3.718 4.954.056.057c-.563-.732-1.126-1.52-1.802-2.252 0 0 0 .056.056.112.282.563.733 1.464 1.69 2.083ZM768.821 719.027c-.338-.45-.507-.675-.619-.675-.057 0-.057 0-.057.113-.056.168.282.9.676.562Zm-60.439-110.623c-.056 0-.056 0 0 0Zm.62-103.361c-.338-.507-.789-1.183-1.07-1.746-9.238 5.968-9.238 5.968-11.885 2.534-3.661-4.842-4.675-12.217-5.182-15.763-2.084-15.201-14.533-24.095-21.799-36.199-.845-1.408-1.915-3.378-2.76-4.786-.845-1.407-2.197-3.096-3.098-4.447-1.295.113-3.042.281-4.337.338-.789 6.305-.789 6.305-3.323 9.176-.733-1.013-1.578-2.533-2.141-3.659-.619 1.013-1.69 2.195-2.704 2.815-1.182-.338-2.872-.563-4.111-.507-.395.507-.958 1.239-1.409 1.745a33.328 33.328 0 0 1-1.352-1.407c-.506.338-1.126.732-1.633 1.069-.845-.844-1.464-2.42-1.577-3.603-9.745 22.463-35.543 31.245-45.4 53.539-9.519 21.562-3.154 46.332-13.913 67.669-1.577 3.153-3.661 7.881-6.703 9.683-12.335 7.431-68.437-93.735-50.919-127.344-.564-.394-1.296-.901-1.859-1.295-.113-1.182-.451-2.758-.901-3.828-.564-.169-1.352-.394-1.915-.507.338.732.957 1.633 1.126 2.421 1.577 6.193-6.703 12.554-11.547 11.823-8.956-1.352-7.379-11.992-13.687-15.595 6.252-.732 7.04-2.589 7.773-4.447-5.408.281-9.97-.619-17.349-6.193-11.209-9.458-12.73-15.256-13.237-17.17-20.278-10.809-43.316 7.037-63.312-6.137-1.971-1.295-4.562-3.096-6.59-4.335-9.407-5.573-20.447.507-29.966-4.053-12.054-5.799-10.871-23.194-24.39-27.698-.788-.282-1.915-.169-2.76-.282 0 .057-2.929 3.435-7.716 6.643 4.731 1.183 5.407 2.252 7.435 11.541l14.363 30.795c7.886 8.726 36.725 7.994 38.077-15.594 5.464 5.854 1.014 14.355 5.52 20.435 4.507 6.08 13.801 4.617 17.912 11.316 1.296 2.083 1.521 5.686 1.014 8.107-1.577 7.825-12.561 28.993-43.09 53.088-.62.45-59.819 47.008-72.944 34.454l-48.948-128.583a171.634 171.634 0 0 1-1.802-4.898c-3.155-9.401-2.422-14.918-1.578-21.336-6.027 8.107-5.97 10.865-5.745 16.439-5.914-8.107-7.829-12.724-8.562-20.605-6.083 10.527-6.646 18.353 5.464 39.858 9.125 16.214 9.125 16.214 22.869 65.53 5.858 20.999 12.054 32.202 22.136 40.027 4.732 3.659 13.632 10.528 15.547 15.144 2.534 6.024-.169 8.163-5.07 12.048 25.01 9.401 25.01 9.401 31.262 7.543 32.557-9.739 32.557-9.739 32.895-7.994.282 1.408 5.689 35.524-46.019 100.378-51.202 64.235-13.237 99.983-12.787 100.265a40.616 40.616 0 0 0-.281 2.589c.845 12.554 9.068 23.082 9.744 35.693.845 15.763-17.067 18.634-21.348 30.85-5.52 15.82 14.026 25.165 10.365 40.478-1.352 5.742-6.084 9.233-8.618 11.09 7.547 7.15 14.701 13.906 5.238 38.958-9.181 24.264-30.36 18.184-30.586 18.071-4.112-1.858-53.342-54.157-55.426-56.409-15.377-16.383-47.596-65.08-47.765-65.417-8.674-16.721-6.365-36.368-13.913-53.426l-.788-1.52c-.169-.338-19.377-32.371-15.434-40.309-12.505-6.136-37.627-36.706-27.938-53.876-10.815-11.71.507-30.569-13.35-41.266-.507.507-1.239 1.182-1.802 1.745-.733-.225-1.634-.563-2.366-.788-.845 1.07-2.591 2.027-3.943 2.252-19.32-19.366-19.32-19.366-24.784-15.313-25.91 19.197-29.065 11.823-34.36-.506-.112-.282-12.391-35.636-15.658-84.953-1.352-20.098 6.759-39.295 6.14-59.337-.113.732-.282 1.746-.395 2.477 2.985-42.335 48.498-116.76 48.948-117.379 6.985-10.133 10.14-14.074 12.11-14.862 2.817-1.182 4.676 1.295 7.041 1.745 2.14.45 3.042.113 11.604-5.799 7.829-5.404 10.871-6.98 15.546-8.163 1.972-.506 1.972-.506 22.193-1.97 4.506-.113 7.492-.225 3.267 9.289-2.929 6.587-8.111 12.216-8.956 19.76 1.971 13.849 34.979 39.858 41.119 19.986 2.816-9.177 6.308-11.147 8.731-11.147 1.013 0 2.422-.113 3.436.056 9.969 1.858 15.996 11.147 25.628 13.68 9.407 2.477 17.518-5.292 26.868-3.209.676 1.408 1.803 3.209 2.76 4.391 13.744-1.688 19.715-13.905 24.559-23.757 9.181-19.76 5.971-23.813 4.788-24.545 0 0-22.531.619-27.319.957-9.632.619-15.152-1.239-16.954-1.802.338-.563.732-1.351 1.07-1.914-1.408-.394-3.38-.675-4.844-.675.676-3.716.225-7.601 2.028-11.091-5.971-6.418 2.534-12.216 1.746-18.522-4.168-2.815-7.717-3.884-12.843-.619-.113 1.52.225 3.547.845 4.898-1.352.056-3.154.281-4.506.619-.113.676-.282 1.576-.394 2.308-.62-1.52-1.634-3.49-2.591-4.841-1.634 6.924 3.604 13.004 2.534 19.873-.394-.563-.957-1.351-1.352-1.971 0 1.239-.676 2.984-1.577 3.885-1.014-.788-2.816-1.295-4.055-1.182.45.619 1.07 1.407 1.521 2.026a94.723 94.723 0 0 1-3.605 3.04c-.113 1.633-.338 3.828-.507 5.405-.62.394-1.409.901-2.028 1.295-8.9-5.912-3.492-12.836-1.746-15.088-1.465-.113-4.45-.281-5.295-4.56-.958-5.067.676-12.948.676-13.061 1.802-8.276-3.999-14.75-5.126-22.294-.281-1.97-1.69-4.391-1.859-6.361-.169-1.802.564-4.279 1.521-5.742-.338-.676-.732-1.52-1.07-2.14-.62.225-1.465.507-2.084.732-.62-.338-1.465-.732-2.084-1.07-6.591 4.729-9.069 6.531-8.055 16.045 1.014 9.74 10.702 15.2 12.223 24.658-3.098 1.182-5.971-.844-9.012-.675l-.113.112c0 .113-.901 12.217-6.534 18.803-4.675-.563-7.717 4.054-12.279 3.829-3.718-6.475 8.449-6.418 11.603-10.809 9.745-13.624-4.675-38.282-4.788-38.564-4.956-7.825-13.068.056-19.602-.112-.056 0-.056 0-1.633.112-.113.056-21.292 17.058-32.388 36.199-7.379 12.836-15.096 20.267-23.601 22.688-3.098-2.252-2.704-6.193-4.619-9.064-.676.169-1.577.394-2.197.619 4.394-9.908 4.394-9.908 6.59-14.074a2.505 2.505 0 0 0-.45.619c17.067-36.142 17.067-36.142 31.543-35.523 7.604.281 26.53-22.857 19.208-35.692 4.337-2.703 4.562-2.759 11.209-4.504 4.337-10.865 50.3-36.312 50.75-36.481.507.451 1.127 1.07 1.578 1.52 5.069-5.46 7.998-12.441 13.011-17.902.845-.845 1.972-1.858 2.873-2.646l.225-.113c3.887-3.209 5.52-3.434 7.717-3.771-3.83 4.109-6.534 9.289-11.434 12.497.732-.056 1.746-.168 2.534-.225-2.478 3.772-2.478 3.772-5.52 4.054.282-.732.733-1.689 1.014-2.421-2.535 4.11-2.366 4.391-1.014 6.868 0 0 4.056-.45 9.576-.901-.563.394-1.296.901-1.859 1.239.338.619.845 1.464 1.183 2.083.225 0 21.123-1.914 25.572-4.785 6.591-9.852 12.223-16.27 16.73-19.085 1.183.676 2.478 1.97 3.21 3.096 7.492-.844 5.746-9.007 9.801-12.61 2.591-2.308 2.591-2.308 23.376-3.547-.225-.844-.507-1.914-.789-2.759-.732-.394-1.689-.844-2.365-1.238-.113-.45-.226-1.07-.282-1.576-18.588 3.321-18.588 3.321-22.024 2.139 5.633-8.557 5.633-8.557 27.037-25.052-8.674-6.137-11.096 1.238-11.885 3.659-29.008 11.203-27.544 19.985-26.868 24.208-31.036 27.022-31.036 27.022-38.64 27.529.281-.788.619-1.858.901-2.646-6.252 6.418-6.252 6.418-8.111 7.825-.62-.281-1.465-.675-2.084-.957 3.943-1.463 3.943-1.463 4.562-6.136 8.675 1.689 14.195-15.594 16.504-22.969-6.478 5.235-9.238 6.755-14.307 8.613-.563-.394-1.296-.901-1.803-1.238.395-2.365 1.972-4.392 2.028-6.812 5.295-4.954 8.337-12.16 15.434-15.313 4.675-2.196 5.295-2.477 9.238-4.391 11.434-5.63 21.685-13.286 32.726-19.592l.225-.056c5.013-3.209 6.196-3.997 7.266-4.954.338-.282.62-.619 1.07-1.07-1.521.394-3.661.732-5.238.845 4.112-2.477 8.674-3.772 12.899-5.968-.451.507-1.014 1.183-1.465 1.689 5.351-.394 9.351-4.278 14.307-5.742-.056.675-.056 1.52-.112 2.195 5.463-1.407 5.463-1.407 6.365-2.251.732.112 1.746.281 2.478.394 2.028-2.703 2.366-3.21 7.266-4.898.62.338 1.408.844 2.028 1.182a70.898 70.898 0 0 0-4.281 2.871c4.563-2.195 9.125-2.87 11.097-3.209-.564.394-1.24.901-1.803 1.295.789-.225 1.859-.563 2.648-.788.675.394 1.577.9 2.253 1.295-1.577.506-3.605 1.238-5.182 1.745 7.266.507 7.266.507 8.167.619.113.62.282 1.52.451 2.14 12.223 2.646 16.785 3.603 18.081 6.699 1.746 4.11-5.633 9.176-9.125 9.852-6.591 1.295-11.435-3.772-17.518-4.56 3.83 15.482 3.83 15.481 8.167 14.412-.338-1.351-1.07-3.153-1.746-4.335 8.9-.282 15.546-7.825 24.615-7.544.451.563 1.014 1.239 1.408 1.802 3.38-7.6 3.38-7.6 4.056-10.19-.338-.563-.845-1.351-1.183-1.914 5.914-3.04 8.956-1.858 9.125 3.659-5.182.225-6.14.394-6.928 4.335 12.11 1.013 20.672-10.359 32.726-9.514a65.74 65.74 0 0 0-3.887 3.04c18.138-.901 20.785-2.252 24.165-4.054-.226-.281-.226-.281-6.872-5.291 29.853 8.951 29.853 8.951 31.036 8.557-3.718-3.885-5.295-7.544-4.619-10.81 1.07-5.179 7.773-5.629 8.956-10.696 1.408.113 3.267.507 4.619 1.014h.394c.62.225 1.521.506 2.141.731 3.098 6.7 1.858 14.469 5.294 20.999-1.858 4.898-2.084 5.405-8.618 8.163 15.321-1.013 13.632-6.981 12.787-10.189 6.534-3.378 9.913 3.377 15.039 4.616-7.041-6.08-16.786-8.782-21.686-17.508 3.38-2.196 3.38-2.196 4.281-5.743.563.394 1.295.957 1.859 1.351.056 1.746.338 3.997.732 5.686 1.408.676 1.408.676 9.745 1.239-.789-1.182-.789-1.182-6.816-4.166.62.169 1.521.338 2.14.507a37.336 37.336 0 0 0 1.69-1.408c-.563-.338-1.295-.844-1.859-1.182.057 0 10.365 2.308 16.786 2.59-3.042-4.223-4.732-5.236-10.026-6.08l1.014-.45c5.801-1.465 11.997.224 17.686-2.14-.619-.282-1.464-.62-2.14-.9-1.239-5.968 1.859-5.912 14.927-5.687.957-1.013 2.647-1.858 3.999-2.14 0 0 3.661 1.07 12.786.62a40.305 40.305 0 0 0-1.859-1.407h2.028c2.309-2.984 2.309-2.984 5.407-3.66 26.249-.563 47.428 19.029 73.676 18.578.338-.506.845-1.238 1.183-1.745-.169-.675-.45-1.52-.619-2.195 12.899 3.209 24.051 13.117 38.584 10.19-.226-.733-.507-1.746-.733-2.478 6.534-2.139 12.618 1.183 18.87 1.746l-1.464-.338c-.451-.394-1.127-.957-1.578-1.408 2.422-.112 2.422-.112 6.591.338-1.521-.675-3.549-1.52-5.126-2.196-.225-.619-.563-1.463-.789-2.083 24.221-2.026 25.911-.675 32.219 4.335 10.984 8.839 23.714 2.759 35.599 4.223 10.421 1.294 20.954 1.463 31.431 2.758 1.295.169 2.929.957 3.999 1.633-.62-.169-1.408-.451-2.028-.619 8.618 3.152 10.026 3.377 14.082 4.053-9.35-3.941-9.35-3.941-10.477-6.193 20.559-1.126 70.634 12.611 78.802 21.618h-2.253c1.014.451 6.196 2.928 10.476 6.249-11.941 6.249-18.587-6.08-28.219-8.05 4.844 3.209 4.844 3.209 6.533 4.504-.337.506-.844 1.238-1.182 1.745 8.336 4.391 17.292 7.487 25.065 13.004-2.76-1.069-3.267-1.238-7.21-1.576.507.844 1.127 2.027 1.578 2.927-.451.563-1.014 1.295-1.465 1.802 2.591 2.364 3.154 2.871 6.027 7.769-.282.563-.732 1.295-1.014 1.858-10.251-2.252-12.786-1.633-14.983-1.07.845 5.461 15.096 13.568 15.208 13.624.113.056 16.392 9.796 24.728 19.479a48.348 48.348 0 0 1-.282 2.702c2.028 2.477 2.028 2.477 7.886 8.276l-.957.394c1.295 5.01 5.069 8.669 7.491 13.061.451.506.958 3.096 1.408 5.348a54.124 54.124 0 0 0-1.689-1.802l-.057-.056c-.338-.732.169-1.858.338-2.646-16.391-17.733-38.246-28.655-56.158-44.531.451-.675 1.07-1.576 1.521-2.252-6.928-18.803-19.827-24.714-23.545-24.658 3.83 2.815 4.844 3.491 8.393 5.63-.62.056-1.521.056-2.141.113.395 1.632 1.24 3.715 1.972 5.235-11.097-7.487-12.279-7.769-17.293-9.007-.394.45-.957 1.069-1.408 1.576.507 3.828.507 3.828 14.927 15.707-4.957 6.868-10.533 1.914-11.603.844.506-.394 1.182-.901 1.689-1.295l-.281-.168c-1.239-.169-2.929-.338-4.168-.338h-2.254c-1.52-.057-3.548-.225-5.013-.451.057.057.169.169.282.226-6.703 1.745-13.969-5.686-20.334 1.238-5.07 5.517-5.52 32.258 18.306 32.709-6.928-6.249-6.928-6.249-7.717-8.445.113.056 9.238 5.742 10.928 10.528 1.014-.62 2.535-1.295 3.661-1.633-1.014-.901-2.14-2.421-2.591-3.716 5.407 0 13.124 1.52 19.433 8.67a26.634 26.634 0 0 0-2.084-.281c36.443 21.674 45.625 62.658 39.992 74.875-.732.281-1.69.619-2.422.844-2.76-1.351-2.76-1.351-5.689-4.56-.394.45-.958 1.07-1.408 1.576-.338-.506-.789-1.238-1.127-1.745.676 1.464 1.127 3.66 1.014 5.292-.676-.112-1.577-.225-2.253-.338 9.294 7.994.676 20.155 6.816 28.881 5.407 7.656 15.997 9.458 20.446 18.24 1.747 3.49 1.747 3.49 4.394 15.594-1.239.169-2.816.619-3.999 1.07 0 .619 0 1.407-.057 2.027-12.054 4.616-16.841-18.241-16.503-20.38.506.394 1.182.957 1.689 1.351-.563-3.49-.957-4.56-6.421-7.375l.225-.169-.563-.056c.056.056.169.113.225.169-3.999-1.351-8.223-1.689-12.11-3.378-.338-1.295-.225-3.265.451-4.391-4.845-2.308-6.929-8.839-13.35-8.839-5.914.057-2.929 9.064-8.843 8.952-.676 0-1.465-.451-2.084-.62-.62-4.954-1.24-5.123-3.774-5.911.394-.732 1.239-1.576 1.352-2.421.225-1.745-2.704-9.57-8.168-7.375-.169.057-15.771 10.809-8.28 19.085 9.238 10.19 22.869 3.265 33.346 8.726-1.014 5.461-7.154 8.782-6.365 14.975.281 2.421.507 4.279 10.026 14.806 8.224 8.783 14.758 14.806 21.123 19.535-.507.338-1.127.788-1.634 1.126-3.267-1.463-5.295-4.898-8.956-5.742.338.169 8.562 3.716 9.632 14.356-.394.45-.901 1.013-1.295 1.407 9.068 1.971 9.068 1.971 10.814 8.614-.169.563-.845 1.126-1.183 1.632 2.31 4.954 2.254 5.461 1.803 8.726a26.64 26.64 0 0 1-2.084.282c-1.014 3.04-2.309 17.339.338 23.25l.676-.675c-1.239 7.994-1.465 9.232-7.492 15.2-6.646 6.53-15.997 8.726-22.925 14.75-.676-2.308-.957-3.153-3.774-5.011 2.253 4.56 2.648 5.349-2.76 12.273-.112-.112-12.673-9.964-15.377 12.385 4.562 3.772 6.477 7.263 4.337 15.989-2.084 6.53-8.449 7.938-12.11 8.219a110.38 110.38 0 0 0 2.365-4.447c.789-17.678.789-17.678 3.605-19.423 0-2.533 0-8.501-3.83-10.19-2.084-.957-25.291 1.126-23.714 14.187 2.929 24.433 29.291 36.256 32.67 60.407 1.239 8.613-2.309 38.226-15.152 28.711-.394 6.362-6.309 23.195-14.927 18.635.845-1.351 2.028-3.209 2.873-4.56-4.731-18.972-25.91-25.109-32.951-42.336-15.096 10.078-10.308 34.51-9.689 37.269 2.423 11.259 12.505 17.114 18.419 25.897 10.139 15.087 6.985 33.89 14.082 49.822.338.732 1.465 1.239 2.028 1.802-14.983 2.758-20.447-9.458-26.361-36.199-5.013-22.463-7.492-29.781-15.715-23.251-2.028-7.543-2.817-10.696-1.071-24.095 4.619-35.467-11.209-61.701-16.165-68.851.281 7.882-1.409 8.613-4.056 9.796ZM340.454 262.797c1.464.675 1.464.675 3.323-.057-4.957 7.657-3.943 11.203 5.633 18.916 5.97 4.842 7.378 6.587 7.942 9.74-6.703-1.014-9.914 11.09-9.407 15.2.789 6.586 6.647 9.739 11.378 12.272 1.408.732 1.408.958 1.577 1.464h.169l-.056.169c6.647 3.997 12.167-2.758 18.532-1.858h.112c-.281-23.588-.507-37.775-10.589-47.683-7.097-6.925-7.323-8.557-7.717-11.203.845-1.07 2.76-1.746 4.112-2.027-1.69-3.716-1.69-3.716 9.688-6.024-1.746-1.407-2.084-1.745-1.183-5.63.62-2.758 1.521-6.868-6.984-7.262-9.294-.45-12.618 9.852-20.729 11.541-1.126-.056-1.802-.45-2.591-1.351-.169 4.785-4.281 8.726-3.21 13.793Zm-62.242-17.115c-2.028 3.491 2.028 4.166 12.843 6.024.957-2.477 2.478-6.587 5.407-5.461-.056-1.351-.056-1.52-1.521-2.308-1.352-.675-1.408-.901-1.352-2.364 2.535.337 5.013-.394 7.661-2.196.281-.225.676-.507.957-.732-5.351-2.815-15.152.676-22.08 5.517.394-.394.394-.394.507-.563 0 0-1.464 1.07-2.14 1.802.225-.169.507-.45.732-.619l-.732.675-.113.056-.169.169Zm12.054 40.928c8.843.788 13.688-4.898 14.927-6.643 4.675-6.474-4.337-17.564-15.716-24.545-8.111-4.954-16.278 4.166-24.389-.057-.451-1.745-.451-1.745 6.815-8.05-5.97-3.265-10.026-5.067-15.546-2.308l-.732-.845.394.732.225.169c-5.182 2.759-8.618 8.726-12.56 15.651-4.563 7.994-6.309 9.458-10.477 12.892 1.633 1.182 2.253 1.632 3.605 4.278 1.126 2.196 2.816 5.574 4.618 5.968 10.139 2.308 17.18-8.67 27.263-6.362 7.773 1.745 13.406 8.388 21.573 9.12Zm310.532 292.407c-.282.056-.62.338-1.296 1.126.676 1.464.845 1.632.901 1.464.057-.113 0-.451-.056-.676.056-.056.169-.056.225-.113l.169-.168c.226-.338.395-.676.395-1.014.056-.169.056-.619-.338-.619Zm415.132 120.419-.11.057c2.47-8.558 1.85-16.89-.45-16.608-.57.169-.91.507-1.58 1.464.11.45.11.844.17 1.97-.06-.056-.17-.169-.28-.169-.46.338-.62.788-.62 1.013.28 0 .28 0 .84-.45.28 2.59-.34 10.809-.34 10.865-.17.507-.84.901-1.12 1.352-1.47 2.308-2.43 4.841-4.12 6.98-1.01 1.295-1.57 1.126-1.97.789-1.69-1.295-2.53-1.971-5.12.619-.45.394-.45.394-1.411 5.855.281.169 7.721 3.94 13.691-13.399-.12 2.646-.06 3.49.28 3.941.05 0 .17-.057.22-.057v.169c1.02-1.013 1.24-1.632 1.64-2.758l.39-.957.06-.394-.17.169c-.11-.226-.06-.338 0-.451ZM599.615 581.044c.507 10.077.169 17.395-1.07 21.786-2.929 10.641-9.632.901-9.689.789-2.872-5.011-1.577-10.922-.112-17.79 1.577-7.206 2.365-11.879-.113-15.82-.394-.056-1.296-.281-1.521-1.576l.62.394a1.672 1.672 0 0 1-.282-.394c.507-.394.845-.507 1.521-.563.732 0 4.562.169 9.125 5.799 1.183 1.463 2.929 4.278 1.295 6.474-.112.112-.169.225.226.901Zm-7.717-10.246c-1.014-1.295-1.634-.62-1.634-.563 0 0-.281.731.62.731.113 0 .394 0 .901-.112.057-.056.057-.056.113-.056Zm382.574 104.205c-9.801.169-10.759 12.723-19.715 14.131-3.605.563-1.521-10.697-1.521-10.809-.056.169-.168.338-.225.506 1.183-10.415 1.69-15.2-5.295-14.524-3.041.844-5.745 2.252-9.181 6.418.563-3.265-.563-3.997-1.014-4.335-.619.225-.845.338-1.577 1.576 4.168 7.15 7.773 13.343 14.476 11.428-2.478 3.209-6.759 2.928-9.801 5.067h.057c4.393 3.772-1.127 8.445 1.182 12.386.845.056 1.465.112 4.788-6.418-.338 2.983-.507 4.616 1.014 6.812 1.746 2.477 4.957 2.758 7.041 4.729 3.267 3.04 3.267 3.49 4.056 24.207-.451-1.069-1.859-4.335-8.562 8.67 3.436-1.52 7.379-1.407 10.815-2.927-3.549 10.02 3.83 9.626 4.449 9.289.733-.395 6.929-5.236 5.915-7.601a1.07 1.07 0 0 1-.451-.112c3.324-1.633 3.324-1.633 4.056-2.308 0-.169 0-.451-.057-.62l.169.507c.789-1.013 1.296-1.689 2.141-4.053.845 3.096 4.168 4.672 4.9 7.825 1.24 5.01-1.464 10.19.733 15.2 2.647 6.08 5.745 3.097 5.801 3.097 1.127-1.183 1.239-3.604 1.521-5.18.958-5.911-1.802-11.653-.957-17.564.844-6.137 4.956-11.147 5.745-17.284.225-1.745.056-4.109-.282-5.855-.169-.563-8.787-32.427-20.221-32.258Zm-207.847 36.368c-.564-1.464-.564-1.464-.733-2.083l-.056-.056h.113c1.915-.957 4.168-.169 6.027-1.351 1.971-1.239 4.393-3.603 5.125-5.799 2.986-8.557.226-16.889-1.239-21.393 5.408 9.233 6.703 11.372 11.942 8.501-1.859-1.858-.564-3.715.169-3.997.338.225.845.507 1.126.282l-.901-.901.282-.057c-.113-.112-.338-.281-.451-.394h-.056l-.057-.056c-10.139-9.739-10.139-9.739-13.913-7.15-3.21-5.742-7.435-10.978-9.8-17.17-1.352-3.603-.564-7.657-2.366-11.147-1.239-2.533-2.591-2.984-5.182-3.828-.789 1.351-.845 1.632-.732 2.871-1.296-1.689-2.197-2.533-3.774-3.547 1.07.451 1.07.451 1.858.225 1.014-3.715-4.28-8.106-4.337-8.163-4.281-3.434-9.575-5.292-13.8-8.782-5.407-4.447-8.9-10.753-14.701-14.806-1.972-1.351-6.084-4.222-11.491-4.166-.507 0-.958.056-1.465.113 8.224 1.632 20.954 27.979 37.514 66.993 11.604 26.741 16.786 38.451 20.898 35.861Zm173.769-26.797c.056-.057.169-.113.225-.169a.763.763 0 0 0-.225.169Zm21.573 69.527c-12.561 16.157-17.518 37.043-32.275 51.793-8.562 8.557-10.646-8.726-10.702-8.895-.338-5.179-.338-5.179 15.039-33.609-.958 1.013-.958 1.013-3.83 3.771.056-1.857 1.183-3.434 1.352-5.291-1.859 4.053-1.859 4.053-15.885-4.673-5.407 10.415-5.407 10.415-8.167 11.147-5.914 1.576-14.082 8.275-17.631 22.124-2.703-1.407-3.098-1.52-6.984 0 .507-5.01-5.07-6.361-6.196-10.414-.732.9-15.208 15.706-22.418 18.577-.338 3.153-.564 3.998-2.084 7.319-.113-.338-.282-.788-.395-1.126-1.126 1.126-1.126 1.126-2.253 3.659 0-1.632-.056-3.321 1.183-8.557-3.548 2.196-6.365 3.941-13.687 12.555-7.154 8.388-9.576 10.189-13.35 12.272-6.365 3.547-13.8 4.223-20.39 7.15-8.28 3.716-14.251 11.879-24.052 12.779-.056-.957.225-2.308.732-3.152-14.194 7.262-18.419 23.363-20.221 30.231-.902 3.547-.901 3.547-2.084 4.729.056-.732 0-1.689-.226-2.364-9.012 10.527-5.801 25.615-13.631 36.537-4.844 6.699-12.73 10.527-16.785 17.958-.282.507-.169 1.351-.226 1.914 4.169 3.434 15.885-1.238 24.446-4.616.564-.225 56.665-20.83 66.973-13.173.169 1.914.169 1.914-9.913 19.141 7.604-5.236 15.884-9.458 22.981-15.37-4.619 9.008-14.588 11.147-21.686 16.889 2.986-.394 3.999-1.125 12.111-6.98-.282.394-.282.394-9.463 8.332.056-.057.112-.057.112-.113.338.113.789.282 1.127.394-2.31 7.037-11.491 9.12-12.336 17.227 1.127.901 1.127.901 15.209-3.547-1.803 1.689-1.803 1.689-3.549 2.477.394 0 .901.057 1.295.057-.563 1.576-.563 1.576-2.76 4.109 59.595-27.923 95.475-67.894 108.149-83.77-.676.732-1.521 1.802-2.141 2.534 1.239-1.52 2.535-3.04 3.774-4.617-.225.282-.563.676-.789 1.014l.395-.507.225-.281c.338-.394.789-.957 1.127-1.408-.226.282-.507.676-.733.957 1.521-2.083 6.253-8.501 9.351-16.664 2.647-7.037 5.97-13.849 8.392-20.998 2.141-6.306.564-13.287 3.662-19.367 12.223-24.376 12.223-24.376 12.561-32.933.619-15.201 3.492-19.648 7.097-25.334l.056-.056c0-.057-.056-.057-.113-.057-.281.113-.337.169-.394.226Zm-53.511-60.351c1.747 1.014 4.619-.112 5.351-2.026.169-.395.169-.732.169-1.014h-.056c-.225-1.97-2.478-3.547-4.788-3.378-1.858.451-2.027 1.858-2.084 2.309-.056.844-.338 3.152 1.408 4.109Zm-30.754-209.762v-.113c0-.056 0-.056-.057-.113v.113l.057.113Zm18.869 110.454c0-.056 0-.056 0 0-.338.394-.619.732-.845.957.451-.45.676-.788.845-.957Zm22.475.845c.282 5.348.451 5.517 1.464 6.361.395-1.463.902-3.434 1.071-4.954 0-.225 2.703-20.154-4.338-28.599 0-.056.057-.112.113-.169.732-.394.732-.394.451-6.361-.451 1.182-.958 2.364-1.408 3.603.112.507.225 1.126.338 1.632-2.366-1.576-2.366-1.576-2.93-12.554 4.845 2.027 3.38-5.404 1.972-8.726-1.859-4.391-2.422-4.335-6.759-3.772-3.267-11.259-3.267-11.259-4.676-11.484-.788.563-.788.563-1.126 2.026-.845-5.235-6.759-5.235-7.998-4.166-.507.451-.676 1.408-.789 2.083-.338-1.914-.507-3.265-.563-5.911l.056.057c.169-.958.169-1.464.169-2.478 0-.281-.113-.675-.113-.957-.45-9.232 2.479-18.634-1.183-27.754-2.703-6.756-12.054-2.308-14.926-8.782l-.169-.338c.056.225.169.563.281.732 1.071 7.994-2.309 16.27 1.521 24.095-.619-.169-1.408.225-1.971.507-1.239 4.672 1.126 13.567 5.52 16.945 1.577-.901 1.802-1.971.788-3.772 2.253 1.464 2.254 1.464 1.24 9.233-.451.056-1.071.169-1.521.225-1.183 3.04.45 4.898 6.59 11.822 3.605-4.391-.676-9.232-3.549-11.71 1.296-.394 2.817-.731 6.028-.281-.676 1.914.281 2.646 1.239 3.096.676-.281 1.352-.619.563-2.646 3.83 1.295 5.182 5.292 8.28 7.432-.563-2.928-2.028-3.997-2.478-4.279.112-1.182.338-4.729 3.999-.844 2.197 2.308 4.112 5.911 4.675 7.093-.169 0-.394.056-.563.056-.507 3.153-.507 3.153 4.506 10.303-1.07.9-1.803 1.126-2.647-.057.169-.056.45-.112.619-.169.113-1.182.113-1.182-.563-2.364-.507.507-.732.732-.282 2.139l-.338-.675c-.957 2.589-.957 4.785.169 8.501-.112-.057-.225-.057-.338-.113 0 .113 0 .113 1.746 3.265l5.07 9.008c-1.07 3.659-1.07 3.659-9.125 12.554.113-.282.225-.676.338-.957-1.127-1.971-7.773-1.576-9.012 2.871-.789 2.702-.564 5.63-1.803 8.276 2.591-3.266 3.211-4.842 3.549-5.63 2.478 3.378 9.068-2.646 9.125 1.745 0 3.209-2.084 6.193-1.071 9.571 1.014 3.265 4.507 4.222 6.196 6.924-.169-4.56 3.549-7.544 4.563-11.653Zm-20.053-22.575c1.183.056 3.718-4.054 4.845-6.306 0 0 .619-3.49.732-5.179.45-5.517-2.084-5.01-2.084-5.01-2.648 1.97-5.689 16.326-3.493 16.495Zm3.267-25.953c1.465-3.097 2.197-4.954 2.197-6.418 0-.056 0-.169-.056-.282 1.859 1.689 3.661 4.898 3.436 7.882-.056.788-.282 1.351-.395 1.689-1.52-3.434-3.266-3.885-5.745-1.52v-.056l-.056.168c.056-.225.112-.563.112-.788.057-1.013.113-1.069.226-1.182.056.113.112.169.281.507Zm.395-.113.169.056.056-.394-.225.338Zm-25.01-62.884v-.056c-.056 0 0 .056 0 .056Zm49.399 165.232c-.394.563-.788 1.182-1.239 1.745.338-2.589.057-5.235.451-7.825.338-2.139.338-2.139 1.239-2.984-.169.113-.394.225-.563.338-1.746 1.351-3.605 3.885-4.45 12.16-.113-.338-.113-.338-.225-.507-.338 1.07.112 9.909.506 11.879.733 4.054 1.69 4.222 2.366 3.997-2.422-10.246 4.225-10.021 4.337-10.021-.901-3.771-.788-5.629 1.352-12.329-1.352-.337-3.943 2.646-3.774 3.547Zm-326.697-66.543c.056.056.113.169.169.282-.338-.901-.676-1.746-1.014-2.59 0 .281.056.619.113.901.225.506.45.957.732 1.407ZM377.066 788.836l-.394-.845c.056.113.113.282.113.451-.62-1.408-.62-1.408-1.352-1.802-.282.732-.282.732-.451 9.683-.957-1.52-1.07-1.914-1.577-3.603-2.366 5.799-2.422 8.67-.62 23.42 2.197 18.353-1.239 54.158-11.772 54.946-3.661.281-10.928-5.011-13.462-13.568-2.422-8.05-5.52-49.935-5.464-50.217.338-5.686 5.914-7.262 8.618-11.09.845-1.183 1.127-2.59 1.972-3.716.394-.563 1.126-1.238 1.633-1.745 4.168-4.279 4.675-10.415 7.717-15.257 1.802-2.927 2.478-6.474 5.069-8.894 3.211-.901 5.746 6.643 7.323 13.117 1.126 5.066 1.521 6.755 2.647 9.12Zm-.957-2.083c-.169-.338-.226-.732-.451-1.07 0 .169.113.338.169.507.113.169.225.394.282.563Zm501.649-302.597-.113-.394c0 .113.057.226.113.394 0-.056 0-.056 0 0Z" fill="#5AB17A"/><path opacity=".1" d="M829.142 87.887c55.027 84.118 87.05 184.699 87.05 292.722 0 295.824-239.782 535.606-535.605 535.606-108.023 0-208.548-32.024-292.722-86.994 95.619 146.248 260.81 242.879 448.611 242.879 295.823 0 535.604-239.778 535.604-535.601 0-187.8-96.633-352.992-242.938-448.612Z" fill="#000"/><path opacity=".1" d="M16.77 406.543c11.671 1.128 23.455 1.748 35.407 1.748 196.708 0 356.149-159.441 356.149-356.15 0-11.952-.62-23.735-1.747-35.406C215.114 64.49 64.468 215.135 16.771 406.543Z" fill="#fff"/></svg>