<svg width="827" height="766" viewBox="0 0 827 766" fill="none" xmlns="http://www.w3.org/2000/svg"><path d="M12.518 289.626 390.34 9.299c15.451-11.474 36.605-11.377 51.958.195l372.119 280.132h-801.9Z" fill="#E1A932"/><path d="M800.63 828.605H26.338C11.8 828.605 0 816.805 0 802.267V312.312c0-14.538 11.8-26.337 26.338-26.337h774.324c14.538 0 26.338 11.799 26.338 26.337v489.955c-.033 14.538-11.8 26.338-26.37 26.338Z" fill="#E1A932"/><path d="m789.644 321.865-86.902 67.279-1.141.88-70.505 54.566-50.916 39.409-106.035 82.077-20.406 15.81-11.343-6.911c-17.733-10.854-40.061-10.756-57.728.196l-11.279 7.008-17.862-13.756-109.687-84.424-51.208-39.409-70.865-54.566-12.973-9.974-75.59-58.185h754.44Z" fill="#fff"/><path d="M797.825 792.098 453.739 581.885l-11.343-6.911c-17.733-10.854-40.061-10.757-57.728.196l-11.279 7.008-338.186 209.92 320.324-223.676 28.163-19.655c19.46-14.506 46.156-14.506 65.649 0l24.806 17.308 323.68 226.023Z" fill="#DD5723"/><path d="M789.644 76.218H35.204v245.678h754.44V76.218Z" fill="#fff"/><path d="M702.743 162.729H110.795v39.409h591.948v-39.409Zm0 93.944H110.795v39.409h591.948v-39.409Zm0 93.976v38.496l-1.141.88H123.768l-12.973-9.975v-29.401h591.948Zm-71.646 93.939-50.916 39.409H245.842l-51.209-39.409h436.464Z" fill="#0294F7"/></svg>