<svg width="294" height="133" viewBox="0 0 294 133" fill="none" xmlns="http://www.w3.org/2000/svg"><path d="M6.596 129.146C-5.547 100.134 33.411 70.401 116.407 69.19c22.262-.326 42.937.953 54.434 13.58 9.298 10.212-13.481 15.78-27.594 10.217-18.175-7.166-29.107-16.894-35.006-31.04-5.079-12.183-7.325-21.116 2.986-32.082 17.826-18.959 54.716-19.915 90.724-15.78 27.485 3.156 45.389 5.436 65.512 12.048 3.266 1.073 23.477 8.37 22.958 7.94-9.184-7.604-25.537-17.243-36.882-23.883-3.558-2.153-5.972-3.845-8.894-5.574-2.132-1.26 3.893 2.535 5.336 3.42 12.38 7.604 27.32 16.409 38.629 24.583 7.088 5.123-15.503 6.714-24.397 6.714-14.286 0-26.684 0-36.556.884" stroke="#C11E22" stroke-width="7" stroke-linecap="round"/></svg>