<svg width="829" height="837" viewBox="0 0 829 837" fill="none" xmlns="http://www.w3.org/2000/svg"><g clip-path="url(#a)"><path d="M678.155 202.836c-15.012-59.732-66.968-110.475-128.229-116.902-61.26-6.472-135.24 37.259-145.577 97.98-10.383-60.721-84.318-104.407-145.578-97.98-61.26 6.472-113.217 57.17-128.229 116.902-15.011 59.732 4.09 125.218 43.148 172.815 61.979 75.553 230.659 165.982 230.659 165.982s168.679-90.384 230.659-165.982c39.057-47.597 58.159-113.038 43.147-172.815Z" fill="#C11E22"/><path d="M262.275 419.381c13.933 10.382 28.541 20.45 43.417 31.192M174.273 190.614c-20.18 50.294-9.169 109.127 18.203 155.87 14.607 24.945 33.394 43.867 54.384 60.901m56.404-292.056c-44.9-9.978-92.003 15.012-117.532 53.53m431.296 186.476c-1.304 1.708-2.607 3.416-3.91 5.079-24.046 30.293-55.328 53.979-87.149 75.912m125.53-182.702c1.168 22.113-3.731 43.957-12.585 64.317" stroke="#fff" stroke-miterlimit="10" stroke-linecap="round" stroke-linejoin="round"/><path d="M801.98 287.514c-20.99-.629-27.507 48.406-27.507 48.406s-.179-54.563-23.326-55.013c-23.147-.404-24.091 98.116-24.091 98.116s-3.91-53.081-23.326-53.081c-19.417 0-19.327 82.25-19.327 82.25s-5.393-5.798-11.326-5.169c-23.461 3.776-18.068 129.847-26.877 157.174l-77.126 70.159c-32.99 22.518-50.294 45.62-59.283 64.497-16.135 35.911-20.18 95.553-20.18 95.553l-3.191 35.777c-.72 8.27 5.797 15.416 14.112 15.416h84.812a14.152 14.152 0 0 0 13.978-11.866l2.427-14.832.225.045 31.506-40.81s129.398-157.038 135.915-169.533c6.517-12.495 54.024-129.982 58.114-155.646 4.18-25.618-2.607-161.757-25.529-161.443Z" fill="#E1A932"/><path d="M774.473 335.921 772.63 451.07l-36.9 61.44m-8.718-133.444-6.068 79.733-43.372 93.037m-18.068 4.674 17.978-61.709 6.877-86.565m-41.216 172.097c-25.619 20.674-50.878 40.001-71.823 49.035" stroke="#39373D" stroke-miterlimit="10" stroke-linecap="round" stroke-linejoin="round"/><path d="M720.315 602.22c32.271-36.181 64.272-74.519 51.507-88.991-20.719-21.125-68.316 18.068-116.722 57.44m11.009 97.89c5.529-12.719 26.608-35.641 48.766-60.316" stroke="#39373D" stroke-miterlimit="10" stroke-linecap="round" stroke-linejoin="round"/><path d="M6.674 287.514c20.99-.629 27.506 48.406 27.506 48.406s.18-54.563 23.327-55.013c23.147-.404 24.09 98.116 24.09 98.116s3.91-53.081 23.327-53.081c19.371 0 19.326 82.25 19.326 82.25s5.394-5.798 11.327-5.169c23.461 3.821 18.068 129.847 26.877 157.174l77.126 70.159c32.99 22.518 50.294 45.62 59.283 64.497 16.135 35.911 20.18 95.553 20.18 95.553l3.191 35.777c.719 8.27-5.798 15.416-14.113 15.416H223.31c-6.922 0-12.855-5.034-13.978-11.866l-2.427-14.832-.225.045-31.507-40.81S45.776 617.098 39.259 604.603c-6.517-12.495-54.024-129.982-58.114-155.646-4.135-25.618 2.607-161.757 25.529-161.443Z" fill="#E1A932"/><path d="m34.855 377.899 1.17 73.171 30.697 48.675M34.227 335.92l.404 27.282m47.012 15.864 6.067 79.733 26.473 59.327m33.216 32.362L131.173 494.8l-6.876-86.564m25.889 270.796 7.191 9.843" stroke="#39373D" stroke-miterlimit="10" stroke-linecap="round" stroke-linejoin="round"/><path d="M237.379 629.37c-63.868-27.551-134.701-151.6-170.657-129.622-36.002 21.933 75.822 168.814 75.822 168.814l1.843 2.473" stroke="#39373D" stroke-miterlimit="10" stroke-linecap="round" stroke-linejoin="round"/><path d="M269.156 565.367c.135 34.653 9.259 72.901 30.563 100.183 21.349 27.327 68.721 36.316 102.34 44.811.989-23.687-9.978-55.193-22.697-75.239-24.765-38.967-76.767-37.754-110.206-69.755Z" fill="#5AB17A"/><path d="M282.73 590.266c17.259 21.663 40.586 37.529 62.564 54.473 21.933 16.945 43.462 36.136 54.788 61.44" stroke="#39373D" stroke-miterlimit="10" stroke-linecap="round" stroke-linejoin="round"/><path d="M511.23 536.197c-24.045 8.944-47.956 19.551-67.283 36.36-19.326 16.855-33.754 40.856-33.933 66.474 37.169 13.843 80.317-4.449 109.306-31.506 28.99-27.057 46.744-63.778 63.328-99.824-22.697 11.911-47.372 19.552-71.418 28.496Z" fill="#5AB17A"/><path d="M410.643 636.515c20.135-28.765 54.114-43.642 84.227-61.71a368.928 368.928 0 0 0 56.271-41.574" stroke="#39373D" stroke-miterlimit="10" stroke-linecap="round" stroke-linejoin="round"/><path d="M404.35 541.636c-52.451-1.573-102.205-25.169-132.903-67.732 26.383 1.798 53.215 3.64 78.025 12.899 24.81 9.259 45.934 24.99 54.878 49.844 11.102-24.72 40.496-34.023 66.07-43.012 25.574-8.989 53.035-15.821 73.215-33.889-25.394 47.957-85.036 81.441-139.285 81.89Z" fill="#5AB17A"/><path d="M404.354 538.623c11.146 50.743 8.045 100.003-1.124 150.342-9.169 50.338-16.135 101.441-3.686 151.51" stroke="#5AB17A" stroke-miterlimit="10" stroke-linecap="round" stroke-linejoin="round"/><path d="M574.289 2.833v12.315m0 11.418v12.315m18.022-18.026h-12.315m-11.415 0h-12.36M293.379 37.843v10.382m0 9.575v10.383M308.57 52.99h-10.382m-9.618 0h-10.338m451.293 132.322v12.315m0 11.419v12.315m18.067-18.027h-12.36m-11.413 0h-12.315M79.889 131.283v12.315m0 11.419v12.36m18.021-18.072H85.597m-11.415 0H61.867M671.908 29.3v27.416m0 25.438v27.417m40.134-40.135h-27.417m-25.439 0H631.77m66.565-26.427-9.843 9.843m-43.013-9.843 9.798 9.843m43.058 43.012-9.843-9.798m-43.013 9.798 9.798-9.798M178.994 0v27.417m0 25.438V80.27m40.135-40.137h-27.416m-25.439 0h-27.417m66.564-26.427-9.798 9.798m-43.057-9.798 9.798 9.798m43.057 43.061-9.798-9.843m-43.057 9.843 9.798-9.843" stroke="#E1A932" stroke-miterlimit="10" stroke-linecap="round" stroke-linejoin="round"/></g><defs><clipPath id="a"><path fill="#fff" d="M0 0h829v837H0z"/></clipPath></defs></svg>