<svg width="495" height="520" viewBox="0 0 495 520" fill="none" xmlns="http://www.w3.org/2000/svg"><g clip-path="url(#a)"><path d="M482.065 523.309c2.972 12.896-74.405 42.046-173.672 65.293-100.215 23.47-184.457 31.978-187.287 18.813-2.827-13.15 76.712-42.771 176.784-65.971 99.13-22.981 181.209-31.018 184.175-18.135Z" fill="url(#b)"/><path opacity=".5" d="m303.614 259.848-37.525 45.745 54.096 26.2c60.379 29.183 104.746 85.592 120.294 152.793l10.654 46.05c.199.862-.392 1.747-1.476 2.868l-140.9 24.498-9.382 2.154-139.753 40.112c-1.497-.539-2.077-1.167-2.27-2.043l-10.22-46.842c-14.915-68.354 1.619-139.169 44.623-191.467l37.911-46.208-54.088-26.292c-60.763-29.348-104.758-85.765-119.23-152.101l-10.383-47.58 142.612-21.954 9.306-1.905 137.114-35.234 10.827 46.801c15.094 65.247-.431 133.444-42.21 184.405Z" fill="#D8DEE8"/><path d="M450.773 527.552c.203.894-.277 1.927-1.38 3.092-9.841 10.304-69.564 30.481-143.591 47.932-74.553 17.573-138.079 26.364-151.601 21.45-1.522-.56-2.409-1.286-2.602-2.196-1.92-8.981 64.207-32.095 147.105-51.502 82.247-19.254 150.069-27.605 152.069-18.776Z" fill="#BFC8D6"/><path d="m275.306 419.55-7.277 1.667-27.254-124.684 7.248-1.612 27.283 124.629Z" fill="url(#c)"/><path d="M228.664 221.656 140.658 240.4l6.291 6.934s43.237 41.685 100.348 57.319c44.89-37.645 65.959-92.783 65.959-92.783l2.684-8.802-87.276 18.588Z" fill="url(#d)"/><path d="M316.582 201.948c1.086 4.858-37.215 17.335-85.754 27.907-48.76 10.623-89.315 15.289-90.376 10.384-1.06-4.905 37.755-17.487 86.49-28.062 48.51-10.524 88.554-15.083 89.64-10.229Z" fill="url(#e)"/><path d="M269.164 410.278c-.036-.003-.004-.022-.004-.022s.036.006.004.022Z" fill="url(#f)"/><path d="M424.604 535.628c-41.374 18.626-108.587 35.182-118.401 37.442 0 0-.644.149-1.091.25l-1.091.251c-5.218 1.203-26.865 5.886-52.947 10.233-23.003 3.815-49.403 7.386-71.012 8.051-.043.012.069-.182.067-.195l-.008-.035-1.203-5.545-.005-.022c-2.647-16.691-10.621-64.865-4.739-76.776 7.004-14.179 91.255-97.426 94.025-100.309 3.743 1.438 114.553 40.727 126.732 50.452 3.273 2.609 6.877 9.197 10.411 17.364 4.017 9.274 7.939 20.715 11.19 31.034 4.763 15.105 8.072 27.805 8.072 27.805Z" fill="url(#g)"/><path d="M125.685 148.091c-7.629-29.485-9.953-51.517-9.953-51.517s-11.937-17.234-37.337-3.293c-2.267 23.302-.382 44.896 4.17 63.561l43.12-8.751Zm2.368 10.544-43.118 8.77c31.666 96.885 137.138 135.474 137.138 135.474l21.949-4.638c-66.332-12.874-99.943-85.028-115.969-139.606ZM216.9 569.946l-38.857 8.72c-9.12-17.215-15.24-35.08-18.551-51.142l43.802-9.713c5.837 29.854 13.237 51.017 13.606 52.135Zm-13.001-64.874-43.559 9.633c-13.508-104.087 65.672-182.293 65.672-182.293l21.949-4.676c-54.359 39.779-53.424 119.915-44.062 177.336Z" fill="#fff"/><path d="m369.873 22.61-91.124 18.913c-25.656 2.924-54.698 8.448-85.569 14.822-30.961 6.392-60.037 12.935-85.028 20.491L14.709 96.164l4.071 18.964.013-.002c-.003 0 .061.345.07.384 2.711 12.63 85.605 6.175 184.271-14.419C300.888 80.689 377.147 54.187 374.3 41.805c-.009-.04-.049-.17-.049-.17l-4.378-19.025Z" fill="url(#h)"/><path d="M370.222 23.63c2.842 12.36-73.383 38.695-171.076 58.986-98.604 20.479-181.414 26.992-184.121 14.387-2.704-12.593 75.605-39.33 174.073-59.56C286.654 17.4 367.382 11.285 370.222 23.63Z" fill="url(#i)"/><path opacity=".3" d="M424.585 534.884c-41.555 18.848-109.065 35.601-118.922 37.887 0 0-.647.151-1.096.254l-1.096.253c-5.24 1.218-26.983 5.957-53.18 10.355-23.105 3.86-49.621 7.474-71.325 8.147-.043.011.07-.185.067-.197l-.008-.036c-.062-.289-.658-2.301-1.228-5.609 24.629-4.904 75.463-17.026 94.474-36.372 25.349-25.806 49.785-32.033 83.354-33.108 27.553-.877 43.473-20.085 49.606-41.111 4.033 9.385 7.972 20.961 11.249 31.401 4.785 15.285 8.105 28.136 8.105 28.136Z" fill="url(#j)"/></g><defs><linearGradient id="b" x1="312.442" y1="470.009" x2="261.831" y2="774.595" gradientUnits="userSpaceOnUse"><stop stop-color="#311944"/><stop offset="1" stop-color="#893976"/></linearGradient><linearGradient id="c" x1="230.612" y1="220.141" x2="354.43" y2="868.429" gradientUnits="userSpaceOnUse"><stop stop-color="#FFC444"/><stop offset=".996" stop-color="#F36F56"/></linearGradient><linearGradient id="d" x1="217.351" y1="168.104" x2="299.846" y2="611.377" gradientUnits="userSpaceOnUse"><stop stop-color="#FFC444"/><stop offset=".996" stop-color="#F36F56"/></linearGradient><linearGradient id="e" x1="185.376" y1="-117.388" x2="246.018" y2="431.264" gradientUnits="userSpaceOnUse"><stop stop-color="#FFC444"/><stop offset=".996" stop-color="#F36F56"/></linearGradient><linearGradient id="f" x1="269.157" y1="410.244" x2="269.178" y2="410.357" gradientUnits="userSpaceOnUse"><stop stop-color="#FFC444"/><stop offset=".996" stop-color="#F36F56"/></linearGradient><linearGradient id="g" x1="250.244" y1="309.166" x2="409.508" y2="1166.94" gradientUnits="userSpaceOnUse"><stop stop-color="#FFC444"/><stop offset=".996" stop-color="#F36F56"/></linearGradient><linearGradient id="h" x1="272.969" y1="344.822" x2="180.039" y2="13.789" gradientUnits="userSpaceOnUse"><stop stop-color="#311944"/><stop offset="1" stop-color="#893976"/></linearGradient><linearGradient id="i" x1="202.641" y1="-27.641" x2="155.955" y2="253.326" gradientUnits="userSpaceOnUse"><stop stop-color="#311944"/><stop offset="1" stop-color="#893976"/></linearGradient><linearGradient id="j" x1="279.008" y1="451.25" x2="353.192" y2="847.837" gradientUnits="userSpaceOnUse"><stop stop-color="#FFC444"/><stop offset=".996" stop-color="#F36F56"/></linearGradient><clipPath id="a"><path fill="#fff" transform="matrix(.98194 -.1892 .2184 .97586 0 70.447)" d="M0 0h372.327v591.56H0z"/></clipPath></defs></svg>