<svg width="630" height="802" viewBox="0 0 630 802" fill="none" xmlns="http://www.w3.org/2000/svg"><path d="M220.278 443.821 200.72 225.034c-5.089-56.965 36.96-107.285 93.938-112.375 56.966-5.089 107.286 36.96 112.376 93.938l19.558 218.786 95.367-8.517-18.85-210.921C493.313 96.306 396.488 15.362 286.851 25.171c-109.64 9.796-190.584 106.62-180.775 216.258l18.849 210.921 95.353-8.529Z" fill="#CACCDD"/><path d="m177.362 238.371 6.639 74.233a170.627 170.627 0 0 0-68.955 29.227l9.879 110.507 70.999-6.345 24.367-2.173L208.3 309.714l-7.567-84.68c-3.295-36.865 13.147-70.92 40.604-91.765-40.997 16.736-68.124 58.709-63.975 105.102ZM286.838 25.172c-34.26 3.06-65.72 14.627-92.489 32.424 21.104-10.215 44.386-16.867 69.131-19.076 109.639-9.796 206.463 71.136 216.259 180.775l8.966 100.363a170.378 170.378 0 0 0-20.104-6.673 1.297 1.297 0 0 0-.207-.044 166.715 166.715 0 0 0-8.918-2.085 70494.802 70494.802 0 0 0-30.621-7.147 166.667 166.667 0 0 0-13.494-3.759l11.206 125.435 70.999-6.344 24.367-2.173-7.528-84.278-11.32-126.63C493.313 96.306 396.488 15.362 286.838 25.172Z" fill="#9DA1BA"/><path d="M470.773 337.2a166.49 166.49 0 0 0-9.127-2.142c-19.51-4.559-39.019-9.105-58.517-13.664-1.75 4.025-3.488 8.048-5.238 12.073l-147.234 13.161c-94.447 8.443-164.174 91.853-155.744 186.301l14.396 161.053c4.845 54.26 34.441 100.358 76.656 128.16-1.312 3.031-2.624 6.05-3.936 9.081l49.082 12.02a169.679 169.679 0 0 0 16.932 4.143c.013-.001.013-.001.027.01 15.305 2.914 31.254 3.787 47.54 2.33l161.054-14.396c94.447-8.443 164.174-91.853 155.744-186.301l-14.396-161.054c-6.606-74.02-59.282-132.867-127.239-150.775Z" fill="#E57828"/><path d="M407.843 823.4 246.79 837.796c-94.447 8.443-177.87-61.283-186.302-155.744L46.092 520.998c-8.443-94.447 61.283-177.869 155.744-186.301l161.054-14.396c94.447-8.443 177.869 61.283 186.301 155.744l14.396 161.053c8.43 94.449-61.297 177.859-155.744 186.302Z" fill="#FFAE39"/><path d="m336.111 358.447-2.316.207c-9.565.857-16.633 9.308-15.776 18.874l35.303 394.994c.857 9.565 9.309 16.633 18.874 15.776l2.316-.207c90.004-8.047 156.436-87.527 148.391-177.518l-9.274-103.736c-8.046-89.991-87.527-156.436-177.518-148.39Z" fill="#FFC050"/><path d="m339.429 546.624.764 8.584c19.365 17.608 33.885 49.029 37.176 85.843 3.291 36.815-5.41 70.325-21.361 91.094l1.523 16.991c25.1-16.522 40.54-58.198 36.323-105.308-4.218-47.122-26.788-85.395-54.425-97.204Z" fill="#E57828"/><path d="M239.009 367.129c-90.004 8.047-156.436 87.527-148.39 177.518l9.273 103.736c8.047 90.004 87.527 156.436 177.518 148.39 9.566-.857 16.633-9.308 15.776-18.874l-35.303-394.994c-.858-9.578-9.309-16.633-18.874-15.776Z" fill="#FFC050"/><path d="m116.794 655.029-9.273-103.736c-7.998-89.488 57.647-168.563 146.869-177.361-3.507-4.592-9.214-7.35-15.395-6.802-90.004 8.047-156.435 87.527-148.39 177.518l9.274 103.736c5.997 67.072 51.66 121.037 111.778 140.87-51.611-23.687-89.44-73.61-94.863-134.225Zm253.444 124.138-35.303-394.994c-.857-9.566 6.21-18.017 15.776-18.874l2.316-.207c22.932-2.05 45.182.751 65.74 7.52-25.016-11.474-53.281-16.801-82.656-14.165l-2.316.207c-9.565.857-16.633 9.308-15.776 18.874l35.303 394.994c.857 9.565 9.309 16.633 18.874 15.776l1.536-.133a17.243 17.243 0 0 1-3.494-8.998Z" fill="#E57828"/><path d="M377.384 641.041c-5.27-58.96-39.3-104.097-76.009-100.817-36.71 3.281-62.197 53.737-56.928 112.697 5.27 58.96 39.3 104.097 76.009 100.816 36.71-3.28 62.197-53.736 56.928-112.696Z" fill="#FFAE39"/><path d="M336.921 611.341c-1.514-16.891-13.284-29.635-26.298-28.476-13.015 1.159-22.338 15.803-20.838 32.682 1.171 13.141 8.565 23.774 17.924 27.303-1.932 23.779-3.863 47.559-5.797 71.326l39.232-3.507c-6.069-22.881-12.148-45.748-18.216-68.629 9.276-4.701 15.223-16.943 13.993-30.699Z" fill="#E57828"/><path d="M325.47 612.365c-1.514-16.89-13.284-29.634-26.299-28.475-13.014 1.159-22.337 15.803-20.837 32.682 1.171 13.14 8.565 23.774 17.924 27.302-1.932 23.78-3.864 47.56-5.797 71.327l39.231-3.508c-6.068-22.88-12.147-45.747-18.216-68.628 9.265-4.7 15.223-16.943 13.994-30.7Z" fill="#FFCF4A"/><path d="M331.447 611.835c-1.515-16.89-13.285-29.634-26.299-28.475-13.015 1.159-22.338 15.803-20.837 32.682 1.17 13.14 8.564 23.774 17.924 27.303-1.932 23.779-3.864 47.559-5.797 71.326l39.231-3.507c-6.068-22.881-12.148-45.748-18.216-68.629 9.264-4.7 15.222-16.955 13.994-30.7Z" fill="#994D1A"/><path d="M65.764 556.131a350.29 350.29 0 0 1 9.26-64.267c7.592-31.54 13.527-56.207 32.905-82.061 9.6-12.804 30.776-36.964 66.321-51.634 22.475-9.266 42.619-11.406 55.556-11.784-12.461-1.165-32.004-1.519-54.709 4.532-37.486 9.993-60.508 31.294-66.403 36.981-3.907 3.773-39.662 39.229-43.985 87.834-.776 8.68-.749 20.063-.72 32.664a680.722 680.722 0 0 0 1.775 47.735Z" fill="#FFCF4A"/><path d="M127.639 196.176c-2.185 18.435-1.448 33.292-.828 45.837a346.753 346.753 0 0 0 5.325 45.685 346.346 346.346 0 0 1 3.613-58.503c1.211-8.238 4.926-33.418 13.354-56.824 6.614-18.322 23.526-56.115 67.939-93.027a114.193 114.193 0 0 0-33.066 13.635c-5.218 3.199-18.362 11.821-30.158 26.89-20.184 25.791-23.509 53.879-26.179 76.307Zm291.856-16.427c2.929 8.658 4.524 17.709 6.102 26.711 1.645 9.313 3.278 18.627 4.923 27.94 3.858-21.005 7.276-43.441-.977-63.131-6.253-14.931-20.039-28.321-35.963-32.268 11.993 9.74 21.043 26.322 25.915 40.748Z" fill="#E7E9F2"/></svg>