<svg width="177" height="20" viewBox="0 0 177 20" fill="none" xmlns="http://www.w3.org/2000/svg"><path d="M6.533.322V4.33l-2.08 1.987V2.343H.295L2.374.322h4.16Z" fill="#438CCA"/><path d="m9.366.322-2.08 2.021h4.16v3.974l2.08-1.987V.322h-4.16Z" fill="#C12126"/><path d="m16.358.322-2.08 2.021h4.16v3.974l2.08-1.987V.322h-4.16Z" fill="#412F6B"/><path d="M6.533 7.037v3.974l-2.08 1.987V9.024H.295l2.08-1.987h4.16Z" fill="#E1A930"/><path d="m9.366 7.037-2.08 1.987h4.16v3.974l2.08-1.987V7.037h-4.16Z" fill="#DD5826"/><path d="m16.358 7.037-2.08 1.987h4.16v3.974l2.08-1.987V7.037h-4.16Z" fill="#58B17A"/><path d="m9.366 13.717-2.08 1.987h4.16v3.974l2.08-1.987v-3.974h-4.16Z" fill="#BD2264"/><path d="m16.358 13.717-2.08 1.987h4.16v3.974l2.08-1.987v-3.974h-4.16Z" fill="#6F5F4F"/><path d="M27.258 10.017c0-3.049.108-4.008.538-5.207 1.04-3.152 3.586-4.728 6.992-4.728 3.227 0 5.665 1.576 6.813 4.145.071.137 0 .274-.144.343l-2.51 1.165c-.179.068-.322 0-.394-.137-.645-1.37-1.793-2.501-3.765-2.501-1.936 0-3.048.993-3.621 2.535-.251.788-.359 1.542-.359 4.385 0 2.844.072 3.597.359 4.385.573 1.542 1.685 2.535 3.621 2.535 1.972 0 3.12-1.13 3.765-2.5.072-.137.215-.24.394-.137l2.51 1.164c.144.069.215.206.144.343-1.148 2.535-3.586 4.145-6.813 4.145-3.406 0-5.952-1.576-6.992-4.728-.43-1.199-.538-2.158-.538-5.207Zm26.354 9.627c-.18 0-.287-.103-.287-.274v-.994h-.036c-.788.925-1.9 1.576-3.693 1.576-3.047 0-4.912-2.158-4.912-5.07V6.249c0-.172.108-.274.287-.274h2.725c.18 0 .287.102.287.274v7.88c0 1.746.86 2.98 2.653 2.98 1.685 0 2.653-1.234 2.653-2.947V6.25c0-.172.108-.274.287-.274h2.725c.18 0 .287.102.287.274v13.086c0 .172-.107.275-.287.275h-2.689v.034Zm11.223.171c-2.797 0-3.908-1.268-3.908-3.905V.664c0-.17.107-.274.287-.274h2.725c.179 0 .286.103.286.274v15.074c0 .925.395 1.234 1.256 1.234h.645c.18 0 .287.102.287.274v2.26c0 .172-.108.275-.287.275h-1.29v.034Zm8.713 0c-2.868 0-3.98-1.336-3.98-4.008V8.613c0-.103-.071-.172-.179-.172h-.932c-.18 0-.287-.103-.287-.274V6.283c0-.171.108-.274.287-.274h.932c.108 0 .18-.069.18-.171V2.069c0-.171.107-.274.286-.274h2.725c.18 0 .287.103.287.274v3.734c0 .103.072.172.18.172h1.9c.179 0 .287.102.287.274v1.884c0 .171-.108.274-.287.274h-1.9c-.108 0-.18.068-.18.171v7.092c0 .96.43 1.267 1.327 1.267h.753c.179 0 .287.103.287.274v2.262c0 .17-.108.274-.287.274h-1.399v.068Zm14.128-.171c-.18 0-.287-.103-.287-.274v-.994h-.036c-.789.925-1.9 1.576-3.693 1.576-3.048 0-4.912-2.158-4.912-5.07V6.249c0-.172.107-.274.286-.274h2.725c.18 0 .287.102.287.274v7.88c0 1.746.86 2.98 2.654 2.98 1.685 0 2.653-1.234 2.653-2.947V6.25c0-.172.108-.274.287-.274h2.725c.18 0 .287.102.287.274v13.086c0 .172-.108.275-.287.275h-2.69v.034Zm7.637 0c-.18 0-.287-.103-.287-.274V6.249c0-.172.108-.274.287-.274h2.725c.18 0 .287.102.287.274v1.164h.035c.682-1.062 1.901-1.747 3.694-1.747 1.111 0 2.259.411 3.012 1.13.143.138.179.24.071.412l-1.577 1.884c-.108.137-.251.171-.431.069-.645-.411-1.326-.651-2.115-.651-1.865 0-2.69 1.267-2.69 3.46v7.4c0 .171-.107.274-.286.274h-2.725Zm11.689-3.494c-.287-.891-.502-1.919-.502-3.358 0-1.405.179-2.5.466-3.357.789-2.364 3.012-3.769 5.845-3.769 2.94 0 5.055 1.44 5.88 3.769.323.959.466 1.884.466 4.11 0 .172-.107.275-.323.275h-8.82c-.108 0-.179.068-.179.171 0 .411.071.72.215 1.062.466 1.336 1.613 2.056 3.191 2.056 1.613 0 2.653-.583 3.335-1.302.143-.137.286-.171.43-.069l1.757 1.474c.143.102.143.24.036.41-1.22 1.37-3.227 2.33-5.881 2.33-2.976 0-5.091-1.404-5.916-3.803Zm8.641-6.03c-.394-1.096-1.47-1.747-2.796-1.747-1.363 0-2.439.65-2.833 1.747a3.633 3.633 0 0 0-.179 1.165c0 .102.071.171.179.171h5.593c.108 0 .18-.069.18-.171a2.889 2.889 0 0 0-.144-1.165Zm7.135-9.456c0-.17.108-.274.287-.274h7.53c4.267 0 6.275 2.056 6.275 5.14 0 2.192-1.076 3.425-2.331 4.076v.069c1.255.445 2.689 1.986 2.689 4.35 0 3.837-2.51 5.653-6.956 5.653h-7.207c-.179 0-.287-.103-.287-.274V.664Zm7.709 7.709c1.793 0 2.869-1.028 2.869-2.535 0-1.542-1.112-2.536-2.869-2.536h-4.016c-.107 0-.179.069-.179.172V8.2c0 .103.072.172.179.172h4.016Zm-4.016 8.325h4.196c1.972 0 3.047-1.062 3.047-2.707 0-1.576-1.111-2.672-3.047-2.672h-4.196c-.107 0-.179.068-.179.171v5.002c0 .137.036.206.179.206Zm18.108 3.117c-2.797 0-3.909-1.268-3.909-3.905V.664c0-.17.108-.274.287-.274h2.725c.18 0 .287.103.287.274v15.074c0 .925.395 1.234 1.255 1.234h.646c.179 0 .286.102.286.274v2.26c0 .172-.107.275-.286.275h-1.291v.034Zm4.482-3.631c-.323-.96-.466-1.885-.466-3.358 0-1.507.143-2.398.466-3.357.789-2.364 3.012-3.768 5.916-3.768 2.869 0 5.056 1.404 5.88 3.768.323.96.467 1.884.467 3.357 0 1.508-.144 2.399-.467 3.358-.788 2.363-3.011 3.768-5.88 3.768-2.904 0-5.127-1.405-5.916-3.768Zm8.569-.857c.251-.72.287-1.37.287-2.535s-.071-1.781-.287-2.535c-.43-1.13-1.326-1.782-2.653-1.782s-2.295.651-2.689 1.782c-.251.72-.287 1.37-.287 2.535s.072 1.816.287 2.535c.43 1.13 1.362 1.782 2.689 1.782s2.259-.651 2.653-1.782Zm15.884 4.317c-.215 0-.322-.069-.466-.274l-2.976-4.18h-.036l-2.976 4.18c-.143.205-.251.274-.502.274h-2.94c-.251 0-.323-.137-.251-.274l4.841-6.818-4.482-6.303c-.072-.137-.036-.274.251-.274h2.976c.215 0 .358.068.502.274l2.581 3.7h.036l2.618-3.7c.143-.206.251-.274.466-.274h2.976c.251 0 .323.137.251.274l-4.482 6.303 4.84 6.818c.072.137.036.274-.251.274h-2.976Z" fill="#fff"/></svg>