<svg width="537" height="840" viewBox="0 0 537 840" fill="none" xmlns="http://www.w3.org/2000/svg"><path d="M267.578 192.139c-.1-1.283-.201-2.517-.276-3.675-2.744-44.35-11-88.423-24.466-130.76-3.448-10.797-7.224-21.545-12.107-31.814-3.549-7.501-6.695-18.324-13.516-23.585-7.853-6.04-31.539 5.135-29.802 15.53.327 2.014 1.535 3.776 2.693 5.437 19.306 27.838 35.188 59.175 45.131 91.997 9.589 31.564 10.219 63.203 14.976 95.572.428 2.819.956 5.839 2.945 7.878 12.207 12.661 14.825-21.898 14.422-26.58Z" fill="#6F5E4E"/><path d="M267.578 192.139c-.1-1.283-.201-2.517-.276-3.675-2.744-44.35-11-88.423-24.466-130.76-3.448-10.797-7.224-21.545-12.107-31.814-3.549-7.501-6.695-18.324-13.516-23.585-7.853-6.04-31.539 5.135-29.802 15.53 0 .025 0 .05.025.075 2.114 2.064 4.934 2.87 7.803 2.165 2.366-.579 4.505-1.787 6.821-2.517 3.297-1.007 6.041-.302 8.457 2.09 2.392 2.365 4.103 5.386 5.664 8.33 7.752 14.901 19.028 46.213 24.138 62.096 4.631 14.372 12.938 59.2 15.304 74.605 2.34 15.177 2.919 30.556 3.02 45.885.025 3.625.101 7.224.176 10.848 7.375-1.434 9.087-25.422 8.759-29.273Z" fill="#6F5E4E"/><path d="M535.918 633.827c-1.863-18.777-6.494-37.227-14.347-54.393-7.828-17.141-18.676-32.772-29.625-48.025-11.277-15.706-22.377-31.362-32.093-48.101-22.275-38.359-36.245-75.485-42.16-119.483-5.462-40.524-8.759-82.584-30.783-118.25-2.039-3.272-4.229-6.444-6.595-9.464a125.863 125.863 0 0 0-12.056-15.253c-48.78-52.506-140.224-55.023-192.402-6.117-42.009 39.367-48.302 95.119-55.551 149.059-5.915 43.998-19.91 81.124-42.16 119.483-9.716 16.738-20.816 32.394-32.092 48.101-10.95 15.253-21.798 30.884-29.626 48.025-7.853 17.166-12.484 35.641-14.347 54.393-3.297 33.35 1.082 67.808 13.592 98.969 23.308 58.068 73.296 101.688 132.522 120.566 73.422 23.383 168.087 23.434 241.66 0 59.226-18.853 109.214-62.498 132.521-120.566 12.435-31.135 16.839-65.594 13.542-98.944Z" fill="#C3D82F"/><path opacity=".41" d="M535.918 633.828c-1.863-18.777-6.494-37.227-14.347-54.393-7.828-17.141-18.676-32.772-29.625-48.025-11.277-15.706-22.377-31.362-32.093-48.1-22.275-38.36-36.245-75.486-42.16-119.484-5.462-40.524-8.759-82.584-30.808-118.25a107.787 107.787 0 0 0-6.595-9.464 125.94 125.94 0 0 0-12.056-15.253c-38.159-41.078-102.469-51.549-153.615-30.733 7.048-.403 14.146.126 21.194 1.812 15.127 3.625 27.939 12.938 37.126 25.347 13.466 18.198 19.18 41.329 22.98 63.278 4.808 27.813 5.638 56.079 7.325 84.195 1.661 27.687 4.052 55.626 12.736 82.13 15.178 46.288 43.066 88.851 48.755 138.009 2.366 20.312.629 41.355-6.796 60.535-5.739 14.875-14.851 28.241-26.353 39.265-23.988 22.93-56.558 35.138-88.826 40.499-32.999 5.487-67.482 4.506-100.027-3.322-34.534-8.306-67.935-25.296-87.87-55.677-18.701-28.518-22.603-63.857-18.475-97.082 1.41-11.276 3.65-22.452 6.645-33.426-9.892 13.919-19.482 28.241-26.605 43.796-7.853 17.167-12.484 35.642-14.347 54.393-3.297 33.351 1.082 67.809 13.592 98.97 23.308 58.068 73.296 101.688 132.522 120.566 73.422 23.383 168.087 23.433 241.66 0 59.226-18.853 109.214-62.498 132.521-120.566 12.435-31.211 16.839-65.669 13.542-99.02Z" fill="#C3D82F"/><path opacity=".41" d="M288.093 217.084c.453 6.443 1.359 12.912 3.222 19.129 1.309 4.405 3.171 8.961 6.267 12.434 1.209-3.675 3.424-6.947 4.229-10.798.151-.73 1.133-.478 1.183.151.453 4.43 1.082 8.835 1.888 13.215 1.56 8.558 3.65 17.04 6.594 25.22 2.543 7.098 5.764 14.247 10.522 20.162.73-5.236.704-10.547.704-15.832 0-.68 1.007-.831 1.183-.151.831 3.096 1.913 6.141 3.172 9.111 4.153 9.741 10.294 19.104 18.324 26.077-.277-5.387-1.863-10.673-3.549-15.757-.227-.68.755-1.007 1.107-.478 7.098 10.622 16.638 20.438 28.166 26.252-2.416-4.857-4.783-9.74-6.519-14.875-.202-.579.604-1.032 1.007-.604 4.732 5.16 9.942 9.892 15.429 14.246 10.42 8.306 21.923 15.455 34.232 20.665-4.481-34.634-9.691-69.47-28.393-99.725a107.563 107.563 0 0 0-6.594-9.464 125.948 125.948 0 0 0-12.057-15.253c-20.539-22.1-48.604-35.314-78.154-39.593-2.265 11.78-2.793 23.987-1.963 35.868Z" fill="#9DB027"/><path opacity=".41" d="M535.92 633.828c-1.863-18.778-6.494-37.227-14.347-54.394-7.828-17.141-18.677-32.771-29.626-48.024-11.276-15.707-22.376-31.363-32.092-48.101-22.276-38.359-36.245-75.486-42.16-119.483-5.462-40.524-8.76-82.584-30.809-118.25-2.039-3.272-4.228-6.444-6.594-9.464a125.959 125.959 0 0 0-12.057-15.254c-10.597-11.427-23.232-20.463-37.025-27.133 8.784 7.425 16.587 16.109 23.056 26.101 22.804 35.138 26 77.374 27.133 118.099.831 29.349 1.888 58.421 9.791 86.888 7.526 27.058 18.551 53.034 30.758 78.28 11.705 24.239 24.013 47.899 32.344 73.573 7.803 24.063 12.56 49.359 11.478 74.756-1.082 25.698-8.281 51.12-21.193 73.421-8.76 15.102-20.162 28.594-33.074 40.298-27.688 25.044-61.995 42.211-97.434 53.311-36.397 11.377-75.033 16.688-113.141 14.724-38.108-1.963-75.637-11.88-107.553-33.35-37.579-25.322-66.474-64.084-78.556-107.855-9.137-33.149-6.595-66.777-3.373-100.43-4.908 13.618-7.979 27.864-9.414 42.287-3.297 33.35 1.083 67.808 13.592 98.969 23.308 58.068 73.296 101.688 132.522 120.566 73.422 23.383 168.087 23.433 241.66 0 59.226-18.853 109.214-62.498 132.522-120.566 12.484-31.161 16.889-65.619 13.592-98.969Z" fill="#C3D82F"/><path d="M455.625 239.436a55.98 55.98 0 0 0-2.266-8.458c-1.887-3.448-4.077-6.645-6.468-9.715.906-.151 1.812-.453 2.768-.957 1.259-.654 3.172-2.139 3.046-3.826-.956-12.182-8.81-23.509-16.763-32.369a201.006 201.006 0 0 0-10.975-11.226 4.4 4.4 0 0 0 3.524-2.819c1.863-4.832-.906-10.294-3.222-14.473-.277-.503-.579-1.006-.881-1.51a121.076 121.076 0 0 0-8.633-8.608c-7.249-6.519-15.304-12.157-23.962-16.663-4.556-2.366-9.187-4.354-14.095-5.739-4.204-1.183-8.458-2.19-12.737-3.096a314.681 314.681 0 0 0-16.587-3.096 266.103 266.103 0 0 0-18.399-2.315c-5.941-.529-11.906-.856-17.871-.781-5.185.076-10.396.403-15.48 1.511-3.272.704-6.695 1.736-9.489 3.649 4.883 11.226 10.345 22.226 12.056 34.509 2.316 16.537-.352 33.955-2.894 50.315-1.007 6.494-2.19 14.649 2.114 20.288 1.108 1.434 3.247.578 4.279-.454 2.089-2.089 3.146-4.581 3.977-7.173.201 3.499.327 7.022.654 10.521.529 5.311 1.989 10.471 3.222 15.656 1.963 8.231 4.43 19.054 12.459 23.559 1.536.856 3.247.026 4.204-1.283 1.711 4.254 3.876 8.331 6.343 12.132 2.441 3.775 5.26 7.35 8.407 10.571 2.517 2.593 5.336 5.513 8.658 7.073 2.291 1.057 4.934.68 6.394-1.56.377-.579.578-1.209.679-1.838 5.638 7.098 12.208 13.441 19.809 18.576 12.636 8.533 27.461 13.39 42.538 15.303 8.784 1.108 17.795 1.058 26.253-1.761a32.71 32.71 0 0 1-1.083-2.996c-.931-3.121-1.334-6.317-1.334-9.539-.126-.428-.201-.881-.277-1.359-.478-3.549-.05-7.25.453-10.773 1.234-8.407 3.147-16.814 3.524-25.322.277-6.192-.553-12.383-1.787-18.45 1.611 1.611 3.348 3.096 5.286 4.355 1.133.73 2.844.403 3.876-.403a19.4 19.4 0 0 0 1.007-3.524c1.032-5.21.654-10.722-.327-15.932Z" fill="#84A63D"/><path d="M455.625 239.436a55.878 55.878 0 0 0-2.265-8.457c-1.888-3.449-4.078-6.645-6.469-9.716.906-.151 1.812-.453 2.769-.956 1.258-.655 3.171-2.14 3.046-3.826-.957-12.183-8.81-23.509-16.764-32.369a200.303 200.303 0 0 0-10.974-11.226c1.56-.227 2.92-1.234 3.524-2.819 1.862-4.833-.906-10.295-3.222-14.473-.277-.504-.579-1.007-.881-1.51a121.3 121.3 0 0 0-8.633-8.609c-7.25-6.519-15.304-12.157-23.963-16.662-4.555-2.366-9.187-4.355-14.095-5.739a191.615 191.615 0 0 0-9.263-2.316c5.412 2.869 10.899 5.613 16.16 8.784 5.26 3.172 10.345 6.746 14.649 11.151 4.153 4.254 7.501 9.338 8.986 15.152.075.353-.252.554-.554.428-2.039-.881-4.002-1.938-5.915-3.045-5.789-3.373-11.226-7.35-17.066-10.622a160.683 160.683 0 0 1 9.288 7.727 170.718 170.718 0 0 1 12.157 11.981c3.902 4.279 7.602 8.785 10.899 13.542 3.121 4.505 5.89 9.237 8.004 14.297 1.888 4.53 3.222 9.313 3.474 14.246.025.302-.327.428-.579.327-2.24-1.007-4.329-2.265-6.318-3.675-2.039-1.434-3.952-2.995-5.864-4.606 1.459 2.945 2.768 5.94 4.027 8.961.654 1.535 1.258 3.096 1.988 4.606a117.512 117.512 0 0 1 1.687 3.624 111.984 111.984 0 0 1 3.876 9.716c1.158 3.398 2.139 6.872 2.492 10.446.277 2.592.277 5.688-1.334 7.903-3.071 4.204-8.231.529-11-1.988-4.631-4.229-8.356-9.514-11.905-14.674-1.309-1.939-2.593-3.877-3.902-5.815-1.283-1.888-2.743-3.675-4.128-5.487a324.998 324.998 0 0 0-5.235-6.519c-7.148-8.608-14.775-16.789-22.704-24.667-7.224-7.199-14.699-14.146-22.225-21.042-6.872-6.293-13.944-12.384-21.697-17.544a149.792 149.792 0 0 1 11.402 9.716c9.666 9.162 17.771 19.91 25.095 30.984 7.4 11.201 13.995 22.88 20.539 34.584 3.272 5.865 6.544 11.73 9.867 17.544 3.373 5.89 7.048 11.604 10.143 17.645 6.318 12.358 10.496 25.623 14.725 38.812 1.46 4.606 2.995 9.313 3.549 14.146.227 1.888.327 4.606-1.812 5.462-1.032.428-2.24.302-3.323.151-1.938-.302-3.851-.957-5.688-1.611-5.563-1.963-10.899-4.682-16.109-7.4-11.05-5.764-22.024-12.862-29.324-23.207-7.274-10.32-10.873-22.578-16.31-33.854-.478 10.949 5.059 21.344 4.027 32.344-.025.302-.302.453-.579.327-4.153-2.039-7.5-5.286-10.143-9.036-5.311-7.551-8.004-16.764-9.968-25.674-1.736-7.929-2.768-15.983-4.027-24.013-2.039 9.011-.151 18.299-.654 27.436-.025.302-.428.529-.655.277-3.624-4.48-6.393-9.54-8.407-14.951-3.674-9.867-4.782-20.514-4.857-30.96-.076-9.816.83-19.607 1.736-29.373-6.468 10.999-7.098 24.138-10.37 36.27-.101.352-.629.352-.73 0-1.132-4.027-1.963-8.13-2.592-12.283-.856-5.487-1.41-10.999-1.938-16.512-.73 7.753-1.913 15.48-3.071 23.006-1.007 6.494-2.19 14.649 2.114 20.287 1.108 1.435 3.247.579 4.279-.453 2.089-2.089 3.146-4.581 3.977-7.173.201 3.498.327 7.022.654 10.521.529 5.311 1.989 10.471 3.222 15.656 1.963 8.23 4.43 19.054 12.459 23.559 1.536.856 3.247.025 4.204-1.284 1.711 4.254 3.876 8.332 6.343 12.132 2.441 3.776 5.26 7.35 8.407 10.572 2.517 2.592 5.336 5.512 8.658 7.073 2.291 1.057 4.934.679 6.394-1.561.377-.579.578-1.208.679-1.837 5.638 7.098 12.208 13.441 19.809 18.576 12.636 8.532 27.461 13.39 42.538 15.303 8.784 1.108 17.795 1.057 26.253-1.762a32.691 32.691 0 0 1-1.083-2.995c-.931-3.121-1.334-6.318-1.334-9.54-.126-.428-.201-.881-.277-1.359-.478-3.549-.05-7.249.453-10.773 1.234-8.407 3.147-16.814 3.524-25.321.277-6.192-.553-12.384-1.787-18.45 1.611 1.611 3.348 3.096 5.286 4.355 1.133.729 2.844.402 3.876-.403.453-1.133.78-2.341 1.007-3.524 1.107-5.235.73-10.748-.252-15.958Z" fill="#84A63D"/><path d="M422.501 284.439c-1.611-11.226-5.437-21.696-9.212-32.318-3.7-10.446-8.885-20.162-14.398-29.752-5.286-9.237-10.596-18.298-16.965-26.831-6.166-8.281-12.912-16.008-20.161-23.333-14.624-14.725-30.733-27.989-47.647-39.996-16.99-12.056-35.818-22.653-49.913-38.258-8.357-9.263-16.159-19.407-23.182-29.701a147.663 147.663 0 0 1-4.833-7.526c-1.082.503-1.56 1.837-1.812 2.92-.679 3.17.353 6.393 1.41 9.338 4.606 7.45 9.917 14.472 15.379 21.269 6.745 8.406 14.02 15.932 22.452 22.678 8.13 6.494 16.788 12.258 25.321 18.223 34.232 23.887 66.022 51.146 89.38 86.083 6.972 10.42 12.635 21.571 18.676 32.545 6.167 11.251 10.647 23.106 13.189 35.691.252 1.334 2.492.126 2.316-1.032Z" fill="#62802D"/><path opacity=".41" d="M58.994 575.434c-2.039-2.517-5.688-1.737-8.054-.151-.353.227-.655.503-1.007.755-1.964 1.334-3.877 4.078-3.222 6.595.05.151.1.302.176.478-.604 2.668-.377 5.537 1.309 7.627 1.636 2.064 4.53 1.359 6.444.125 4.455-2.894 8.18-10.722 4.354-15.429Zm6.163 26.48c-3.876 0-7.5 6.872-2.366 6.872 3.902 0 7.501-6.872 2.366-6.872Zm-29.019 47.822c.075-.302.126-.604.201-.931-.05.176-.075.378-.126.554.151-.78.202-1.536-.15-2.291-.252-.553-.63-.981-1.158-1.258-1.687-.957-3.424-.403-4.984.528-1.611.957-2.945 2.87-2.769 4.808 0 .151.05.277.05.428-.025.075-.025.151-.025.226v.026c-.277 1.082-.277 2.089.554 2.919.78.781 2.014 1.007 3.07.705 1.863-.528 3.55-1.661 4.506-3.398.428-.755.63-1.46.78-2.24 0 .025 0 .05-.025.075.076-.075.076-.125.076-.151Zm43.242-10.698c-.177-.403-.453-.654-.831-.831a1.644 1.644 0 0 0-.453-.151c-.478-.201-1.007-.176-1.51-.025h-.05a4.24 4.24 0 0 0-1.763.353c-1.157.478-2.114 1.61-2.24 2.869-.05.579.1 1.158.277 1.686.176.529.478.906.982 1.133.528.252 1.107.277 1.686.151 1.56-.327 3.046-1.535 3.625-3.046.428-.654.604-1.434.277-2.139ZM57.658 714.4c.05-.302-.025-.704-.126-1.006a.859.859 0 0 0-.1-.303c0-.453-.101-.88-.353-1.208-.453-.579-1.208-.981-1.963-.931-1.41.101-2.668.579-3.675 1.636-.705.73-1.208 1.737-1.258 2.769-.026 1.107.428 2.064 1.46 2.542.1.05.2.101.302.126.125.126.251.252.377.352.277.227.806.327 1.133.327.604.026 1.183-.201 1.686-.478.755-.428 1.334-1.057 1.611-1.862 0 0 0-.026.025-.026.529-.604.755-1.183.881-1.938Zm3.801-13.491c-1.687 0-3.247 2.97-1.032 2.97 1.686.025 3.272-2.97 1.032-2.97Zm41.429-31.994c-2.19 0-4.254 3.901-1.334 3.901 2.19 0 4.229-3.901 1.334-3.901Zm46.316 32.218c-.428-.302-.982-.503-1.486-.704-.453-.227-.906-.479-1.359-.73a9.448 9.448 0 0 0-.881-.403c-.327-.151-.251-.126.025.025-.578-.302-1.082-.453-1.761-.453l.025.025c-.378 0-.73.051-1.032.151-1.108.353-1.863 1.133-2.366 2.19-.806 1.762.277 3.776 1.158 5.286.125.226.251.478.427.68.932 1.157 2.341 1.409 3.776 1.183 1.938-.328 3.876-1.888 4.43-3.751.352-1.334.227-2.643-.956-3.499Zm-30.332 71.787c0-.377-.101-.705-.327-1.007-.302-.402-.68-.679-1.183-.805-.453-.201-.831-.327-1.36-.327-.251 0-.503.025-.755.025a4.04 4.04 0 0 0-3.071 1.586c-.302.402-.528.805-.629 1.283a1.16 1.16 0 0 0-.05.655c0 .327.075.604.277.881.1.176.201.377.302.579.252.402.629.604 1.007.83.73.428 1.485.479 2.29.328 1.082-.177 2.064-.907 2.744-1.762.302-.328.503-.705.654-1.133.126-.378.176-.755.101-1.133Zm12.182-35.037c-3.07 0-5.94 5.462-1.862 5.462 3.071 0 5.94-5.462 1.862-5.462Zm26.831 58.42c-3.549 0-6.871 6.318-2.164 6.318 3.549 0 6.871-6.318 2.164-6.318Zm36.497-34.306c-.402-.226-.906-.428-1.283-.604-.026 0-.026 0-.051-.025-.377-.176-.755-.378-1.158-.503-1.585-.454-3.272-.277-4.782.377-1.183.503-2.29 1.359-3.146 2.391a8.795 8.795 0 0 0-1.888 1.561c-2.492 2.819-2.618 8.381.629 10.672 2.089 1.485 4.934 1.586 7.35.906 2.995-.831 6.091-2.29 7.752-5.059 2.316-3.801.177-7.753-3.423-9.716Zm253.316-132.448c-.378-.805-1.058-1.46-1.964-1.686-1.686-.428-3.549.1-4.933 1.082-1.46 1.032-2.643 2.668-2.668 4.48v-.1.276c0 .403.025.806.126 1.183.277.957.981 1.586 1.862 1.939.353.251.755.453 1.234.654.478.176 1.132.126 1.611.025.78-.151 1.485-.554 2.089-1.082.478-.403.83-.856 1.107-1.41.05-.1.101-.226.151-.352a.371.371 0 0 1 .101-.076 5.428 5.428 0 0 0 1.485-2.768c.151-.781.101-1.46-.201-2.165Zm49.863-6.57c-3.348 0-6.494 5.965-2.039 5.965 3.348 0 6.469-5.965 2.039-5.965Zm2.565 80.848c-3.876 0-7.501 6.872-2.366 6.872 3.876 0 7.501-6.872 2.366-6.872Zm-25.17-127.084a5.28 5.28 0 0 1-.352-.403v-.076a1.08 1.08 0 0 0-.201-.73 1.539 1.539 0 0 0-.705-.881 3.025 3.025 0 0 0-1.963-.704c-1.813.025-3.499 1.057-4.481 2.542-.755 1.133-.931 3.096.403 3.901.302.177.629.353.982.453.629.202 1.334.277 1.988.403.227.025.478.076.705.101.403.025.78-.051 1.158-.202.679-.226 1.359-.604 1.837-1.132.353-.403.655-.831.831-1.334.201-.529.226-1.46-.202-1.938Zm-30.959 209.314c-2.794 0-5.411 4.959-1.711 4.959 2.794.025 5.411-4.959 1.711-4.959Zm-40.674-80.165c-.025-.604-.101-1.183-.151-1.787l-.076-.705v.126l-.075-.529a.985.985 0 0 0-.252-.78c-.352-.83-.956-1.409-1.862-1.938-1.435-.805-2.87-.931-4.43-.428a7.641 7.641 0 0 0-.68.277c-.277 0-.554.025-.856.05-1.435.177-2.693 1.611-2.869 2.97-.227 1.838-.68 3.952-.025 5.739.729 1.964 2.466 2.87 4.178 3.826 1.435.806 3.02.554 4.405-.226 1.258-.705 2.844-2.24 2.768-3.851-.025-.907-.025-1.813-.075-2.744Zm30.154-2.24c-4.078 0-7.878 7.224-2.467 7.224 4.053 0 7.853-7.224 2.467-7.224Zm-87.015-262.553c-3.221 0-6.267 5.739-1.963 5.739 3.222 0 6.242-5.739 1.963-5.739Zm26.026 17.772c-3.02 0-5.864 5.387-1.837 5.387 3.02 0 5.864-5.387 1.837-5.387Zm30.431 54.442c-3.298-.654-6.897.805-9.137 3.272-1.762 1.938-3.046 4.606-2.265 7.274.453 1.536 1.56 2.87 2.97 3.675.377.479.805.906 1.359 1.259 2.215 1.409 4.984.755 7.073-.604 2.064-1.334 3.7-3.776 4.329-6.167.881-3.398-.378-7.904-4.329-8.709Zm36.221-15.933c-4.757 0-9.187 8.432-2.894 8.432 4.732 0 9.187-8.432 2.894-8.432Zm-32.243 303.882c-.05-.101-.1-.176-.151-.277l-.528-.504-.68-.302c-.251-.05-.528-.075-.78-.125a2.768 2.768 0 0 0-1.284.226 2.6 2.6 0 0 0-.855.378 2.562 2.562 0 0 0-.806.553 2.114 2.114 0 0 0-.654.68c-.302.327-.504.705-.655 1.133-.201.453-.352.855-.352 1.384v.654c-.051.403.025.781.226 1.133.126.378.353.68.705.881.352.252.73.378 1.133.403.428.1.881.075 1.309-.025.981-.227 1.938-.73 2.617-1.485.579-.655 1.158-1.511 1.158-2.417v-.705c-.025-.704-.05-.956-.403-1.585Zm59.754-55.877c-3.498 0-6.796 6.242-2.139 6.242 3.524 0 6.796-6.242 2.139-6.242Zm-107.655 35.44c-2.542 0-4.933 4.53-1.561 4.53 2.543 0 4.934-4.53 1.561-4.53Zm1.788 46.764c-2.467 0-4.782 4.405-1.51 4.405 2.492 0 4.807-4.405 1.51-4.405Zm-29.676-6.292c0-.176 0-.352-.05-.503l-.227-.504a1.519 1.519 0 0 0-.402-.402c-.026-.025-.076-.051-.101-.076-.025-.025-.076-.05-.101-.075-.629-.428-1.359-.378-2.064-.252a4.957 4.957 0 0 0-1.032.327c-.025 0-.025.025-.05.025-.05.026-.076.026-.126.051-.226.1-.453.226-.629.377a2.517 2.517 0 0 0-.579.479l-.05.05a1.898 1.898 0 0 0-.378.503c-.101.151-.176.328-.252.504-.05.1-.05.226-.075.327v.05c-.025.101-.051.176-.051.252v.05c0 .176 0 .328.051.504.05.176.126.352.226.503.101.151.227.277.378.378.277.201.579.352.906.428.025 0 .05 0 .101.025.126.025.226.025.352.05.101.025.227.05.327.05.378.026.73-.05 1.057-.176.202-.075.328-.1.504-.176l.151-.075c.201-.101.403-.202.579-.328.251-.151.453-.327.654-.528.025-.025.025-.051.051-.051.151-.151.276-.327.377-.503.126-.151.201-.327.252-.529.05-.1.05-.226.075-.327v-.05c.025-.101.051-.176.051-.277.075-.05.075-.076.075-.101Zm-142.464-22.502-.151-1.762c-.05-.705-.931-1.384-1.56-1.561a3.745 3.745 0 0 0-2.165.126c-1.611.529-3.146 1.938-3.272 3.7-.05.63-.101 1.234-.151 1.863-.076.856.327 1.586.956 2.089.831.655 2.064.529 2.996.227 1.032-.328 1.862-.932 2.542-1.788.327-.352.554-.78.705-1.233a2.889 2.889 0 0 0 .1-1.661ZM45.275 762.802c-1.309 0-2.542 2.341-.806 2.341 1.334 0 2.568-2.341.806-2.341Zm28.592-12.008c-2.542 0-4.933 4.531-1.56 4.531 2.567 0 4.958-4.531 1.56-4.531ZM33.67 683.919c-2.04 0-3.927 3.624-1.234 3.624 2.039 0 3.927-3.624 1.233-3.624Zm58.874-175.186a1.222 1.222 0 0 0-.126-.68.986.986 0 0 0-.428-.529c-.403-.276-1.007-.327-1.485-.226-.579.151-1.183.453-1.586.906-.352.403-.68.906-.704 1.46l-.05.906c-.026.478.175.956.578 1.233.403.277 1.032.328 1.51.227.604-.151 1.209-.453 1.611-.906.126-.151.252-.327.378-.479.201-.302.302-.654.352-1.006-.025-.302-.025-.604-.05-.906Zm30.405-84.447c-2.366 0-4.556 4.178-1.434 4.178 2.34 0 4.555-4.178 1.434-4.178Zm9.313 13.038c-3.021 0-5.865 5.386-1.838 5.386 3.021.025 5.84-5.386 1.838-5.386Zm3.501-36.042c-2.643 0-5.11 4.681-1.611 4.681 2.642 0 5.109-4.681 1.611-4.681Zm28.239-25.5c-2.668 0-5.185 4.757-1.636 4.757 2.668 0 5.16-4.757 1.636-4.757Zm-16.611-63.076c-1.963 0-3.776 3.474-1.183 3.474 1.963 0 3.775-3.474 1.183-3.474Zm18.375-64.184c-2.517 0-4.858 4.48-1.535 4.48 2.517 0 4.858-4.48 1.535-4.48Z" fill="#869920"/><path opacity=".51" d="M79.13 526.453c9.942-8.558 18.928-18.249 27.234-28.418 8.709-10.672 16.386-21.898 22.478-34.307 6.619-13.516 11.427-27.863 14.9-42.487 7.3-30.582 8.382-62.02 13.164-92.979 4.405-28.694 13.542-56.835 31.01-80.344 5.764-7.752 12.485-14.75 19.734-21.143 4.757-4.203 16.889-10.194 18.223-16.562.831-4.002-1.284-8.457-4.933-10.32-4.128-2.139-9.162-.956-13.517.655-17.065 6.317-31.488 18.777-42.009 33.627-15.958 22.553-23.283 50.014-27.989 76.87-5.387 30.607-9.615 61.592-17.041 91.696-3.675 18.852-8.306 37.529-14.951 55.576-6.167 16.738-13.97 32.847-23.459 47.974-8.255 13.139-17.67 25.448-27.914 37.026 9.137-4.229 17.494-10.345 25.07-16.864Z" fill="#C3D82F"/></svg>