<svg width="499" height="509" viewBox="0 0 499 509" fill="none" xmlns="http://www.w3.org/2000/svg"><path d="m363.888 586.228-39.352 21.274c-52.794 28.54-119.365 8.716-147.916-44.102-21.764-40.257-6.648-90.997 33.608-112.761l62.153-33.593c19.919-10.768 45.025-3.274 55.782 16.622l52.323 96.789c10.805 19.874 3.322 45.003-16.598 55.771ZM123.199 2.179l-50.53 14.869C19.271 32.762-11.56 89.312 4.153 142.71l2.232 7.61c12.926 43.892 59.413 69.247 103.306 56.32l67.788-19.956c21.715-6.396 34.252-29.383 27.879-51.109L174.297 30.034c-6.396-21.715-29.383-34.252-51.098-27.855Z" fill="#BD2264"/><path d="M183.321 574.194s-72.015-81.077-122.808-204.33C9.73 246.634 1.325 130.305 1.325 130.305l104.495 77.222s-38.644 15.415 12.139 138.644c50.782 123.23 91.212 104.888 91.212 104.888l-25.85 123.135Z" fill="#BD2264"/><path d="M116.997 139.299c1.468-.351 55.221-17.402 55.221-17.402 2.892-.855 18.801-3.691 23.8-17.995l9.328 31.707c6.397 21.715-6.164 44.713-27.879 51.11l-67.789 19.955c-1.458.434-2.938.82-4.407 1.17-2.298 1.244-11.217 7.46-13.167 28.458-3.469-37.484-5.948-84.087 24.893-97.003ZM60.512 369.861C33.16 303.53 18.117 239.238 10.049 193.96c15.856 61.772 42.799 120.703 55.436 151.327 72.939 176.969 171.448 227.342 273.053 174.093 6.522-3.407 27.898-14.491 17.126-34.847a4.483 4.483 0 0 1-.363-.761l25.22 46.639c10.768 19.919 3.274 45.025-16.622 55.782l-39.351 21.274c-49.032 26.51-109.909 11.269-141.227-33.335l-.012.035c.011.024-71.98-81.064-122.797-204.306Z" opacity=".2" fill="#08060D"/><path opacity=".2" d="M37.339 88.888c9.024 8.865 25.629 6.63 37.065-5.022 11.435-11.653 13.364-28.29 4.317-37.142-9.024-8.865-25.629-6.631-37.064 5.022C30.234 63.364 28.305 80 37.339 88.888Z" fill="#E1A932"/><path opacity=".4" d="M335.105 49.745c61.869 25.517 113.766 74.372 141.094 140.656 27.328 66.283 24.939 137.497-1.01 199.194" stroke="#39373D" stroke-width="5" stroke-miterlimit="10" stroke-linecap="round"/><path opacity=".8" d="M306.169 117.543c44.468 18.374 81.747 53.501 101.373 101.146 19.614 47.621 17.944 98.747-.605 143.094" stroke="#39373D" stroke-width="5" stroke-miterlimit="10" stroke-linecap="round"/><path d="M277.255 185.328c27.042 11.244 49.703 32.641 61.662 61.66 11.913 28.925 10.948 59.997-.235 86.982" stroke="#39373D" stroke-width="5" stroke-miterlimit="10" stroke-linecap="round"/></svg>