<svg xmlns="http://www.w3.org/2000/svg" width="200" height="191.43" viewBox="0 0 200 191.43"><path d="M61.7 0v39.64L41.13 59.29v-39.3H0L20.57 0H61.7Z" fill="#438cca"/><path d="M89.71 0 69.14 19.99h41.13v39.3l20.57-19.65V0H89.71Z" fill="#c12126"/><path d="M158.87 0 138.3 19.99h41.13v39.3L200 39.64V0h-41.13Z" fill="#412f6b"/><path d="M61.7 66.41v39.3l-20.57 19.65v-39.3H0l20.57-19.65H61.7Z" fill="#e1a930"/><path d="M89.71 66.41 69.14 86.06h41.13v39.3l20.57-19.65v-39.3H89.71Z" fill="#dd5826"/><path d="M158.87 66.41 138.3 86.06h41.13v39.3L200 105.71v-39.3h-41.13Z" fill="#58b17a"/><path d="m89.71 132.48-20.57 19.65h41.13v39.3l20.57-19.65v-39.3H89.71Z" fill="#bd2264"/><path d="m158.87 132.48-20.57 19.65h41.13v39.3L200 171.78v-39.3h-41.13Z" fill="#6f5f4f"/></svg>