<svg width="421" height="607" viewBox="0 0 421 607" fill="none" xmlns="http://www.w3.org/2000/svg"><path opacity=".14" d="M233.176 606.204 8.226 472.842a3.816 3.816 0 0 1-1.336-5.222l181.592-306.279a3.816 3.816 0 0 1 5.222-1.336l224.93 133.362a3.816 3.816 0 0 1 1.336 5.222L238.378 604.867a3.792 3.792 0 0 1-5.202 1.337Z" fill="#412F6B"/><path d="M227.317 593.931 2.367 460.569a3.816 3.816 0 0 1-1.336-5.222l181.592-306.278a3.816 3.816 0 0 1 5.222-1.336l224.95 133.362a3.816 3.816 0 0 1 1.336 5.222L232.539 592.595a3.816 3.816 0 0 1-5.222 1.336Z" fill="#DD5723"/><path opacity=".14" d="M291.933 590.166 34.747 542.759a3.822 3.822 0 0 1-3.063-4.441l64.553-350.17a3.822 3.822 0 0 1 4.441-3.064l257.185 47.408a3.823 3.823 0 0 1 3.064 4.441l-64.554 350.17c-.39 2.077-2.364 3.454-4.44 3.063Z" fill="#412F6B"/><path d="m91.447 174.621-65.935 357.64 264.662 48.794 65.935-357.641-264.662-48.793Z" fill="#fff"/><path opacity=".39" d="M286.442 580.321 29.256 532.913a3.792 3.792 0 0 1-3.043-4.44l64.554-350.171a3.822 3.822 0 0 1 4.44-3.063l257.186 47.408a3.793 3.793 0 0 1 3.043 4.44l-64.554 350.171c-.39 2.076-2.364 3.454-4.44 3.063Z" fill="#DD5723"/><path d="M316.066 265.489c-.124 0-.247-.021-.37-.041l-64.369-11.863a2.05 2.05 0 0 1-1.644-2.384 2.06 2.06 0 0 1 2.405-1.645l64.368 11.862a2.051 2.051 0 0 1 1.645 2.385c-.206.987-1.069 1.686-2.035 1.686Zm-3.803 20.558c-.123 0-.247-.02-.37-.041l-64.368-11.862a2.05 2.05 0 0 1-1.645-2.385 2.06 2.06 0 0 1 2.405-1.644l64.369 11.862a2.051 2.051 0 0 1-.391 4.07Zm-4.111 22.368c-.124 0-.247-.021-.37-.042l-64.369-11.862a2.05 2.05 0 1 1 .761-4.029l64.368 11.862a2.052 2.052 0 0 1 1.645 2.385c-.206.987-1.069 1.686-2.035 1.686Z" fill="#fff"/><path opacity=".14" d="M208.545 327.411 98.25 307.079c-2.241-.411-3.722-2.57-3.31-4.79l21.874-118.622c.411-2.241 2.57-3.721 4.79-3.31L231.9 200.689c2.241.412 3.721 2.57 3.31 4.79l-21.875 118.622a4.111 4.111 0 0 1-4.79 3.31Z" fill="#412F6B"/><path d="M204.496 320.524 99.339 301.138a4.123 4.123 0 0 1-3.31-4.79l20.703-112.311c.411-2.24 2.57-3.721 4.79-3.309l105.156 19.386c2.241.411 3.721 2.57 3.31 4.79l-20.702 112.311a4.11 4.11 0 0 1-4.79 3.309Z" fill="#0294F7"/><path opacity=".07" d="m228.034 215.512-113.257-20.866 1.974-10.711a3.986 3.986 0 0 1 4.667-3.207l105.526 19.448a3.847 3.847 0 0 1 3.084 4.482l-1.994 10.854Z" fill="#ECF1F7"/><path d="M146.481 250.503a14.01 14.01 0 0 1-2.426-.227l-1.563-.287c-8.326-1.542-13.856-9.56-12.314-17.886l3.947-21.463c.308-1.686 1.933-2.775 3.598-2.467a3.072 3.072 0 0 1 2.467 3.598l-3.947 21.463c-.926 4.975 2.384 9.785 7.38 10.711l1.562.287c3.865.72 7.607-1.85 8.327-5.735l10.012-54.316c.74-3.988-1.912-7.853-5.921-8.593l-2.673-.493c-4.255-.782-8.326 2.035-9.128 6.27l-.246 1.336a3.082 3.082 0 0 1-3.598 2.467 3.087 3.087 0 0 1-2.467-3.598l.247-1.336c1.397-7.586 8.716-12.623 16.302-11.225l2.673.494c7.339 1.357 12.212 8.429 10.855 15.768l-10.012 54.315c-1.172 6.414-6.784 10.917-13.075 10.917Z" fill="#412F6B"/><path d="M157.17 204.882c-.062 0-.124 0-.185-.02l-41.097-7.566a1.025 1.025 0 0 1-.822-1.192c.103-.555.637-.946 1.192-.822l41.097 7.565c.555.103.925.637.822 1.192a1.015 1.015 0 0 1-1.007.843Zm125.654 212.451c-.123 0-.247 0-.37-.041L85.751 381.027a2.061 2.061 0 0 1-1.644-2.405 2.05 2.05 0 0 1 2.405-1.645l196.703 36.265a2.05 2.05 0 0 1 1.644 2.385 2.068 2.068 0 0 1-2.035 1.706Zm-14.063 76.292c-.123 0-.246 0-.37-.041L71.689 457.319a2.06 2.06 0 0 1-1.645-2.405c.206-1.11 1.275-1.871 2.405-1.645l196.703 36.265a2.063 2.063 0 0 1-.391 4.091Zm-96.685-57.275c-.124 0-.247 0-.37-.041L78.72 419.163a2.051 2.051 0 0 1-1.645-2.385c.206-1.11 1.275-1.871 2.406-1.644l92.985 17.145a2.062 2.062 0 0 1 1.645 2.406c-.185.986-1.049 1.665-2.035 1.665Zm12.808-69.508c-.123 0-.246 0-.37-.041l-92.985-17.146a2.052 2.052 0 0 1-1.645-2.385 2.062 2.062 0 0 1 2.405-1.645l92.986 17.146a2.062 2.062 0 0 1 1.645 2.405 2.073 2.073 0 0 1-2.036 1.666Zm90.971 88.34c-.123 0-.247 0-.37-.041l-88.607-16.323a2.061 2.061 0 0 1-1.644-2.406 2.05 2.05 0 0 1 2.405-1.644l88.607 16.323a2.06 2.06 0 0 1 1.644 2.405c-.205.987-1.069 1.686-2.035 1.686Z" fill="#fff"/><path d="M255.029 51.087h-109.33a6.843 6.843 0 0 1-6.845-6.846V7.667a6.843 6.843 0 0 1 6.845-6.845h109.33a6.843 6.843 0 0 1 6.846 6.845v36.574a6.843 6.843 0 0 1-6.846 6.846Z" fill="#0294F7"/><path d="M337.387 105.896H184.453a6.845 6.845 0 0 1-6.846-6.846V44.673a6.844 6.844 0 0 1 6.846-6.846h152.934a6.843 6.843 0 0 1 6.846 6.846V99.05a6.844 6.844 0 0 1-6.846 6.846Z" fill="#DD5723"/><path d="M218.332 91.504h169.36c5.119 0 9.292 4.194 9.292 9.292v51.869c0 5.119-4.194 9.293-9.292 9.293h-169.36c-5.12 0-9.293-4.194-9.293-9.293v-51.869c-.02-5.119 4.173-9.292 9.293-9.292Z" fill="#fff"/><path opacity=".74" d="M218.332 91.504h169.36c5.119 0 9.292 4.194 9.292 9.292v51.869c0 5.119-4.194 9.293-9.292 9.293h-169.36c-5.12 0-9.293-4.194-9.293-9.293v-51.869c-.02-5.119 4.173-9.292 9.293-9.292Z" fill="#6F5E4E"/><path d="M337.328 134.986c-4.503 0-8.162-3.66-8.162-8.162 0-4.502 3.659-8.162 8.162-8.162 4.502 0 8.161 3.66 8.161 8.162 0 4.502-3.659 8.162-8.161 8.162Zm0-14.268a6.106 6.106 0 1 0 0 12.213 6.106 6.106 0 0 0 0-12.213Zm-33.698 14.268c-4.502 0-8.161-3.66-8.161-8.162 0-4.502 3.659-8.162 8.161-8.162 4.503 0 8.162 3.66 8.162 8.162 0 4.502-3.659 8.162-8.162 8.162Zm0-14.268a6.106 6.106 0 1 0 .002 12.212 6.106 6.106 0 0 0-.002-12.212Zm-31.392 14.268c-4.502 0-8.162-3.66-8.162-8.162 0-4.502 3.66-8.162 8.162-8.162 4.502 0 8.162 3.66 8.162 8.162 0 4.502-3.66 8.162-8.162 8.162Zm0-14.268a6.106 6.106 0 1 0 6.106 6.106c0-3.372-2.755-6.106-6.106-6.106Z" fill="#fff"/></svg>