<svg width="421" height="568" viewBox="0 0 421 568" fill="none" xmlns="http://www.w3.org/2000/svg"><path d="M119.233.442h240.44a8.775 8.775 0 0 1 8.779 8.779v354.144c0 16.708-13.545 30.252-30.253 30.252H171.243c-35.603 0-64.462-28.858-64.462-64.461V12.876c0-6.877 5.576-12.434 12.452-12.434Z" fill="#fff"/><path opacity=".39" d="M109.832.442h253.891a4.711 4.711 0 0 1 4.709 4.71v359.607c0 15.936-12.904 28.84-28.84 28.84H165.497c-32.438 0-58.735-26.297-58.735-58.735V3.494a3.08 3.08 0 0 1 3.07-3.052Z" fill="#0294F7"/><path opacity=".39" d="M132.099.442h232.623a3.706 3.706 0 0 1 3.711 3.711v361.604c0 15.39-12.471 27.86-27.861 27.86H187.763c-31.891 0-57.755-25.844-57.755-57.755V2.514a2.095 2.095 0 0 1 2.091-2.072Z" fill="#412F6B"/><path d="M166.535 393.542v.075h210.169c24.187 0 43.797-19.61 43.797-43.797v-16.633H207.959v16.633c0 23.377-18.329 42.479-41.424 43.722Z" fill="#6161B5"/><path d="M194.393 393.542v.075h187.111c21.532 0 38.994-19.61 38.994-43.797v-16.633H231.276v16.633c0 23.377-16.332 42.479-36.883 43.722Z" fill="#412F6B" opacity=".28"/><path d="M328.722 287.845H177.608a1.889 1.889 0 0 1-1.883-1.884c0-1.036.847-1.884 1.883-1.884h151.114a1.89 1.89 0 0 1 1.884 1.884 1.878 1.878 0 0 1-1.884 1.884Zm3.166-63.616H174.784a1.889 1.889 0 0 1-1.884-1.883 1.89 1.89 0 0 1 1.884-1.884h157.104a1.89 1.89 0 0 1 1.884 1.884 1.877 1.877 0 0 1-1.884 1.883Zm-78.721 31.78h-80.285a1.89 1.89 0 0 1-1.884-1.884 1.89 1.89 0 0 1 1.884-1.884h80.285a1.89 1.89 0 0 1 1.884 1.884 1.89 1.89 0 0 1-1.884 1.884Z" fill="#fff"/><path d="M247.084 256.009h-68.116a1.89 1.89 0 0 1-1.884-1.884 1.89 1.89 0 0 1 1.884-1.884h68.116a1.89 1.89 0 0 1 1.884 1.884 1.89 1.89 0 0 1-1.884 1.884Zm32.211-99.82H175.878a1.89 1.89 0 0 1-1.884-1.884c0-1.036.848-1.883 1.884-1.883h103.417c1.036 0 1.884.847 1.884 1.883a1.866 1.866 0 0 1-1.884 1.884Zm47.94 0h-31.496a1.89 1.89 0 0 1-1.884-1.884c0-1.036.848-1.883 1.884-1.883h31.496c1.036 0 1.884.847 1.884 1.883a1.866 1.866 0 0 1-1.884 1.884Zm4.653 31.799H219.899a1.888 1.888 0 0 1-1.883-1.883c0-1.036.847-1.884 1.883-1.884h111.989c1.036 0 1.883.848 1.883 1.884a1.876 1.876 0 0 1-1.883 1.883Zm-123.046 0h-34.058a1.889 1.889 0 0 1-1.884-1.883 1.89 1.89 0 0 1 1.884-1.884h34.058a1.89 1.89 0 0 1 1.884 1.884 1.889 1.889 0 0 1-1.884 1.883Zm119.88-58.698H177.608a1.888 1.888 0 0 1-1.883-1.883c0-1.036.847-1.884 1.883-1.884h151.114a1.89 1.89 0 0 1 1.884 1.884 1.889 1.889 0 0 1-1.884 1.883Zm0-63.633H177.608a1.889 1.889 0 0 1-1.883-1.884c0-1.036.847-1.883 1.883-1.883h151.114a1.89 1.89 0 0 1 1.884 1.883 1.89 1.89 0 0 1-1.884 1.884Zm-95.654 31.779h-57.19a1.89 1.89 0 0 1-1.884-1.884 1.89 1.89 0 0 1 1.884-1.884h57.19a1.89 1.89 0 0 1 1.884 1.884 1.866 1.866 0 0 1-1.884 1.884Zm94.508 0H259.46a1.89 1.89 0 0 1-1.884-1.884 1.89 1.89 0 0 1 1.884-1.884h68.116a1.89 1.89 0 0 1 1.884 1.884 1.877 1.877 0 0 1-1.884 1.884Z" fill="#fff"/><path d="M313.597 370.258H153.291c-11.227 0-20.307-9.099-20.307-20.307v-13.318c0-11.265-9.136-20.382-20.382-20.382h-74.05c-11.265 0-20.382 9.136-20.382 20.382v211.62c0 10.492 8.496 18.988 18.988 18.988h276.458c10.492 0 18.988-8.496 18.988-18.988V389.265c-.019-10.493-8.534-19.007-19.007-19.007Z" fill="#DD5723"/><path d="M295.927 370.258H135.621c-11.227 0-20.307-9.099-20.307-20.307v-13.318c0-11.265-9.136-20.382-20.382-20.382h-74.05C9.617 316.251.5 325.387.5 336.633v211.62c0 10.492 8.496 18.988 18.988 18.988h276.439c10.492 0 18.988-8.496 18.988-18.988V389.265c0-10.493-8.496-19.007-18.988-19.007Z" fill="#DD5723"/><path opacity=".12" d="M295.927 370.258H135.621c-11.227 0-20.307-9.099-20.307-20.307v-13.318c0-11.265-9.136-20.382-20.382-20.382h-74.05C9.617 316.251.5 325.387.5 336.633v211.62c0 10.492 8.496 18.988 18.988 18.988h276.439c10.492 0 18.988-8.496 18.988-18.988V389.265c0-10.493-8.496-19.007-18.988-19.007Z" fill="#fff"/><path opacity=".12" d="M255.276 370.258H117.028c-9.682 0-17.519-9.099-17.519-20.307v-13.318c0-11.265-7.874-20.382-17.575-20.382H18.075C8.374 316.251.5 325.387.5 336.633v211.62c0 10.492 7.328 18.988 16.37 18.988h238.406c9.042 0 16.37-8.496 16.37-18.988V389.265c0-10.493-7.328-19.007-16.37-19.007Z" fill="#fff"/><path d="M15.306 391.412a1.89 1.89 0 0 1-1.884-1.884v-46.227c0-7.158 5.82-12.979 12.979-12.979h54.553a1.89 1.89 0 0 1 1.884 1.884 1.89 1.89 0 0 1-1.884 1.884H26.401c-5.086 0-9.212 4.125-9.212 9.211v46.227a1.877 1.877 0 0 1-1.883 1.884Z" fill="#fff"/></svg>