<svg width="744" height="630" viewBox="0 0 744 630" fill="none" xmlns="http://www.w3.org/2000/svg"><path d="M395.287 267.494a53.298 53.298 0 0 1-28.066-1.944c-5.568-2.108-11.798.702-13.908 6.272a10.749 10.749 0 0 0-.535 5.668l18.554 94.689-94.212 18.46c-5.904 1.202-11.665-2.607-12.865-8.507a10.903 10.903 0 0 1 .254-5.354c9.992-28.403-4.938-59.524-33.356-69.507-28.419-9.983-59.559 4.949-69.554 33.354a54.476 54.476 0 0 0-2.064 28.613 53.193 53.193 0 0 0 12.393 25.236c4.055 4.364 3.802 11.186-.564 15.24a10.795 10.795 0 0 1-5.049 2.636L60.863 433.013 8.453 165.534c-4.633-23.641 10.786-46.555 34.436-51.189l267.646-52.443 20.545 104.851c1.11 5.917 6.819 9.809 12.736 8.695a10.884 10.884 0 0 0 4.862-2.256c22.553-19.971 57.029-17.895 76.997 4.638 19.977 22.532 17.896 56.985-4.657 76.956a54.553 54.553 0 0 1-25.731 12.708Z" fill="#BD2264"/><path d="M396.004 267.878a53.367 53.367 0 0 1-28.117-1.952c-5.577-2.114-11.818.702-13.931 6.285a10.766 10.766 0 0 0-.535 5.681l18.597 94.912-94.377 18.493c-5.914 1.204-11.685-2.615-12.888-8.529a10.927 10.927 0 0 1 .254-5.366c10.007-28.469-4.954-59.663-33.424-69.674-28.469-10.009-59.663 4.955-69.673 33.425a54.641 54.641 0 0 0-2.064 28.68 53.346 53.346 0 0 0 12.417 25.296c4.064 4.374 3.811 11.213-.562 15.275a10.803 10.803 0 0 1-5.058 2.642L61.007 433.745l52.535 268.111c4.643 23.696 27.612 39.135 51.303 34.492l268.114-52.535-20.699-105.634c-1.272-5.832-7.031-9.531-12.859-8.263a10.809 10.809 0 0 0-5.063 2.644 53.339 53.339 0 0 1-25.291 12.417c-29.61 5.829-58.34-13.448-64.17-43.058-5.83-29.61 13.45-58.34 43.06-64.17a54.625 54.625 0 0 1 28.675 2.066c5.776 1.759 11.881-1.495 13.639-7.268.533-1.74.619-3.584.259-5.367l-18.492-94.376 94.91-18.597c5.876-1.025 11.482 2.909 12.505 8.789a10.859 10.859 0 0 1-.535 5.682 53.315 53.315 0 0 0-1.958 28.113c5.774 29.62 34.475 48.948 64.096 43.172 29.611-5.774 48.942-34.468 43.168-64.09a54.583 54.583 0 0 0-12.737-25.779c-3.807-4.683-3.1-11.566 1.585-15.374a10.932 10.932 0 0 1 4.869-2.261l105.104-20.595-52.535-268.11c-4.643-23.697-27.608-39.136-51.304-34.493L311.078 61.795l20.593 105.098c1.113 5.932 6.832 9.834 12.76 8.718a10.895 10.895 0 0 0 4.87-2.261c22.59-20.015 57.128-17.93 77.134 4.658 20.015 22.586 17.934 57.12-4.656 77.135a54.626 54.626 0 0 1-25.775 12.735Z" fill="#E1A932"/><path d="m682.882 311.132 52.658 268.742c4.654 23.752-10.743 46.755-34.398 51.39l-267.646 52.444-20.747-105.883c-1.274-5.846-7.027-9.557-12.845-8.291a10.773 10.773 0 0 0-5.053 2.645 53.07 53.07 0 0 1-25.242 12.425c-29.559 5.82-58.258-13.522-64.101-43.201-5.844-29.68 13.383-58.459 42.942-64.278a54.363 54.363 0 0 1 28.632 2.092c5.768 1.767 11.861-1.489 13.612-7.273.531-1.744.615-3.592.255-5.379l-18.536-94.598 94.745-18.565c5.866-1.023 11.467 2.924 12.493 8.818a10.92 10.92 0 0 1-.53 5.694 53.61 53.61 0 0 0-1.934 28.173c5.788 29.691 34.459 49.083 64.029 43.317 29.56-5.764 48.838-34.507 43.05-64.198a54.889 54.889 0 0 0-12.736-25.846c-3.805-4.696-3.105-11.593 1.57-15.407a10.896 10.896 0 0 1 4.86-2.262l104.922-20.559Z" fill="#DD5723"/></svg>