<svg width="729" height="529" viewBox="0 0 729 529" fill="none" xmlns="http://www.w3.org/2000/svg"><g clip-path="url(#a)"><path d="M122.14 295.633c-1.601 1.353-37.985 79.761 16.2 150.774 49.82 65.277 143.456 87.957 145.705 79.285 2.744-10.616-41.949-39.699-66.497-95.523-8.71-19.802 0-51.306 0-51.306l-95.408-83.23Z" fill="#E1A932"/><path opacity=".1" d="M217.53 378.824s-3.774 13.665-3.85 28.646a101567.936 101567.936 0 0 1-104.976-50.22c.324-35.126 12.502-60.855 13.417-61.637l95.409 83.211Z" fill="#000"/><path d="M274.478 166.472c1.6-1.353 84.907-24.414 146.086 40.652 56.261 59.826 63.294 155.921 54.374 156.702-10.92.972-32.304-47.876-83.363-81.229-18.106-11.816-50.62-8.405-50.62-8.405l-66.477-107.72Z" fill="#E1A932"/><path opacity=".1" d="M337.905 163.365c9.739 33.429 24.662 84.698 32.534 111.799-15-2.497-29.465-.972-29.465-.972l-66.477-107.72c.895-.782 28.512-8.672 63.408-3.107Z" fill="#000"/><path d="m376.308 349.012-90.32 76.579S178.897 385.662 106.969 290.73c-35.87-47.399-62.742-103.013-80.505-152.794C1.84 69.228-5.307 11.747 5.194 2.846c10.54-8.938 66.058 7.548 129.848 43.035 46.161 25.71 96.629 61.313 137.51 104.462 81.877 86.489 103.756 198.669 103.756 198.669Z" fill="#C7C7C7"/><path d="M233.882 162.98c24.395 28.76 20.831 71.852-7.929 96.247-28.759 24.396-71.851 20.832-96.247-7.928-24.395-28.76-20.85-71.852 7.929-96.247 28.76-24.377 71.852-20.832 96.247 7.928Z" fill="#A6A6A6"/><path d="M227.535 159.242c24.396 28.76 20.831 71.852-7.928 96.247-28.76 24.396-71.852 20.832-96.247-7.928-24.396-28.76-20.851-71.852 7.928-96.247 28.76-24.376 71.852-20.831 96.247 7.928Z" fill="#E1A932"/><path d="M211.544 172.757c16.924 19.936 14.485 49.82-5.451 66.763-19.935 16.924-49.819 14.485-66.763-5.451-16.924-19.935-14.484-49.819 5.451-66.763 19.955-16.924 49.839-14.484 66.763 5.451Z" fill="#fff"/><path d="M211.544 172.737c3.907 4.612 6.804 9.758 8.653 15.152l-3.107 38.041a47.333 47.333 0 0 1-10.997 13.551 47.14 47.14 0 0 1-10.787 6.88l6.709-82.162c3.469 2.363 6.69 5.184 9.529 8.538Zm-61.122-9.528-6.194 75.835a48.19 48.19 0 0 1-4.898-4.955c-16.944-19.955-14.504-49.839 5.451-66.763a45.72 45.72 0 0 1 5.641-4.117Zm41.777-4.117-7.395 90.72a34.074 34.074 0 0 1-4.212.648l7.567-92.703c1.334.382 2.687.839 4.04 1.335Z" fill="#EBEBEB"/><path d="M135.042 45.882 26.464 137.935C1.84 69.229-5.307 11.747 5.194 2.846c10.54-8.938 66.058 7.548 129.848 43.035Z" fill="#E1A932"/><path d="M35.632 110.873a3.987 3.987 0 0 1-.457 5.622 3.987 3.987 0 0 1-5.623-.457 3.989 3.989 0 0 1 .458-5.623c1.696-1.429 4.212-1.219 5.622.458ZM54.958 94.5a3.987 3.987 0 0 1-.458 5.622 3.987 3.987 0 0 1-5.622-.457 3.988 3.988 0 0 1 .457-5.622 3.988 3.988 0 0 1 5.623.457Zm19.306-16.37a3.988 3.988 0 0 1-.458 5.623 3.988 3.988 0 0 1-5.622-.457 3.988 3.988 0 0 1 .457-5.623c1.697-1.429 4.212-1.238 5.623.458ZM93.59 61.74a3.988 3.988 0 0 1-.457 5.623 3.988 3.988 0 0 1-5.622-.458 3.988 3.988 0 0 1 .457-5.622 3.988 3.988 0 0 1 5.623.457Zm19.306-16.37a3.987 3.987 0 0 1-.457 5.622 3.989 3.989 0 1 1-5.165-6.08 3.987 3.987 0 0 1 5.622.457Z" fill="#fff"/><path d="M283.874 403.501a3.988 3.988 0 0 1-.458 5.622 3.987 3.987 0 0 1-5.622-.457 3.987 3.987 0 0 1 .457-5.622c1.697-1.43 4.212-1.239 5.623.457Zm19.325-16.39a3.987 3.987 0 0 1-.457 5.622 3.988 3.988 0 0 1-5.622-.457 3.988 3.988 0 0 1 .457-5.623 3.987 3.987 0 0 1 5.622.458Zm19.307-16.37a3.99 3.99 0 1 1-5.623-.457c1.696-1.429 4.212-1.22 5.623.457Zm19.326-16.372a3.987 3.987 0 0 1-.457 5.622 3.988 3.988 0 1 1-5.165-6.08 3.988 3.988 0 0 1 5.622.458Zm19.306-16.371a3.987 3.987 0 0 1-.457 5.622 3.988 3.988 0 0 1-5.622-.457 3.988 3.988 0 0 1 .457-5.623 3.97 3.97 0 0 1 5.622.458Z" fill="#A6A6A6"/><path opacity=".2" d="M2.507 7.154C6.28 60.176 38.414 151.963 114.192 248.61c55.975 71.395 153.938 123.483 206.254 147.763l-34.458 29.218s-107.092-39.929-179.02-134.861C71.08 243.331 44.227 187.717 26.464 137.936 4.374 76.356-3.63 23.811 2.507 7.154Z" fill="#fff"/><path d="m391.021 383.224-73.453 62.266-26.473-24.224 80.352-68.116 19.574 30.074Z" fill="#E1A932"/><path opacity=".1" d="m371.447 353.151 9.529 14.656-79.761 62.723-10.101-9.263 80.333-68.116Z" fill="#000"/><path d="m144.858 46.856-1.906 28.455 27.102 13.38-30.19-1.22-11.969 25.882.286-28.741L102.7 71.538l28.626.705 13.532-25.387ZM39.749 53.854 38.7 69.768l15.152 7.471-16.886-.686-6.69 14.466.153-16.048-14.237-7.319 16.01.382 7.547-14.18Zm323.085 128.684-1.048 15.895 15.133 7.471-16.868-.667-6.689 14.466.152-16.067-14.237-7.319 16.01.401 7.547-14.18ZM222.274 465.6l-1.067 15.914 15.152 7.471-16.867-.686-6.69 14.466.153-16.067-14.237-7.299 15.99.381 7.566-14.18Z" fill="#FCFCFC"/><path opacity=".6" d="M374.631 396.909c19.459 28.855 44.312 54.356 73.967 72.957 29.541 18.621 63.981 30.17 99.583 31.237a182.46 182.46 0 0 0 53.136-6.499c17.419-4.802 34.286-12.254 49.934-22.032 15.647-9.758 30.075-21.803 42.977-35.468 12.903-13.665 24.3-28.931 34.268-45.189-8.005 17.287-17.629 33.963-29.179 49.458-11.53 15.476-25.005 29.751-40.367 42.025-15.342 12.274-32.59 22.527-51.172 30.056-18.564 7.547-38.423 12.369-58.683 14.198-40.614 3.584-82.296-4.993-119.479-22.756-37.337-17.725-70.194-44.312-97.143-75.663l42.158-32.324Z" fill="#E1A932"/><path d="m418.904 446.291 2.096 11.34 11.969 2.554L421 462.72l-2.115 11.359-2.764-11.321-11.302-2.573 11.302-2.592 2.783-11.302Zm224.189 41.796 1.182 6.347 6.69 1.41-6.69 1.43-1.182 6.346-1.543-6.327-6.309-1.449 6.309-1.448 1.543-6.309Zm-58.072 3.413 1.163 6.346 6.709 1.41-6.709 1.43-1.163 6.346-1.544-6.327-6.327-1.449 6.327-1.448 1.544-6.308Zm-203.433-36.823 1.162 6.346 6.69 1.43-6.69 1.41-1.181 6.347-1.544-6.328-6.309-1.429 6.309-1.449 1.563-6.327Zm275.99 18.392c0 2.363 3.678 2.363 3.678 0s-3.678-2.382-3.678 0Zm-284.967-52.527c0 2.363 3.678 2.363 3.678 0s-3.678-2.382-3.678 0Zm164.116 99.068c0 2.364 3.678 2.364 3.678 0 0-2.363-3.678-2.363-3.678 0Zm111.266-43.266c0 1.677 2.611 1.677 2.611 0s-2.611-1.677-2.611 0Zm-175.571 43.934c0 1.677 2.611 1.677 2.611 0-.019-1.658-2.611-1.678-2.611 0Zm133.145-13.244c0 4.536 7.052 4.555 7.052 0 .019-4.555-7.052-4.555-7.052 0Zm-145.114-3.414c0 4.536 7.051 4.555 7.051 0 0-4.536-7.051-4.555-7.051 0Z" fill="#fff"/></g><defs><clipPath id="a"><path fill="#fff" transform="rotate(-90 264.479 263.975)" d="M0 0h528v727.993H0z"/></clipPath></defs></svg>