<svg width="612" height="506" viewBox="0 0 612 506" fill="none" xmlns="http://www.w3.org/2000/svg"><g clip-path="url(#a)"><path d="M233.386 170.678 350.333 0l-5.718 206.801 194.911-69.342-126.204 163.916 198.451 58.45-198.451 58.496 126.204 163.916-194.911-69.342 5.718 206.801-116.947-170.677-116.901 170.677 5.718-206.801-194.911 69.342L53.45 418.321-145 359.825l198.45-58.45-126.158-163.916 194.911 69.342L116.485 0l116.901 170.678Z" fill="#F6CE0E"/><path d="M400.024 359.826 550.326 462.84l-182.114-5.037 61.037 171.631-144.357-111.138-51.507 174.762-51.462-174.762L37.521 629.434l61.083-171.631-182.114 5.037L66.792 359.826-83.51 256.856l182.114 5.037L37.52 90.263 181.923 201.4l51.462-174.808L284.892 201.4 429.249 90.263l-61.037 171.63 182.114-5.037-150.302 102.97Z" fill="#EEDD20"/><path d="M233.386 528.234c93.01 0 168.409-75.399 168.409-168.409 0-93.009-75.399-168.408-168.409-168.408-93.009 0-168.408 75.399-168.408 168.408 0 93.01 75.399 168.409 168.408 168.409Z" fill="#F6C115"/><path d="M325.511 218.827c17.335 26.457 27.41 58.087 27.41 92.123 0 93.031-75.423 168.454-168.454 168.454-33.99 0-65.621-10.074-92.123-27.41 30.087 45.971 82.003 76.331 141.044 76.331 93.031 0 168.454-75.423 168.454-168.409 0-59.086-30.36-111.002-76.331-141.089Z" fill="#F2B11C"/><path d="M210.56 333.595c-41.206 36.032-94.347 42.749-118.626 14.976-24.278-27.774-10.573-79.508 30.678-115.586 41.251-36.078 94.347-42.748 118.626-14.975 24.279 27.773 10.528 79.507-30.678 115.585Z" fill="#F5CD10"/></g><defs><clipPath id="a"><path fill="#fff" d="M0 0h612v556H0z"/></clipPath></defs></svg>