<svg width="136" height="427" viewBox="0 0 136 427" fill="none" xmlns="http://www.w3.org/2000/svg"><g clip-path="url(#a)"><g clip-path="url(#b)"><mask id="c" style="mask-type:luminance" maskUnits="userSpaceOnUse" x="0" y="294" width="136" height="134"><path d="M135.5 294.57H.5v132.537h135V294.57Z" fill="#fff"/></mask><g mask="url(#c)"><mask id="d" style="mask-type:luminance" maskUnits="userSpaceOnUse" x="0" y="294" width="136" height="134"><path d="M135.499 294.574H.553v132.537h134.946V294.574Z" fill="#fff"/></mask><g mask="url(#d)"><mask id="e" style="mask-type:luminance" maskUnits="userSpaceOnUse" x="0" y="294" width="136" height="134"><path d="M135.5 294.57H.554v132.537H135.5V294.57Z" fill="#fff"/></mask><g mask="url(#e)"><mask id="f" style="mask-type:luminance" maskUnits="userSpaceOnUse" x="0" y="294" width="136" height="134"><path d="M135.5 294.574H.553v132.537H135.5V294.574Z" fill="#fff"/></mask><g mask="url(#f)"><mask id="g" style="mask-type:luminance" maskUnits="userSpaceOnUse" x="0" y="294" width="136" height="134"><path d="M135.501 294.57H.554v132.537h134.947V294.57Z" fill="#fff"/></mask><g mask="url(#g)"><path d="M1.477 328.209H101.86v98.139H1.477v-98.139Z" fill="#5AB17A"/><path fill-rule="evenodd" clip-rule="evenodd" d="m101.859 328.209 32.717-32.713v98.139l-32.717 32.713v-98.139Z" fill="#488E62"/><path fill-rule="evenodd" clip-rule="evenodd" d="m1.477 328.209 32.717-32.713h100.382l-32.717 32.713H1.477Z" fill="#7AC094"/><path d="m1.477 328.209 32.717-32.713h100.382M1.477 328.209v98.139h100.382M1.477 328.209H101.86m32.717-32.713v98.139l-32.717 32.713m32.717-130.852-32.717 32.713m0 98.139v-98.139" stroke="#fff" stroke-width="1.495" stroke-miterlimit="8"/></g></g></g></g><path fill-rule="evenodd" clip-rule="evenodd" d="M50.89 348.658c7.058 0 12.37 1.547 15.938 4.641 3.568 3.095 5.44 7.225 5.62 12.39l-11.354.499c-.486-2.89-1.528-4.967-3.127-6.233-1.598-1.266-3.995-1.899-7.192-1.899-3.299 0-5.881.678-7.748 2.033-1.202.869-1.803 2.033-1.803 3.49 0 1.33.563 2.468 1.688 3.414 1.431 1.202 4.91 2.456 10.433 3.759 5.524 1.305 9.609 2.654 12.256 4.047 2.646 1.394 4.718 3.299 6.214 5.716 1.496 2.416 2.243 5.402 2.243 8.956 0 3.223-.894 6.24-2.684 9.053-1.79 2.813-4.322 4.904-7.595 6.272-3.274 1.368-7.352 2.052-12.237 2.052-7.108 0-12.569-1.643-16.379-4.929-3.81-3.286-6.086-8.075-6.828-14.365l11.048-1.074c.665 3.707 2.014 6.431 4.046 8.17 2.034 1.739 4.776 2.608 8.228 2.608 3.657 0 6.413-.773 8.266-2.321 1.855-1.547 2.782-3.356 2.782-5.427 0-1.33-.39-2.462-1.17-3.395-.78-.933-2.142-1.745-4.086-2.436-1.33-.46-4.36-1.278-9.09-2.455-6.087-1.508-10.358-3.362-12.812-5.562-3.453-3.094-5.178-6.866-5.178-11.315 0-2.865.811-5.543 2.435-8.036 1.624-2.494 3.964-4.393 7.02-5.697 3.055-1.304 6.745-1.956 11.066-1.956Z" fill="#fff" stroke="#08060D" stroke-width="1.499" stroke-miterlimit="10" stroke-linejoin="round"/></g></g><g clip-path="url(#h)"><mask id="i" style="mask-type:luminance" maskUnits="userSpaceOnUse" x="0" y="196" width="136" height="134"><path d="M135.5 196.467H.5v132.536h135V196.467Z" fill="#fff"/></mask><g mask="url(#i)"><mask id="j" style="mask-type:luminance" maskUnits="userSpaceOnUse" x="0" y="196" width="136" height="134"><path d="M135.499 196.469H.553v132.536h134.946V196.469Z" fill="#fff"/></mask><g mask="url(#j)"><mask id="k" style="mask-type:luminance" maskUnits="userSpaceOnUse" x="0" y="196" width="136" height="134"><path d="M135.499 196.469H.553v132.536h134.946V196.469Z" fill="#fff"/></mask><g mask="url(#k)"><mask id="l" style="mask-type:luminance" maskUnits="userSpaceOnUse" x="0" y="196" width="136" height="134"><path d="M135.499 196.469H.553v132.536h134.946V196.469Z" fill="#fff"/></mask><g mask="url(#l)"><mask id="m" style="mask-type:luminance" maskUnits="userSpaceOnUse" x="0" y="196" width="136" height="134"><path d="M135.499 196.469H.553v132.536h134.946V196.469Z" fill="#fff"/></mask><g mask="url(#m)"><path d="M1.476 230.106h100.382v98.139H1.476v-98.139Z" fill="#0294F7"/><path fill-rule="evenodd" clip-rule="evenodd" d="m101.858 230.105 32.717-32.712v98.138l-32.717 32.713v-98.139Z" fill="#0277C7"/><path fill-rule="evenodd" clip-rule="evenodd" d="m1.476 230.105 32.717-32.712h100.382l-32.717 32.712H1.476Z" fill="#34A9F9"/><path d="m1.476 230.105 32.717-32.712h100.382M1.476 230.105v98.139h100.382M1.476 230.105h100.382m32.717-32.712v98.138l-32.717 32.713m32.717-130.851-32.717 32.712m0 98.139v-98.139" stroke="#fff" stroke-width="1.495" stroke-miterlimit="8"/></g></g></g></g><path fill-rule="evenodd" clip-rule="evenodd" d="M29.394 251.511H74.08v9.513H57.434v46.72H46.08v-46.72H29.394v-9.513Z" fill="#fff" stroke="#08060D" stroke-width="1.499" stroke-miterlimit="10" stroke-linejoin="round"/></g></g><g clip-path="url(#n)"><mask id="o" style="mask-type:luminance" maskUnits="userSpaceOnUse" x="0" y="98" width="136" height="133"><path d="M135.5 98.365H.5v132.537h135V98.365Z" fill="#fff"/></mask><g mask="url(#o)"><mask id="p" style="mask-type:luminance" maskUnits="userSpaceOnUse" x="0" y="98" width="136" height="133"><path d="M135.5 98.363H.553V230.9H135.5V98.363Z" fill="#fff"/></mask><g mask="url(#p)"><mask id="q" style="mask-type:luminance" maskUnits="userSpaceOnUse" x="0" y="98" width="136" height="133"><path d="M135.5 98.363H.553V230.9H135.5V98.363Z" fill="#fff"/></mask><g mask="url(#q)"><mask id="r" style="mask-type:luminance" maskUnits="userSpaceOnUse" x="0" y="98" width="136" height="133"><path d="M135.5 98.363H.553V230.9H135.5V98.363Z" fill="#fff"/></mask><g mask="url(#r)"><mask id="s" style="mask-type:luminance" maskUnits="userSpaceOnUse" x="0" y="98" width="136" height="133"><path d="M135.5 98.363H.553V230.9H135.5V98.363Z" fill="#fff"/></mask><g mask="url(#s)"><path d="M1.476 131.998h100.382v98.139H1.476v-98.139Z" fill="#DD5723"/><path fill-rule="evenodd" clip-rule="evenodd" d="m101.858 131.998 32.717-32.713v98.139l-32.717 32.713v-98.139Z" fill="#B2461C"/><path fill-rule="evenodd" clip-rule="evenodd" d="m1.476 131.998 32.717-32.713h100.382l-32.717 32.713H1.476Z" fill="#E4784E"/><path d="m1.476 131.998 32.717-32.713h100.382M1.476 131.998v98.139h100.382M1.476 131.998h100.382m32.717-32.713v98.139l-32.717 32.713m32.717-130.852-32.717 32.713m0 98.139v-98.139" stroke="#fff" stroke-width="1.495" stroke-miterlimit="8"/></g></g></g></g><path fill-rule="evenodd" clip-rule="evenodd" d="M33.498 153.408h38.55v9.512H44.852v13.311h23.475v9.512H44.852v23.898H33.498v-56.233Z" fill="#fff" stroke="#08060D" stroke-width="1.499" stroke-miterlimit="10" stroke-linejoin="round"/></g></g><g clip-path="url(#t)"><mask id="u" style="mask-type:luminance" maskUnits="userSpaceOnUse" x="0" y="0" width="136" height="133"><path d="M135.5.26H.5v132.537h135V.26Z" fill="#fff"/></mask><g mask="url(#u)"><mask id="v" style="mask-type:luminance" maskUnits="userSpaceOnUse" x="0" y="0" width="136" height="133"><path d="M135.499.257H.553v132.537h134.946V.257Z" fill="#fff"/></mask><g mask="url(#v)"><mask id="w" style="mask-type:luminance" maskUnits="userSpaceOnUse" x="0" y="0" width="136" height="133"><path d="M135.499.256H.553v132.537h134.946V.256Z" fill="#fff"/></mask><g mask="url(#w)"><mask id="x" style="mask-type:luminance" maskUnits="userSpaceOnUse" x="0" y="0" width="136" height="133"><path d="M135.5.252H.553V132.79H135.5V.252Z" fill="#fff"/></mask><g mask="url(#x)"><mask id="y" style="mask-type:luminance" maskUnits="userSpaceOnUse" x="0" y="0" width="136" height="133"><path d="M135.5.251H.553v132.537H135.5V.251Z" fill="#fff"/></mask><g mask="url(#y)"><path d="M1.477 33.89h100.381v98.138H1.477V33.889Z" fill="#6F5E4E"/><path fill-rule="evenodd" clip-rule="evenodd" d="m101.858 33.89 32.717-32.714v98.14l-32.717 32.712V33.889Z" fill="#594C3F"/><path fill-rule="evenodd" clip-rule="evenodd" d="M1.477 33.89 34.194 1.175h100.381L101.858 33.89H1.477Z" fill="#8B7E71"/><path d="M1.477 33.89 34.194 1.175h100.381M1.477 33.89v98.139h100.381M1.477 33.889h100.381m32.717-32.713v98.14l-32.717 32.712M134.575 1.176 101.858 33.89m0 98.139v-98.14" stroke="#fff" stroke-width="1.495" stroke-miterlimit="8"/></g></g></g></g><path fill-rule="evenodd" clip-rule="evenodd" d="M53.369 54.344c6.878 0 12.466 2.033 16.762 6.1 2.558 2.403 4.475 5.855 5.754 10.356l-11.24 2.685c-.664-2.915-2.051-5.217-4.161-6.904-2.11-1.688-4.673-2.532-7.691-2.532-4.168 0-7.55 1.496-10.146 4.488-2.595 2.991-3.893 7.838-3.893 14.537 0 7.11 1.279 12.173 3.836 15.19 2.557 3.018 5.881 4.527 9.973 4.527 3.017 0 5.613-.959 7.787-2.877 2.174-1.918 3.734-4.935 4.68-9.053l11.009 3.491c-1.688 6.137-4.495 10.696-8.42 13.675-3.926 2.979-8.906 4.468-14.941 4.468-7.467 0-13.604-2.55-18.412-7.652-4.807-5.102-7.211-12.077-7.211-20.925 0-9.36 2.416-16.628 7.25-21.806 4.833-5.179 11.187-7.768 19.064-7.768Z" fill="#fff" stroke="#08060D" stroke-width="1.499" stroke-miterlimit="10" stroke-linejoin="round"/></g></g></g><defs><clipPath id="a"><path fill="#fff" transform="translate(.5 .262)" d="M0 0h135v426.477H0z"/></clipPath><clipPath id="b"><path fill="#fff" transform="translate(.5 294.574)" d="M0 0h135v132.537H0z"/></clipPath><clipPath id="h"><path fill="#fff" transform="translate(.5 196.469)" d="M0 0h135v132.537H0z"/></clipPath><clipPath id="n"><path fill="#fff" transform="translate(.5 98.365)" d="M0 0h135v132.537H0z"/></clipPath><clipPath id="t"><path fill="#fff" transform="translate(.5 .261)" d="M0 0h135v132.537H0z"/></clipPath></defs></svg>