<svg width="757" height="620" viewBox="0 0 757 620" fill="none" xmlns="http://www.w3.org/2000/svg"><g clip-path="url(#a)"><path d="m207.374 315.607 9.818 174.299 64.574-58.824 89.556-263.386-163.948 147.911Z" fill="#412F6B"/><path d="m207.374 315.607 9.818 174.299 64.574-58.824 89.556-263.386-163.948 147.911Z" fill="#000" fill-opacity=".3"/><path d="M252.716 527.476 192.04 728.843 387.977 860.27l67.705-203.263-202.966-129.531Z" fill="#6F5E4E"/><path d="m207.374 315.607 9.818 174.299L16.676 367.318 0 194.51l207.374 121.097Z" fill="#412F6B"/><path d="m207.374 315.607 9.818 174.299L16.676 367.318 0 194.51l207.374 121.097Z" fill="#000" fill-opacity=".2"/><path d="m207.374 315.607 177.92-160.711L176.727 38.122 0 194.51l207.374 121.097Z" fill="#412F6B"/><path d="m207.374 315.607 177.92-160.711L176.727 38.122 0 194.51l207.374 121.097Z" fill="#fff" fill-opacity=".2"/><path d="m387.977 860.271 67.705-203.263 149.53-82.23-64.595 193.935-152.64 91.558Z" fill="#6F5E4E"/><path d="m387.977 860.271 67.705-203.263 149.53-82.23-64.595 193.935-152.64 91.558Z" fill="#000" fill-opacity=".2"/><path d="m534.142 421.455-78.46 235.55 149.53-82.229 74.712-224.284-145.782 70.963Z" fill="#BD2264"/><path d="m534.142 421.455-78.46 235.55 149.53-82.229 74.712-224.284-145.782 70.963Z" fill="#000" fill-opacity=".2"/><path d="m614.775 179.646-80.632 241.812 145.781-70.964L757 119.587l-142.225 60.059Z" fill="#5AB17A"/><path d="m614.775 179.646-80.632 241.812 145.781-70.964L757 119.587l-142.225 60.059Z" fill="#000" fill-opacity=".2"/><path d="m394.771 56.098 220.004 123.546L757 119.585 553.033 0 394.771 56.098Z" fill="#5AB17A"/><path d="m394.771 56.098 220.004 123.546L757 119.585 553.033 0 394.771 56.098Z" fill="#fff" fill-opacity=".2"/><path d="M394.771 56.098 322.253 296.74l211.889 124.718 80.633-241.812L394.771 56.098Z" fill="#5AB17A"/><path d="m322.253 296.739-69.537 230.737 202.966 129.531 78.46-235.55-211.889-124.718Z" fill="#BD2264"/></g><defs><clipPath id="a"><path fill="#fff" d="M0 0h757v620H0z"/></clipPath></defs></svg>