<svg width="320" height="1011" viewBox="0 0 320 1011" fill="none" xmlns="http://www.w3.org/2000/svg"><g clip-path="url(#a)"><mask id="b" style="mask-type:luminance" maskUnits="userSpaceOnUse" x="0" y="0" width="320" height="1011"><path d="M320 0H0v1010.91h320V0Z" fill="#fff"/></mask><g mask="url(#b)"><mask id="c" style="mask-type:luminance" maskUnits="userSpaceOnUse" x="0" y="697" width="320" height="315"><path d="M320 697.626H0v314.164h320V697.626Z" fill="#fff"/></mask><g mask="url(#c)"><mask id="d" style="mask-type:luminance" maskUnits="userSpaceOnUse" x="0" y="697" width="320" height="315"><path d="M320 697.626H0v314.164h320V697.626Z" fill="#fff"/></mask><g mask="url(#d)"><mask id="e" style="mask-type:luminance" maskUnits="userSpaceOnUse" x="0" y="697" width="320" height="315"><path d="M320 697.626H.127v314.164H320V697.626Z" fill="#fff"/></mask><g mask="url(#e)"><mask id="f" style="mask-type:luminance" maskUnits="userSpaceOnUse" x="0" y="697" width="320" height="315"><path d="M320 697.626H.127v314.164H320V697.626Z" fill="#fff"/></mask><g mask="url(#f)"><mask id="g" style="mask-type:luminance" maskUnits="userSpaceOnUse" x="0" y="697" width="320" height="315"><path d="M320 697.626H.127v314.164H320V697.626Z" fill="#fff"/></mask><g mask="url(#g)"><mask id="h" style="mask-type:luminance" maskUnits="userSpaceOnUse" x="0" y="697" width="320" height="315"><path d="M320 697.626H.127v314.164H320V697.626Z" fill="#fff"/></mask><g mask="url(#h)"><path d="M317.811 777.362H79.869v232.628H317.81V777.362Z" fill="#DD5723"/><path fill-rule="evenodd" clip-rule="evenodd" d="M79.868 777.362 2.316 699.82v232.626l77.552 77.544V777.362Z" fill="#B2461C"/><path fill-rule="evenodd" clip-rule="evenodd" d="m317.811 777.362-77.553-77.542H2.316l77.552 77.542h237.943Z" fill="#E4784E"/><path d="m317.811 777.362-77.553-77.542H2.316m315.495 77.542v232.628H79.869M317.81 777.362H79.869M2.315 699.82v232.626l77.552 77.544M2.316 699.82l77.552 77.542m0 232.628V777.362" stroke="#fff" stroke-width="1.462" stroke-miterlimit="8"/></g></g></g></g><path fill-rule="evenodd" clip-rule="evenodd" d="M155.923 828.102h91.379v22.547h-64.466v31.552h55.646v22.548h-55.646v56.645h-26.913V828.102Z" fill="#fff" stroke="#08060D" stroke-width="1.466" stroke-miterlimit="10" stroke-linejoin="round"/></g></g><mask id="i" style="mask-type:luminance" maskUnits="userSpaceOnUse" x="0" y="465" width="320" height="315"><path d="M320 465.086H0v314.16h320v-314.16Z" fill="#fff"/></mask><g mask="url(#i)"><mask id="j" style="mask-type:luminance" maskUnits="userSpaceOnUse" x="0" y="465" width="320" height="315"><path d="M320 465.088H0v314.16h320v-314.16Z" fill="#fff"/></mask><g mask="url(#j)"><mask id="k" style="mask-type:luminance" maskUnits="userSpaceOnUse" x="0" y="465" width="320" height="315"><path d="M320 465.088H.127v314.16H320v-314.16Z" fill="#fff"/></mask><g mask="url(#k)"><mask id="l" style="mask-type:luminance" maskUnits="userSpaceOnUse" x="0" y="465" width="320" height="315"><path d="M320 465.088H.127v314.16H320v-314.16Z" fill="#fff"/></mask><g mask="url(#l)"><mask id="m" style="mask-type:luminance" maskUnits="userSpaceOnUse" x="0" y="465" width="320" height="315"><path d="M320 465.088H.127v314.16H320v-314.16Z" fill="#fff"/></mask><g mask="url(#m)"><mask id="n" style="mask-type:luminance" maskUnits="userSpaceOnUse" x="0" y="465" width="320" height="315"><path d="M320 465.088H.127v314.16H320v-314.16Z" fill="#fff"/></mask><g mask="url(#n)"><path d="M317.811 544.819H79.869v232.626H317.81V544.819Z" fill="#6F5E4E"/><path fill-rule="evenodd" clip-rule="evenodd" d="M79.868 544.819 2.316 467.277v232.626l77.552 77.542V544.819Z" fill="#594C3F"/><path fill-rule="evenodd" clip-rule="evenodd" d="m317.811 544.819-77.553-77.542H2.316l77.552 77.542h237.943Z" fill="#8B7E71"/><path d="m317.811 544.819-77.553-77.542H2.316m315.495 77.542v232.626H79.869M317.81 544.819H79.869M2.315 467.277v232.626l77.552 77.542M2.316 467.277l77.552 77.542m0 232.626V544.819" stroke="#fff" stroke-width="1.462" stroke-miterlimit="8"/></g></g></g></g><path fill-rule="evenodd" clip-rule="evenodd" d="M203.024 593.287c16.306 0 29.551 4.82 39.732 14.458 6.063 5.697 10.609 13.882 13.639 24.548l-26.64 6.366c-1.575-6.909-4.864-12.366-9.865-16.366-5-4.002-11.077-6.002-18.23-6.002-9.881 0-17.897 3.546-24.049 10.637-6.153 7.094-9.229 18.58-9.229 34.461 0 16.853 3.031 28.853 9.093 36.007 6.061 7.152 13.941 10.73 23.64 10.73 7.153 0 13.306-2.274 18.458-6.822 5.152-4.545 8.85-11.697 11.092-21.457l26.096 8.274c-4.002 14.548-10.654 25.353-19.958 32.415-9.306 7.061-21.111 10.591-35.416 10.591-17.7 0-32.248-6.046-43.642-18.138-11.396-12.092-17.095-28.626-17.095-49.6 0-22.184 5.729-39.413 17.185-51.69 11.457-12.274 26.52-18.412 45.189-18.412Z" fill="#fff" stroke="#08060D" stroke-width="1.466" stroke-miterlimit="10" stroke-linejoin="round"/></g></g><mask id="o" style="mask-type:luminance" maskUnits="userSpaceOnUse" x="0" y="232" width="320" height="315"><path d="M320 232.542H0v314.16h320v-314.16Z" fill="#fff"/></mask><g mask="url(#o)"><mask id="p" style="mask-type:luminance" maskUnits="userSpaceOnUse" x="0" y="232" width="320" height="315"><path d="M320 232.542H0v314.161h320V232.542Z" fill="#fff"/></mask><g mask="url(#p)"><mask id="q" style="mask-type:luminance" maskUnits="userSpaceOnUse" x="0" y="232" width="320" height="315"><path d="M320 232.542H.127v314.161H320V232.542Z" fill="#fff"/></mask><g mask="url(#q)"><mask id="r" style="mask-type:luminance" maskUnits="userSpaceOnUse" x="0" y="232" width="320" height="315"><path d="M320 232.542H.127v314.161H320V232.542Z" fill="#fff"/></mask><g mask="url(#r)"><mask id="s" style="mask-type:luminance" maskUnits="userSpaceOnUse" x="0" y="232" width="320" height="315"><path d="M320 232.542H.127v314.161H320V232.542Z" fill="#fff"/></mask><g mask="url(#s)"><mask id="t" style="mask-type:luminance" maskUnits="userSpaceOnUse" x="0" y="232" width="320" height="315"><path d="M320 232.542H.127v314.161H320V232.542Z" fill="#fff"/></mask><g mask="url(#t)"><path d="M317.811 312.271H79.869v232.626h237.942V312.271Z" fill="#E1A932"/><path fill-rule="evenodd" clip-rule="evenodd" d="M79.87 312.274 2.316 234.732v232.626l77.552 77.541V312.274Z" fill="#B58828"/><path fill-rule="evenodd" clip-rule="evenodd" d="m317.811 312.274-77.553-77.542H2.318l77.551 77.542h237.942Z" fill="#E7BA5A"/><path d="m317.811 312.274-77.553-77.542H2.318m315.493 77.542v232.625H79.869m237.942-232.625H79.869M2.317 234.732v232.626l77.552 77.541M2.317 234.732l77.552 77.542m0 232.625V312.274" stroke="#fff" stroke-width="1.462" stroke-miterlimit="8"/></g></g></g></g><path fill-rule="evenodd" clip-rule="evenodd" d="M203.024 360.744c16.306 0 29.551 4.817 39.732 14.456 6.063 5.697 10.609 13.881 13.639 24.548l-26.64 6.366c-1.575-6.909-4.864-12.366-9.865-16.366-5-4-11.077-6.003-18.23-6.003-9.881 0-17.897 3.547-24.049 10.64-6.153 7.091-9.229 18.58-9.229 34.459 0 16.853 3.031 28.853 9.093 36.007 6.061 7.151 13.941 10.729 23.64 10.729 7.153 0 13.306-2.273 18.458-6.819 5.152-4.545 8.85-11.699 11.092-21.459l26.096 8.274c-4.002 14.548-10.654 25.352-19.958 32.414-9.306 7.062-21.111 10.594-35.416 10.594-17.7 0-32.248-6.046-43.642-18.14-11.396-12.093-17.095-28.626-17.095-49.598 0-22.187 5.729-39.416 17.185-51.692 11.457-12.274 26.52-18.41 45.189-18.41Z" fill="#fff" stroke="#08060D" stroke-width="1.466" stroke-miterlimit="10" stroke-linejoin="round"/></g></g><mask id="u" style="mask-type:luminance" maskUnits="userSpaceOnUse" x="0" y="0" width="320" height="315"><path d="M320 0H0v314.16h320V0Z" fill="#fff"/></mask><g mask="url(#u)"><mask id="v" style="mask-type:luminance" maskUnits="userSpaceOnUse" x="0" y="0" width="320" height="315"><path d="M320 0H0v314.16h320V0Z" fill="#fff"/></mask><g mask="url(#v)"><mask id="w" style="mask-type:luminance" maskUnits="userSpaceOnUse" x="0" y="0" width="320" height="315"><path d="M320 0H.127v314.16H320V0Z" fill="#fff"/></mask><g mask="url(#w)"><mask id="x" style="mask-type:luminance" maskUnits="userSpaceOnUse" x="0" y="0" width="320" height="315"><path d="M320 0H.127v314.16H320V0Z" fill="#fff"/></mask><g mask="url(#x)"><mask id="y" style="mask-type:luminance" maskUnits="userSpaceOnUse" x="0" y="0" width="320" height="315"><path d="M320 0H.127v314.16H320V0Z" fill="#fff"/></mask><g mask="url(#y)"><mask id="z" style="mask-type:luminance" maskUnits="userSpaceOnUse" x="0" y="0" width="320" height="315"><path d="M320 0H.127v314.16H320V0Z" fill="#fff"/></mask><g mask="url(#z)"><path d="M317.811 79.735H79.869v232.624H317.81V79.735Z" fill="#BD2264"/><path fill-rule="evenodd" clip-rule="evenodd" d="M79.868 79.734 2.316 2.192v232.626l77.552 77.541V79.734Z" fill="#981B50"/><path fill-rule="evenodd" clip-rule="evenodd" d="M317.811 79.734 240.258 2.192H2.316l77.552 77.542h237.943Z" fill="#CA4D82"/><path d="M317.811 79.734 240.258 2.192H2.316m315.495 77.542v232.625H79.869M317.81 79.734H79.869M2.315 2.192v232.626l77.552 77.541M2.316 2.192l77.552 77.542m0 232.625V79.734" stroke="#fff" stroke-width="1.462" stroke-miterlimit="8"/></g></g></g></g><path fill-rule="evenodd" clip-rule="evenodd" d="m197.66 161.569-18.003 49.463h36.369l-18.366-49.463Zm-13.912-31.095h28.46l53.373 133.293h-29.279l-11.638-30.278h-53.282l-11.001 30.278h-28.55l51.917-133.293Z" fill="#fff" stroke="#08060D" stroke-width="1.466" stroke-miterlimit="10" stroke-linejoin="round"/></g></g></g></g><defs><clipPath id="a"><path fill="#fff" d="M0 0h320v1010.91H0z"/></clipPath></defs></svg>