<svg width="320" height="778" viewBox="0 0 320 778" fill="none" xmlns="http://www.w3.org/2000/svg"><mask id="a" style="mask-type:luminance" maskUnits="userSpaceOnUse" x="0" y="463" width="319" height="314"><path d="M318.184 463.775H0v312.379h318.184V463.775Z" fill="#fff"/></mask><g mask="url(#a)"><mask id="b" style="mask-type:luminance" maskUnits="userSpaceOnUse" x="0" y="463" width="319" height="314"><path d="M318.184 463.784H0v312.379h318.184V463.784Z" fill="#fff"/></mask><g mask="url(#b)"><mask id="c" style="mask-type:luminance" maskUnits="userSpaceOnUse" x="0" y="463" width="319" height="314"><path d="M318.184 463.792H.127v312.379h318.057V463.792Z" fill="#fff"/></mask><g mask="url(#c)"><mask id="d" style="mask-type:luminance" maskUnits="userSpaceOnUse" x="0" y="463" width="319" height="314"><path d="M318.187 463.801H.128v312.377h318.059V463.801Z" fill="#fff"/></mask><g mask="url(#d)"><mask id="e" style="mask-type:luminance" maskUnits="userSpaceOnUse" x="0" y="463" width="319" height="314"><path d="M318.187 463.806H.128v312.377h318.059V463.806Z" fill="#fff"/></mask><g mask="url(#e)"><mask id="f" style="mask-type:luminance" maskUnits="userSpaceOnUse" x="0" y="463" width="319" height="314"><path d="M318.187 463.813H.128V776.19h318.059V463.813Z" fill="#fff"/></mask><g mask="url(#f)"><path d="M316.008 543.088H79.418v231.305h236.59V543.088Z" fill="#C11E22"/><path fill-rule="evenodd" clip-rule="evenodd" d="M79.418 543.088 2.306 465.984V697.29l77.112 77.101V543.088Z" fill="#9B181B"/><path fill-rule="evenodd" clip-rule="evenodd" d="m316.008 543.088-77.113-77.104H2.305l77.112 77.104h236.591Z" fill="#CD4A4D"/><path d="m316.008 543.088-77.113-77.104H2.305m313.703 77.104v231.303H79.417m236.591-231.303H79.417M2.305 465.984V697.29l77.112 77.101M2.305 465.984l77.112 77.104m0 231.303V543.088" stroke="#fff" stroke-width="1.487" stroke-miterlimit="8"/></g></g></g></g><path fill-rule="evenodd" clip-rule="evenodd" d="M201.872 591.258c16.213 0 29.382 4.791 39.508 14.374 6.027 5.665 10.548 13.803 13.56 24.41l-26.489 6.329c-1.566-6.869-4.836-12.295-9.809-16.272-4.972-3.98-11.015-5.969-18.127-5.969-9.824 0-17.795 3.527-23.912 10.579-6.118 7.052-9.177 18.475-9.177 34.264 0 16.756 3.014 28.691 9.042 35.802 6.026 7.111 13.862 10.669 23.505 10.669 7.113 0 13.23-2.262 18.353-6.782 5.123-4.52 8.8-11.631 11.03-21.336l25.947 8.228c-3.977 14.464-10.593 25.209-19.845 32.23-9.252 7.021-20.99 10.531-35.214 10.531-17.6 0-32.065-6.011-43.395-18.036-11.332-12.022-16.997-28.463-16.997-49.318 0-22.058 5.696-39.191 17.087-51.396 11.392-12.205 26.369-18.307 44.933-18.307Z" fill="#fff" stroke="#08060D" stroke-width="1.491" stroke-miterlimit="10" stroke-linejoin="round"/></g></g><mask id="g" style="mask-type:luminance" maskUnits="userSpaceOnUse" x="0" y="232" width="319" height="313"><path d="M318.184 232.552H0v312.38h318.184v-312.38Z" fill="#fff"/></mask><g mask="url(#g)"><mask id="h" style="mask-type:luminance" maskUnits="userSpaceOnUse" x="0" y="232" width="319" height="313"><path d="M318.184 232.555H0v312.377h318.184V232.555Z" fill="#fff"/></mask><g mask="url(#h)"><mask id="i" style="mask-type:luminance" maskUnits="userSpaceOnUse" x="0" y="232" width="319" height="313"><path d="M318.184 232.556H.126v312.378h318.058V232.556Z" fill="#fff"/></mask><g mask="url(#i)"><mask id="j" style="mask-type:luminance" maskUnits="userSpaceOnUse" x="0" y="232" width="319" height="313"><path d="M318.184 232.559H.126v312.378h318.058V232.559Z" fill="#fff"/></mask><g mask="url(#j)"><mask id="k" style="mask-type:luminance" maskUnits="userSpaceOnUse" x="0" y="232" width="319" height="313"><path d="M318.182 232.559H.124v312.378h318.058V232.559Z" fill="#fff"/></mask><g mask="url(#k)"><mask id="l" style="mask-type:luminance" maskUnits="userSpaceOnUse" x="0" y="232" width="319" height="313"><path d="M318.18 232.556H.123v312.378H318.18V232.556Z" fill="#fff"/></mask><g mask="url(#l)"><path d="M316.004 311.834H79.412v231.305h236.592V311.834Z" fill="#0294F7"/><path fill-rule="evenodd" clip-rule="evenodd" d="M79.412 311.832 2.3 234.731v231.305l77.112 77.101V311.832Z" fill="#0277C7"/><path fill-rule="evenodd" clip-rule="evenodd" d="m316.001 311.832-77.11-77.101H2.299l77.112 77.101h236.59Z" fill="#34A9F9"/><path d="m316.001 311.832-77.11-77.101H2.299m313.702 77.101v231.305H79.411m236.59-231.305H79.411M2.3 234.731v231.305l77.112 77.101M2.3 234.731l77.112 77.101m0 231.305V311.832" stroke="#fff" stroke-width="1.487" stroke-miterlimit="8"/></g></g></g></g><path fill-rule="evenodd" clip-rule="evenodd" d="M145.364 362.29h105.324v22.421h-39.237v110.116H184.69V384.711h-39.326V362.29Z" fill="#fff" stroke="#08060D" stroke-width="1.491" stroke-miterlimit="10" stroke-linejoin="round"/></g></g><mask id="m" style="mask-type:luminance" maskUnits="userSpaceOnUse" x="0" y="1" width="319" height="313"><path d="M318.184 1.329H0v312.379h318.184V1.328Z" fill="#fff"/></mask><g mask="url(#m)"><mask id="n" style="mask-type:luminance" maskUnits="userSpaceOnUse" x="0" y="1" width="319" height="313"><path d="M318.184 1.324H0v312.378h318.184V1.324Z" fill="#fff"/></mask><g mask="url(#n)"><mask id="o" style="mask-type:luminance" maskUnits="userSpaceOnUse" x="0" y="1" width="319" height="313"><path d="M318.182 1.32H.125v312.378h318.057V1.32Z" fill="#fff"/></mask><g mask="url(#o)"><mask id="p" style="mask-type:luminance" maskUnits="userSpaceOnUse" x="0" y="1" width="319" height="313"><path d="M318.182 1.315H.124v312.378h318.058V1.315Z" fill="#fff"/></mask><g mask="url(#p)"><mask id="q" style="mask-type:luminance" maskUnits="userSpaceOnUse" x="0" y="1" width="319" height="313"><path d="M318.179 1.311H.123v312.378h318.056V1.311Z" fill="#fff"/></mask><g mask="url(#q)"><mask id="r" style="mask-type:luminance" maskUnits="userSpaceOnUse" x="0" y="1" width="319" height="313"><path d="M318.179 1.307H.121v312.377H318.18V1.307Z" fill="#fff"/></mask><g mask="url(#r)"><path d="M316.001 80.586H79.411V311.89H316V80.586Z" fill="#6F5E4E"/><path fill-rule="evenodd" clip-rule="evenodd" d="M79.41 80.589 2.3 3.487v231.305l77.112 77.103V80.589Z" fill="#594C3F"/><path fill-rule="evenodd" clip-rule="evenodd" d="M316.001 80.589 238.888 3.487H2.298L79.41 80.59H316Z" fill="#8B7E71"/><path d="M316.001 80.589 238.888 3.487H2.298M316 80.59v231.306H79.41M316 80.589H79.41M2.298 3.487v231.305l77.112 77.103M2.298 3.487 79.41 80.59m0 231.306V80.589" stroke="#fff" stroke-width="1.487" stroke-miterlimit="8"/></g></g></g></g><path fill-rule="evenodd" clip-rule="evenodd" d="M201.872 128.794c16.213 0 29.382 4.791 39.508 14.375 6.027 5.665 10.548 13.802 13.56 24.409l-26.489 6.33c-1.566-6.871-4.836-12.296-9.809-16.274-4.972-3.978-11.015-5.967-18.127-5.967-9.824 0-17.795 3.526-23.912 10.578-6.118 7.051-9.177 18.474-9.177 34.264 0 16.756 3.014 28.69 9.042 35.802 6.026 7.111 13.862 10.669 23.505 10.669 7.113 0 13.23-2.261 18.353-6.782 5.123-4.52 8.8-11.632 11.03-21.336l25.947 8.228c-3.977 14.464-10.593 25.209-19.845 32.23-9.252 7.021-20.99 10.532-35.214 10.532-17.6 0-32.065-6.012-43.395-18.037-11.332-12.023-16.997-28.462-16.997-49.317 0-22.059 5.696-39.192 17.087-51.396 11.392-12.205 26.369-18.308 44.933-18.308Z" fill="#fff" stroke="#08060D" stroke-width="1.491" stroke-miterlimit="10" stroke-linejoin="round"/></g></g></svg>