<svg width="132" height="417" viewBox="0 0 132 417" fill="none" xmlns="http://www.w3.org/2000/svg"><g clip-path="url(#a)"><g clip-path="url(#b)"><mask id="c" style="mask-type:luminance" maskUnits="userSpaceOnUse" x="0" y="287" width="132" height="131"><path d="M132 287.771H0v129.592h132V287.771Z" fill="#fff"/></mask><g mask="url(#c)"><mask id="d" style="mask-type:luminance" maskUnits="userSpaceOnUse" x="0" y="287" width="132" height="131"><path d="M132 287.771H.052v129.592H132V287.771Z" fill="#fff"/></mask><g mask="url(#d)"><mask id="e" style="mask-type:luminance" maskUnits="userSpaceOnUse" x="0" y="287" width="132" height="131"><path d="M132 287.771H.052v129.592H132V287.771Z" fill="#fff"/></mask><g mask="url(#e)"><mask id="f" style="mask-type:luminance" maskUnits="userSpaceOnUse" x="0" y="287" width="132" height="131"><path d="M132 287.771H.052v129.592H132V287.771Z" fill="#fff"/></mask><g mask="url(#f)"><mask id="g" style="mask-type:luminance" maskUnits="userSpaceOnUse" x="0" y="287" width="132" height="131"><path d="M132 287.771H.052v129.592H132V287.771Z" fill="#fff"/></mask><g mask="url(#g)"><path d="M131.097 320.662H32.946v95.958h98.151v-95.958Z" fill="#DD5723"/><path fill-rule="evenodd" clip-rule="evenodd" d="M32.946 320.662.956 288.676v95.958l31.99 31.985v-95.957Z" fill="#B2461C"/><path fill-rule="evenodd" clip-rule="evenodd" d="m131.097 320.662-31.99-31.986H.955l31.99 31.986h98.151Z" fill="#E4784E"/><path d="m131.097 320.662-31.99-31.986H.955m130.141 31.986v95.957h-98.15m98.151-95.957H32.946M.956 288.676v95.958l31.99 31.985M.956 288.676l31.99 31.986m0 95.957v-95.957" stroke="#fff" stroke-width="1.462" stroke-miterlimit="8"/></g></g></g></g><path fill-rule="evenodd" clip-rule="evenodd" d="M64.318 341.592h37.694v9.301H75.42v13.015h22.954v9.301H75.42v23.366H64.318v-54.983Z" fill="#fff" stroke="#08060D" stroke-width="1.466" stroke-miterlimit="10" stroke-linejoin="round"/></g></g><g clip-path="url(#h)"><mask id="i" style="mask-type:luminance" maskUnits="userSpaceOnUse" x="0" y="191" width="132" height="131"><path d="M132 191.849H0V321.44h132V191.849Z" fill="#fff"/></mask><g mask="url(#i)"><mask id="j" style="mask-type:luminance" maskUnits="userSpaceOnUse" x="0" y="191" width="132" height="131"><path d="M132 191.849H.052V321.44H132V191.849Z" fill="#fff"/></mask><g mask="url(#j)"><mask id="k" style="mask-type:luminance" maskUnits="userSpaceOnUse" x="0" y="191" width="132" height="131"><path d="M132 191.849H.052V321.44H132V191.849Z" fill="#fff"/></mask><g mask="url(#k)"><mask id="l" style="mask-type:luminance" maskUnits="userSpaceOnUse" x="0" y="191" width="132" height="131"><path d="M132 191.849H.052V321.44H132V191.849Z" fill="#fff"/></mask><g mask="url(#l)"><mask id="m" style="mask-type:luminance" maskUnits="userSpaceOnUse" x="0" y="191" width="132" height="131"><path d="M132 191.849H.052V321.44H132V191.849Z" fill="#fff"/></mask><g mask="url(#m)"><path d="M131.097 224.738H32.946v95.958h98.151v-95.958Z" fill="#6F5E4E"/><path fill-rule="evenodd" clip-rule="evenodd" d="M32.946 224.738.956 192.752v95.958l31.99 31.986v-95.958Z" fill="#594C3F"/><path fill-rule="evenodd" clip-rule="evenodd" d="m131.097 224.738-31.99-31.986H.955l31.99 31.986h98.151Z" fill="#8B7E71"/><path d="m131.097 224.738-31.99-31.986H.955m130.141 31.986v95.958h-98.15m98.151-95.958H32.946M.956 192.752v95.958l31.99 31.986M.956 192.752l31.99 31.986m0 95.958v-95.958" stroke="#fff" stroke-width="1.462" stroke-miterlimit="8"/></g></g></g></g><path fill-rule="evenodd" clip-rule="evenodd" d="M83.748 244.731c6.726 0 12.189 1.988 16.389 5.964 2.501 2.35 4.376 5.726 5.626 10.126l-10.989 2.626c-.65-2.85-2.006-5.101-4.07-6.751-2.062-1.651-4.569-2.476-7.52-2.476-4.075 0-7.382 1.463-9.92 4.388-2.537 2.926-3.807 7.664-3.807 14.215 0 6.952 1.25 11.902 3.752 14.853 2.5 2.95 5.75 4.426 9.751 4.426 2.95 0 5.489-.938 7.614-2.814 2.125-1.875 3.65-4.825 4.576-8.851l10.764 3.413c-1.651 6.001-4.395 10.458-8.233 13.371-3.838 2.913-8.708 4.369-14.609 4.369-7.301 0-13.302-2.494-18.002-7.482-4.701-4.988-7.052-11.808-7.052-20.46 0-9.151 2.363-16.258 7.089-21.322 4.726-5.063 10.94-7.595 18.64-7.595Z" fill="#fff" stroke="#08060D" stroke-width="1.466" stroke-miterlimit="10" stroke-linejoin="round"/></g></g><g clip-path="url(#n)"><mask id="o" style="mask-type:luminance" maskUnits="userSpaceOnUse" x="0" y="95" width="132" height="131"><path d="M132 95.924H0v129.591h132V95.924Z" fill="#fff"/></mask><g mask="url(#o)"><mask id="p" style="mask-type:luminance" maskUnits="userSpaceOnUse" x="0" y="95" width="132" height="131"><path d="M132 95.924H.052v129.591H132V95.924Z" fill="#fff"/></mask><g mask="url(#p)"><mask id="q" style="mask-type:luminance" maskUnits="userSpaceOnUse" x="0" y="95" width="132" height="131"><path d="M132 95.924H.052v129.591H132V95.924Z" fill="#fff"/></mask><g mask="url(#q)"><mask id="r" style="mask-type:luminance" maskUnits="userSpaceOnUse" x="0" y="95" width="132" height="131"><path d="M132 95.924H.052v129.591H132V95.924Z" fill="#fff"/></mask><g mask="url(#r)"><mask id="s" style="mask-type:luminance" maskUnits="userSpaceOnUse" x="0" y="95" width="132" height="131"><path d="M132 95.924H.052v129.591H132V95.924Z" fill="#fff"/></mask><g mask="url(#s)"><path d="M131.097 128.812h-98.15v95.958h98.15v-95.958Z" fill="#E1A932"/><path fill-rule="evenodd" clip-rule="evenodd" d="M32.946 128.813.956 96.827v95.958l31.99 31.986v-95.958Z" fill="#B58828"/><path fill-rule="evenodd" clip-rule="evenodd" d="m131.097 128.813-31.99-31.986H.956l31.99 31.986h98.151Z" fill="#E7BA5A"/><path d="m131.097 128.813-31.99-31.986H.956m130.141 31.986v95.958h-98.15m98.15-95.958h-98.15M.955 96.827v95.958l31.99 31.986M.956 96.827l31.99 31.986m0 95.958v-95.958" stroke="#fff" stroke-width="1.462" stroke-miterlimit="8"/></g></g></g></g><path fill-rule="evenodd" clip-rule="evenodd" d="M83.748 148.807c6.726 0 12.189 1.987 16.389 5.963 2.501 2.35 4.376 5.726 5.626 10.126l-10.989 2.626c-.65-2.85-2.006-5.101-4.07-6.751-2.062-1.65-4.569-2.476-7.52-2.476-4.075 0-7.382 1.463-9.92 4.389-2.537 2.925-3.807 7.664-3.807 14.214 0 6.952 1.25 11.902 3.752 14.853 2.5 2.95 5.75 4.426 9.751 4.426 2.95 0 5.489-.938 7.614-2.813 2.125-1.875 3.65-4.826 4.576-8.852l10.764 3.413c-1.651 6.001-4.395 10.458-8.233 13.371-3.838 2.913-8.708 4.37-14.609 4.37-7.301 0-13.302-2.494-18.002-7.483-4.701-4.988-7.052-11.808-7.052-20.459 0-9.152 2.363-16.259 7.089-21.323 4.726-5.063 10.94-7.594 18.64-7.594Z" fill="#fff" stroke="#08060D" stroke-width="1.466" stroke-miterlimit="10" stroke-linejoin="round"/></g></g><g clip-path="url(#t)"><mask id="u" style="mask-type:luminance" maskUnits="userSpaceOnUse" x="0" y="0" width="132" height="130"><path d="M132 0H0v129.591h132V0Z" fill="#fff"/></mask><g mask="url(#u)"><mask id="v" style="mask-type:luminance" maskUnits="userSpaceOnUse" x="0" y="0" width="132" height="130"><path d="M132 0H.052v129.591H132V0Z" fill="#fff"/></mask><g mask="url(#v)"><mask id="w" style="mask-type:luminance" maskUnits="userSpaceOnUse" x="0" y="0" width="132" height="130"><path d="M132 0H.052v129.591H132V0Z" fill="#fff"/></mask><g mask="url(#w)"><mask id="x" style="mask-type:luminance" maskUnits="userSpaceOnUse" x="0" y="0" width="132" height="130"><path d="M132 0H.052v129.591H132V0Z" fill="#fff"/></mask><g mask="url(#x)"><mask id="y" style="mask-type:luminance" maskUnits="userSpaceOnUse" x="0" y="0" width="132" height="130"><path d="M132 0H.052v129.591H132V0Z" fill="#fff"/></mask><g mask="url(#y)"><path d="M131.097 32.89H32.946v95.958h98.151V32.891Z" fill="#BD2264"/><path fill-rule="evenodd" clip-rule="evenodd" d="M32.946 32.89.956.904v95.958l31.99 31.986V32.89Z" fill="#981B50"/><path fill-rule="evenodd" clip-rule="evenodd" d="M131.097 32.89 99.107.904H.955l31.99 31.986h98.151Z" fill="#CA4D82"/><path d="M131.097 32.89 99.107.904H.955M131.097 32.89v95.958H32.946m98.151-95.958H32.946M.956.904v95.958l31.99 31.986M.956.904l31.99 31.986m0 95.958V32.89" stroke="#fff" stroke-width="1.462" stroke-miterlimit="8"/></g></g></g></g><path fill-rule="evenodd" clip-rule="evenodd" d="m81.535 66.647-7.427 20.404h15.003l-7.576-20.404ZM75.796 53.82h11.74l22.016 54.984H97.475l-4.801-12.49H70.695l-4.538 12.49H54.38L75.796 53.82Z" fill="#fff" stroke="#08060D" stroke-width="1.466" stroke-miterlimit="10" stroke-linejoin="round"/></g></g></g><defs><clipPath id="a"><path fill="#fff" d="M0 0h132v417H0z"/></clipPath><clipPath id="b"><path fill="#fff" transform="translate(0 287.771)" d="M0 0h132v129.591H0z"/></clipPath><clipPath id="h"><path fill="#fff" transform="translate(0 191.848)" d="M0 0h132v129.591H0z"/></clipPath><clipPath id="n"><path fill="#fff" transform="translate(0 95.924)" d="M0 0h132v129.591H0z"/></clipPath><clipPath id="t"><path fill="#fff" d="M0 0h132v129.591H0z"/></clipPath></defs></svg>