<svg width="320" height="1005" viewBox="0 0 320 1005" fill="none" xmlns="http://www.w3.org/2000/svg"><mask id="a" style="mask-type:luminance" maskUnits="userSpaceOnUse" x="1" y="0" width="318" height="1005"><path d="M318.824.616H1.177V1004.09h317.647V.616Z" fill="#fff"/></mask><g mask="url(#a)"><mask id="b" style="mask-type:luminance" maskUnits="userSpaceOnUse" x="1" y="693" width="318" height="312"><path d="M318.824 693.115H1.177v311.855h317.647V693.115Z" fill="#fff"/></mask><g mask="url(#b)"><mask id="c" style="mask-type:luminance" maskUnits="userSpaceOnUse" x="1" y="693" width="318" height="312"><path d="M318.824 693.106H1.177v311.854h317.647V693.106Z" fill="#fff"/></mask><g mask="url(#c)"><mask id="d" style="mask-type:luminance" maskUnits="userSpaceOnUse" x="1" y="693" width="318" height="312"><path d="M318.821 693.115H1.301v311.855h317.52V693.115Z" fill="#fff"/></mask><g mask="url(#d)"><mask id="e" style="mask-type:luminance" maskUnits="userSpaceOnUse" x="1" y="693" width="318" height="312"><path d="M318.823 693.106H1.303v311.854h317.52V693.106Z" fill="#fff"/></mask><g mask="url(#e)"><mask id="f" style="mask-type:luminance" maskUnits="userSpaceOnUse" x="1" y="693" width="318" height="312"><path d="M318.823 693.115H1.302v311.855h317.521V693.115Z" fill="#fff"/></mask><g mask="url(#f)"><mask id="g" style="mask-type:luminance" maskUnits="userSpaceOnUse" x="1" y="693" width="318" height="312"><path d="M318.826 693.106H1.304v311.854h317.522V693.106Z" fill="#fff"/></mask><g mask="url(#g)"><path d="M3.475 772.256h236.193v230.914H3.475V772.256Z" fill="#5AB17A"/><path fill-rule="evenodd" clip-rule="evenodd" d="m239.668 772.256 76.981-76.971V926.2l-76.981 76.97V772.256Z" fill="#488E62"/><path fill-rule="evenodd" clip-rule="evenodd" d="m3.475 772.256 76.982-76.971H316.65l-76.981 76.971H3.475Z" fill="#7AC094"/><path d="m3.475 772.256 76.982-76.971H316.65M3.475 772.256v230.914h236.193M3.475 772.256h236.193m76.981-76.971V926.2l-76.981 76.97m76.981-307.885-76.981 76.971m0 230.914V772.256" stroke="#fff" stroke-width="1.495" stroke-miterlimit="8"/></g></g></g></g><path fill-rule="evenodd" clip-rule="evenodd" d="M119.741 820.372c16.607 0 29.108 3.64 37.502 10.92 8.394 7.282 12.801 17 13.222 29.153l-26.716 1.174c-1.142-6.8-3.594-11.687-7.356-14.666-3.759-2.979-9.4-4.468-16.921-4.468-7.763 0-13.84 1.595-18.233 4.783-2.827 2.045-4.242 4.784-4.242 8.212 0 3.129 1.324 5.807 3.972 8.033 3.369 2.828 11.552 5.779 24.549 8.845 12.997 3.07 22.609 6.244 28.837 9.522 6.227 3.28 11.1 7.762 14.621 13.449 3.52 5.685 5.279 12.711 5.279 21.073 0 7.584-2.105 14.683-6.317 21.301-4.213 6.619-10.169 11.539-17.871 14.758-7.701 3.219-17.298 4.828-28.791 4.828-16.727 0-29.574-3.866-38.538-11.597-8.967-7.732-14.322-19-16.067-33.8l25.994-2.527c1.565 8.722 4.739 15.131 9.522 19.223 4.784 4.092 11.237 6.137 19.36 6.137 8.604 0 15.087-1.819 19.449-5.462 4.364-3.64 6.545-7.896 6.545-12.769 0-3.129-.919-5.793-2.753-7.988-1.836-2.196-5.039-4.106-9.613-5.732-3.129-1.082-10.259-3.007-21.39-5.777-14.32-3.548-24.37-7.91-30.145-13.087-8.124-7.28-12.185-16.155-12.185-26.623 0-6.741 1.91-13.042 5.731-18.908 3.821-5.869 9.326-10.337 16.517-13.405 7.19-3.068 15.87-4.602 26.038-4.602Z" fill="#fff" stroke="#08060D" stroke-width="1.499" stroke-miterlimit="10" stroke-linejoin="round"/></g></g><mask id="h" style="mask-type:luminance" maskUnits="userSpaceOnUse" x="1" y="462" width="318" height="313"><path d="M318.824 462.28H1.177v311.852h317.647V462.28Z" fill="#fff"/></mask><g mask="url(#h)"><mask id="i" style="mask-type:luminance" maskUnits="userSpaceOnUse" x="1" y="462" width="318" height="313"><path d="M318.824 462.275H1.177v311.85h317.647v-311.85Z" fill="#fff"/></mask><g mask="url(#i)"><mask id="j" style="mask-type:luminance" maskUnits="userSpaceOnUse" x="1" y="462" width="318" height="313"><path d="M318.821 462.28H1.301v311.849h317.52V462.28Z" fill="#fff"/></mask><g mask="url(#j)"><mask id="k" style="mask-type:luminance" maskUnits="userSpaceOnUse" x="1" y="462" width="318" height="313"><path d="M318.821 462.28H1.301v311.849h317.52V462.28Z" fill="#fff"/></mask><g mask="url(#k)"><mask id="l" style="mask-type:luminance" maskUnits="userSpaceOnUse" x="1" y="462" width="318" height="313"><path d="M318.821 462.28H1.301v311.849h317.52V462.28Z" fill="#fff"/></mask><g mask="url(#l)"><mask id="m" style="mask-type:luminance" maskUnits="userSpaceOnUse" x="1" y="462" width="318" height="313"><path d="M318.821 462.28H1.301v311.849h317.52V462.28Z" fill="#fff"/></mask><g mask="url(#m)"><path d="M3.473 541.426h236.193v230.915H3.473V541.426Z" fill="#0294F7"/><path fill-rule="evenodd" clip-rule="evenodd" d="m239.666 541.423 76.981-76.969v230.913l-76.981 76.972V541.423Z" fill="#0277C7"/><path fill-rule="evenodd" clip-rule="evenodd" d="m3.473 541.423 76.982-76.969h236.192l-76.981 76.969H3.473Z" fill="#34A9F9"/><path d="m3.473 541.423 76.982-76.969h236.192M3.473 541.423v230.916h236.193M3.473 541.423h236.193m76.981-76.969v230.913l-76.981 76.972m76.981-307.885-76.981 76.969m0 230.916V541.423" stroke="#fff" stroke-width="1.495" stroke-miterlimit="8"/></g></g></g></g><path fill-rule="evenodd" clip-rule="evenodd" d="M69.162 591.79h105.146v22.384h-39.17v109.929h-26.716V614.174h-39.26V591.79Z" fill="#fff" stroke="#08060D" stroke-width="1.499" stroke-miterlimit="10" stroke-linejoin="round"/></g></g><mask id="n" style="mask-type:luminance" maskUnits="userSpaceOnUse" x="1" y="231" width="318" height="313"><path d="M318.824 231.447H1.177v311.852h317.647V231.447Z" fill="#fff"/></mask><g mask="url(#n)"><mask id="o" style="mask-type:luminance" maskUnits="userSpaceOnUse" x="1" y="231" width="318" height="313"><path d="M318.824 231.447H1.177v311.852h317.647V231.447Z" fill="#fff"/></mask><g mask="url(#o)"><mask id="p" style="mask-type:luminance" maskUnits="userSpaceOnUse" x="1" y="231" width="318" height="313"><path d="M318.824 231.443H1.302v311.851h317.522V231.443Z" fill="#fff"/></mask><g mask="url(#p)"><mask id="q" style="mask-type:luminance" maskUnits="userSpaceOnUse" x="1" y="231" width="318" height="313"><path d="M318.824 231.443H1.302v311.851h317.522V231.443Z" fill="#fff"/></mask><g mask="url(#q)"><mask id="r" style="mask-type:luminance" maskUnits="userSpaceOnUse" x="1" y="231" width="318" height="313"><path d="M318.824 231.443H1.302v311.851h317.522V231.443Z" fill="#fff"/></mask><g mask="url(#r)"><mask id="s" style="mask-type:luminance" maskUnits="userSpaceOnUse" x="1" y="231" width="318" height="313"><path d="M318.824 231.443H1.302v311.851h317.522V231.443Z" fill="#fff"/></mask><g mask="url(#s)"><path d="M3.473 310.583h236.193v230.916H3.473V310.583Z" fill="#DD5723"/><path fill-rule="evenodd" clip-rule="evenodd" d="m239.666 310.583 76.981-76.971v230.915l-76.981 76.972V310.583Z" fill="#B2461C"/><path fill-rule="evenodd" clip-rule="evenodd" d="m3.473 310.583 76.982-76.971h236.192l-76.981 76.971H3.473Z" fill="#E4784E"/><path d="m3.473 310.583 76.982-76.971h236.192M3.473 310.583v230.916h236.193M3.473 310.583h236.193m76.981-76.971v230.915l-76.981 76.972m76.981-307.887-76.981 76.971m0 230.916V310.583" stroke="#fff" stroke-width="1.495" stroke-miterlimit="8"/></g></g></g></g><path fill-rule="evenodd" clip-rule="evenodd" d="M78.818 360.96h90.707v22.381h-63.991v31.32h55.236v22.381h-55.236v56.231H78.818V360.96Z" fill="#fff" stroke="#08060D" stroke-width="1.499" stroke-miterlimit="10" stroke-linejoin="round"/></g></g><mask id="t" style="mask-type:luminance" maskUnits="userSpaceOnUse" x="1" y="0" width="318" height="313"><path d="M318.824.615H1.177v311.851h317.647V.615Z" fill="#fff"/></mask><g mask="url(#t)"><mask id="u" style="mask-type:luminance" maskUnits="userSpaceOnUse" x="1" y="0" width="318" height="313"><path d="M318.824.612H1.177v311.851h317.647V.613Z" fill="#fff"/></mask><g mask="url(#u)"><mask id="v" style="mask-type:luminance" maskUnits="userSpaceOnUse" x="1" y="0" width="318" height="313"><path d="M318.821.605H1.301v311.851h317.52V.606Z" fill="#fff"/></mask><g mask="url(#v)"><mask id="w" style="mask-type:luminance" maskUnits="userSpaceOnUse" x="1" y="0" width="318" height="313"><path d="M318.821.602H1.301v311.852h317.52V.602Z" fill="#fff"/></mask><g mask="url(#w)"><mask id="x" style="mask-type:luminance" maskUnits="userSpaceOnUse" x="1" y="0" width="318" height="313"><path d="M318.824.594H1.302v311.851h317.522V.594Z" fill="#fff"/></mask><g mask="url(#x)"><mask id="y" style="mask-type:luminance" maskUnits="userSpaceOnUse" x="1" y="0" width="318" height="313"><path d="M318.824.59H1.302v311.852h317.522V.591Z" fill="#fff"/></mask><g mask="url(#y)"><path d="M3.474 79.74h236.192v230.914H3.474V79.74Z" fill="#6F5E4E"/><path fill-rule="evenodd" clip-rule="evenodd" d="m239.666 79.74 76.981-76.972v230.915l-76.981 76.971V79.739Z" fill="#594C3F"/><path fill-rule="evenodd" clip-rule="evenodd" d="M3.474 79.74 80.456 2.767h236.191l-76.981 76.971H3.474Z" fill="#8B7E71"/><path d="M3.474 79.74 80.456 2.767h236.191M3.474 79.739v230.915h236.192M3.474 79.739h236.192m76.981-76.971v230.915l-76.981 76.971M316.647 2.768l-76.981 76.971m0 230.915V79.739" stroke="#fff" stroke-width="1.495" stroke-miterlimit="8"/></g></g></g></g><path fill-rule="evenodd" clip-rule="evenodd" d="M125.573 127.869c16.185 0 29.333 4.783 39.441 14.35 6.018 5.656 10.53 13.779 13.539 24.368l-26.445 6.319c-1.564-6.859-4.828-12.275-9.793-16.246-4.963-3.972-10.996-5.957-18.096-5.957-9.808 0-17.765 3.52-23.872 10.56-6.107 7.039-9.161 18.442-9.161 34.206 0 16.728 3.008 28.641 9.025 35.742 6.018 7.1 13.84 10.65 23.466 10.65 7.1 0 13.208-2.256 18.323-6.77 5.114-4.512 8.785-11.612 11.01-21.3l25.904 8.214c-3.971 14.44-10.575 25.167-19.811 32.176-9.237 7.01-20.955 10.513-35.155 10.513-17.569 0-32.01-6-43.321-18.005-11.313-12.003-16.969-28.415-16.969-49.234 0-22.022 5.687-39.126 17.058-51.31 11.373-12.184 26.324-18.276 44.857-18.276Z" fill="#fff" stroke="#08060D" stroke-width="1.499" stroke-miterlimit="10" stroke-linejoin="round"/></g></g></g></svg>