<svg width="135" height="328" viewBox="0 0 135 328" fill="none" xmlns="http://www.w3.org/2000/svg"><g clip-path="url(#a)"><mask id="b" style="mask-type:luminance" maskUnits="userSpaceOnUse" x="0" y="195" width="135" height="133"><path d="M134.234 195.659H0v131.785h134.234V195.659Z" fill="#fff"/></mask><g mask="url(#b)"><mask id="c" style="mask-type:luminance" maskUnits="userSpaceOnUse" x="0" y="195" width="135" height="133"><path d="M134.234 195.662H.054v131.785h134.18V195.662Z" fill="#fff"/></mask><g mask="url(#c)"><mask id="d" style="mask-type:luminance" maskUnits="userSpaceOnUse" x="0" y="195" width="135" height="133"><path d="M134.235 195.666H.055V327.45h134.18V195.666Z" fill="#fff"/></mask><g mask="url(#d)"><mask id="e" style="mask-type:luminance" maskUnits="userSpaceOnUse" x="0" y="195" width="135" height="133"><path d="M134.235 195.668H.055v131.784h134.18V195.668Z" fill="#fff"/></mask><g mask="url(#e)"><mask id="f" style="mask-type:luminance" maskUnits="userSpaceOnUse" x="0" y="195" width="135" height="133"><path d="M134.235 195.671H.055v131.784h134.18V195.671Z" fill="#fff"/></mask><g mask="url(#f)"><path d="M133.316 229.115H33.505v97.582h99.811v-97.582Z" fill="#C11E22"/><path fill-rule="evenodd" clip-rule="evenodd" d="M33.504 229.115.973 196.587v97.582l32.531 32.527v-97.581Z" fill="#9B181B"/><path fill-rule="evenodd" clip-rule="evenodd" d="m133.316 229.115-32.532-32.528H.972l32.532 32.528h99.812Z" fill="#CD4A4D"/><path d="m133.316 229.115-32.532-32.528H.972m132.344 32.528v97.581H33.504m99.812-97.581H33.504M.972 196.587v97.582l32.532 32.527M.972 196.587l32.532 32.528m0 97.581v-97.581" stroke="#fff" stroke-width="1.487" stroke-miterlimit="8"/></g></g></g></g><path fill-rule="evenodd" clip-rule="evenodd" d="M85.165 249.437c6.84 0 12.395 2.021 16.667 6.064 2.543 2.39 4.45 5.823 5.721 10.298l-11.175 2.67c-.661-2.898-2.04-5.187-4.138-6.865-2.098-1.679-4.647-2.518-7.648-2.518-4.144 0-7.507 1.488-10.088 4.463-2.58 2.975-3.871 7.794-3.871 14.455 0 7.069 1.271 12.104 3.814 15.104s5.848 4.501 9.917 4.501c3 0 5.581-.954 7.742-2.861 2.162-1.907 3.713-4.907 4.654-9.001l10.946 3.471c-1.678 6.102-4.469 10.635-8.372 13.597-3.903 2.962-8.855 4.443-14.856 4.443-7.425 0-13.527-2.536-18.307-7.609C61.39 294.577 59 287.641 59 278.843c0-9.306 2.403-16.534 7.209-21.683 4.805-5.149 11.124-7.723 18.956-7.723Z" fill="#fff" stroke="#08060D" stroke-width="1.491" stroke-miterlimit="10" stroke-linejoin="round"/></g></g><g clip-path="url(#g)"><mask id="h" style="mask-type:luminance" maskUnits="userSpaceOnUse" x="0" y="98" width="135" height="132"><path d="M134.234 98.109H0v131.784h134.234V98.109Z" fill="#fff"/></mask><g mask="url(#h)"><mask id="i" style="mask-type:luminance" maskUnits="userSpaceOnUse" x="0" y="98" width="135" height="132"><path d="M134.234 98.11H.054v131.784h134.18V98.109Z" fill="#fff"/></mask><g mask="url(#i)"><mask id="j" style="mask-type:luminance" maskUnits="userSpaceOnUse" x="0" y="98" width="135" height="132"><path d="M134.234 98.11H.054v131.785h134.18V98.111Z" fill="#fff"/></mask><g mask="url(#j)"><mask id="k" style="mask-type:luminance" maskUnits="userSpaceOnUse" x="0" y="98" width="135" height="132"><path d="M134.233 98.11H.053v131.785h134.18V98.111Z" fill="#fff"/></mask><g mask="url(#k)"><mask id="l" style="mask-type:luminance" maskUnits="userSpaceOnUse" x="0" y="98" width="135" height="132"><path d="M134.232 98.11H.052v131.784h134.18V98.109Z" fill="#fff"/></mask><g mask="url(#l)"><path d="M133.314 131.555H33.502v97.582h99.812v-97.582Z" fill="#0294F7"/><path fill-rule="evenodd" clip-rule="evenodd" d="M33.502 131.554.97 99.027v97.582l32.532 32.527v-97.582Z" fill="#0277C7"/><path fill-rule="evenodd" clip-rule="evenodd" d="m133.313 131.554-32.531-32.527H.97l32.532 32.527h99.811Z" fill="#34A9F9"/><path d="m133.313 131.554-32.531-32.527H.97m132.343 32.527v97.582H33.502m99.811-97.582H33.502M.97 99.027v97.582l32.532 32.527M.97 99.027l32.532 32.527m0 97.582v-97.582" stroke="#fff" stroke-width="1.487" stroke-miterlimit="8"/></g></g></g></g><path fill-rule="evenodd" clip-rule="evenodd" d="M61.325 152.841h44.434v9.459H89.206v46.455h-11.29V162.3h-16.59v-9.459Z" fill="#fff" stroke="#08060D" stroke-width="1.491" stroke-miterlimit="10" stroke-linejoin="round"/></g></g><g clip-path="url(#m)"><mask id="n" style="mask-type:luminance" maskUnits="userSpaceOnUse" x="0" y="0" width="135" height="133"><path d="M134.234.559H0v131.784h134.234V.559Z" fill="#fff"/></mask><g mask="url(#n)"><mask id="o" style="mask-type:luminance" maskUnits="userSpaceOnUse" x="0" y="0" width="135" height="133"><path d="M134.233.557H.053V132.34h134.18V.557Z" fill="#fff"/></mask><g mask="url(#o)"><mask id="p" style="mask-type:luminance" maskUnits="userSpaceOnUse" x="0" y="0" width="135" height="133"><path d="M134.233.555H.053v131.784h134.18V.555Z" fill="#fff"/></mask><g mask="url(#p)"><mask id="q" style="mask-type:luminance" maskUnits="userSpaceOnUse" x="0" y="0" width="135" height="133"><path d="M134.232.553H.052v131.784h134.18V.553Z" fill="#fff"/></mask><g mask="url(#q)"><mask id="r" style="mask-type:luminance" maskUnits="userSpaceOnUse" x="0" y="0" width="135" height="133"><path d="M134.232.55H.052v131.785h134.18V.551Z" fill="#fff"/></mask><g mask="url(#r)"><path d="M133.313 33.997H33.502v97.581h99.811V33.997Z" fill="#6F5E4E"/><path fill-rule="evenodd" clip-rule="evenodd" d="M33.502 33.998.97 1.47v97.581l32.532 32.528V33.998Z" fill="#594C3F"/><path fill-rule="evenodd" clip-rule="evenodd" d="M133.313 33.998 100.781 1.47H.97L33.5 33.998h99.812Z" fill="#8B7E71"/><path d="M133.313 33.998 100.781 1.47H.97m132.343 32.527v97.582H33.501m99.812-97.582H33.501M.97 1.47v97.581L33.5 131.58M.97 1.47 33.5 33.999m0 97.582V33.998" stroke="#fff" stroke-width="1.487" stroke-miterlimit="8"/></g></g></g></g><path fill-rule="evenodd" clip-rule="evenodd" d="M85.165 54.335c6.84 0 12.395 2.021 16.667 6.064 2.543 2.39 4.45 5.823 5.721 10.298l-11.175 2.67c-.661-2.898-2.04-5.187-4.138-6.865-2.098-1.679-4.647-2.518-7.648-2.518-4.144 0-7.507 1.488-10.088 4.463-2.58 2.975-3.871 7.793-3.871 14.455 0 7.07 1.271 12.103 3.814 15.104 2.543 3 5.848 4.501 9.917 4.501 3 0 5.581-.954 7.742-2.861 2.162-1.907 3.713-4.907 4.654-9.001l10.946 3.47c-1.678 6.103-4.469 10.636-8.372 13.598-3.903 2.962-8.855 4.443-14.856 4.443-7.425 0-13.527-2.536-18.307-7.609C61.39 99.475 59 92.539 59 83.741c0-9.306 2.403-16.534 7.209-21.683 4.805-5.149 11.124-7.723 18.956-7.723Z" fill="#fff" stroke="#08060D" stroke-width="1.491" stroke-miterlimit="10" stroke-linejoin="round"/></g></g><defs><clipPath id="a"><path fill="#fff" transform="translate(0 195.655)" d="M0 0h134.234v131.785H0z"/></clipPath><clipPath id="g"><path fill="#fff" transform="translate(0 98.108)" d="M0 0h134.234v131.785H0z"/></clipPath><clipPath id="m"><path fill="#fff" transform="translate(0 .56)" d="M0 0h134.234v131.785H0z"/></clipPath></defs></svg>