<svg width="642" height="535" viewBox="0 0 642 535" fill="none" xmlns="http://www.w3.org/2000/svg"><g clip-path="url(#a)"><path d="M504.207 397.824V28.968l-8.256-4.823-98.33 56.74-4.058 2.395-77.74 139.308L45.396 378.672v271.224l8.257 7.689 450.554-259.761Z" fill="#F0F0F0"/><path d="m446.865 392.966 57.36-33.08 4.006 2.307v37.78l-57.36 33.097-4.006-2.324v-37.78Z" fill="#412F6B"/><path opacity=".1" d="m446.865 392.966 57.36-33.08 4.006 2.307v37.78l-57.36 33.097-4.006-2.324v-37.78Z" fill="#000"/><path d="m508.231 399.973-57.36 33.097v-37.797l57.36-33.08v37.78Z" fill="#412F6B"/><path opacity=".25" d="m508.231 399.973-57.36 33.097v-37.797l57.36-33.08v37.78Z" fill="#fff"/><path opacity=".1" d="m446.865 392.965 4.006 2.307v37.797l-4.006-2.324v-37.78Z" fill="#000"/><path d="m381.353 430.747 57.36-33.08 3.989 2.307v37.798l-57.361 33.079-3.988-2.306v-37.798Z" fill="#412F6B"/><path opacity=".1" d="m381.353 430.747 57.36-33.08 3.989 2.307v37.798l-57.361 33.079-3.988-2.306v-37.798Z" fill="#000"/><path d="m442.719 437.772-57.377 33.08v-37.781l57.377-33.097v37.798Z" fill="#412F6B"/><path opacity=".25" d="m442.719 437.772-57.377 33.08v-37.781l57.377-33.097v37.798Z" fill="#fff"/><path opacity=".1" d="m381.353 430.746 3.988 2.324v37.78l-3.988-2.306v-37.798Z" fill="#000"/><path d="m315.823 468.544 57.36-33.08 4.006 2.307v37.78l-57.36 33.097-4.006-2.306v-37.798Z" fill="#412F6B"/><path opacity=".1" d="m315.823 468.544 57.36-33.08 4.006 2.307v37.78l-57.36 33.097-4.006-2.306v-37.798Z" fill="#000"/><path d="m377.189 475.551-57.36 33.098v-37.798l57.36-33.08v37.78Z" fill="#412F6B"/><path opacity=".25" d="m377.189 475.551-57.36 33.098v-37.798l57.36-33.08v37.78Z" fill="#fff"/><path opacity=".1" d="m315.823 468.543 4.006 2.307v37.797l-4.006-2.306v-37.798Z" fill="#000"/><path d="m250.293 506.342 57.361-33.097 4.006 2.307v37.798l-57.361 33.079-4.006-2.307v-37.78Z" fill="#412F6B"/><path opacity=".1" d="m250.293 506.342 57.361-33.097 4.006 2.307v37.798l-57.361 33.079-4.006-2.307v-37.78Z" fill="#000"/><path d="m311.66 513.349-57.36 33.08v-37.78l57.36-33.097v37.797Z" fill="#412F6B"/><path opacity=".25" d="m311.66 513.349-57.36 33.08v-37.78l57.36-33.097v37.797Z" fill="#fff"/><path opacity=".1" d="m250.294 506.342 4.006 2.307v37.78l-4.006-2.307v-37.78Z" fill="#000"/><path d="m184.764 544.122 57.378-33.08 3.988 2.307v37.798l-57.36 33.079-4.006-2.306v-37.798Z" fill="#412F6B"/><path opacity=".1" d="m184.764 544.122 57.378-33.08 3.988 2.307v37.798l-57.36 33.079-4.006-2.306v-37.798Z" fill="#000"/><path d="m246.131 551.147-57.36 33.08v-37.798l57.36-33.08v37.798Z" fill="#412F6B"/><path opacity=".25" d="m246.131 551.147-57.36 33.08v-37.798l57.36-33.08v37.798Z" fill="#fff"/><path d="m409.953 367.051 57.36-33.079 4.006 2.306v37.798l-57.377 33.08-3.989-2.307v-37.798Z" fill="#412F6B"/><path opacity=".1" d="m409.953 367.051 57.36-33.079 4.006 2.306v37.798l-57.377 33.08-3.989-2.307v-37.798Z" fill="#000"/><path d="m471.32 374.076-57.378 33.08v-37.798l57.378-33.079v37.797Z" fill="#412F6B"/><path opacity=".25" d="m471.32 374.076-57.378 33.08v-37.798l57.378-33.079v37.797Z" fill="#fff"/><path opacity=".1" d="m409.953 367.051 3.989 2.307v37.798l-3.989-2.307v-37.798Z" fill="#000"/><path d="m344.424 404.849 57.36-33.08 4.006 2.307v37.78l-57.36 33.08-4.006-2.307v-37.78Z" fill="#412F6B"/><path opacity=".1" d="m344.424 404.849 57.36-33.08 4.006 2.307v37.78l-57.36 33.08-4.006-2.307v-37.78Z" fill="#000"/><path d="m405.79 411.856-57.36 33.08v-37.78l57.36-33.08v37.78Z" fill="#412F6B"/><path opacity=".25" d="m405.79 411.856-57.36 33.08v-37.78l57.36-33.08v37.78Z" fill="#fff"/><path opacity=".1" d="m344.424 404.848 4.006 2.307v37.78l-4.006-2.307v-37.78Z" fill="#000"/><path d="m278.894 442.629 57.36-33.08 4.006 2.307v37.797l-57.36 33.08-4.006-2.307v-37.797Z" fill="#412F6B"/><path opacity=".1" d="m278.894 442.629 57.36-33.08 4.006 2.307v37.797l-57.36 33.08-4.006-2.307v-37.797Z" fill="#000"/><path d="M340.261 449.654 282.9 482.733v-37.797l57.361-33.08v37.798Z" fill="#412F6B"/><path opacity=".25" d="M340.261 449.654 282.9 482.733v-37.797l57.361-33.08v37.798Z" fill="#fff"/><path opacity=".1" d="m278.894 442.629 4.006 2.307v37.797l-4.006-2.306v-37.798Z" fill="#000"/><path d="m213.381 480.426 57.361-33.079 4.005 2.306v37.781l-57.377 33.097-3.989-2.307v-37.798Z" fill="#412F6B"/><path opacity=".1" d="m213.381 480.426 57.361-33.079 4.005 2.306v37.781l-57.377 33.097-3.989-2.307v-37.798Z" fill="#000"/><path d="m274.748 487.434-57.378 33.097v-37.798l57.378-33.079v37.78Z" fill="#412F6B"/><path opacity=".25" d="m274.748 487.434-57.378 33.097v-37.798l57.378-33.079v37.78Z" fill="#fff"/><path opacity=".1" d="m213.381 480.426 3.989 2.306v37.798l-3.989-2.306v-37.798Z" fill="#000"/><path d="m147.853 518.224 57.36-33.097 4.006 2.306v37.798l-57.36 33.08-4.006-2.307v-37.78Z" fill="#412F6B"/><path opacity=".1" d="m147.853 518.224 57.36-33.097 4.006 2.306v37.798l-57.36 33.08-4.006-2.307v-37.78Z" fill="#000"/><path d="m209.22 525.231-57.361 33.08v-37.78l57.361-33.097v37.797Z" fill="#412F6B"/><path opacity=".25" d="m209.22 525.231-57.361 33.08v-37.78l57.361-33.097v37.797Z" fill="#fff"/><path opacity=".1" d="m147.853 518.224 4.006 2.307v37.78l-4.006-2.307v-37.78Z" fill="#000"/><path d="m82.323 556.005 57.361-33.08 4.006 2.307v37.797l-57.36 33.08-4.007-2.307v-37.797Z" fill="#412F6B"/><path opacity=".1" d="m82.323 556.005 57.361-33.08 4.006 2.307v37.797l-57.36 33.08-4.007-2.307v-37.797Z" fill="#000"/><path d="m143.69 563.03-57.36 33.079v-37.798l57.36-33.079v37.798Z" fill="#412F6B"/><path opacity=".25" d="m143.69 563.03-57.36 33.079v-37.798l57.36-33.079v37.798Z" fill="#fff"/><path d="m475.466 329.27 28.689-16.549 4.006 2.307v37.798l-28.689 16.531-4.006-2.307v-37.78Z" fill="#412F6B"/><path opacity=".1" d="m475.466 329.27 28.689-16.549 4.006 2.307v37.798l-28.689 16.531-4.006-2.307v-37.78Z" fill="#000"/><path d="m508.161 352.826-28.689 16.531v-37.78l28.689-16.549v37.798Z" fill="#412F6B"/><path opacity=".25" d="m508.161 352.826-28.689 16.531v-37.78l28.689-16.549v37.798Z" fill="#fff"/><path opacity=".1" d="m475.466 329.27 4.006 2.307v37.78l-4.006-2.307v-37.78Z" fill="#000"/><path d="m446.864 298.48 57.36-33.08 4.006 2.307v37.798l-57.36 33.079-4.006-2.306V298.48Z" fill="#412F6B"/><path opacity=".1" d="m446.864 298.48 57.36-33.08 4.006 2.307v37.798l-57.36 33.079-4.006-2.306V298.48Z" fill="#000"/><path d="m508.231 305.505-57.36 33.08v-37.798l57.36-33.08v37.798Z" fill="#412F6B"/><path opacity=".25" d="m508.231 305.505-57.36 33.08v-37.798l57.36-33.08v37.798Z" fill="#fff"/><path opacity=".1" d="m446.864 298.48 4.006 2.307v37.797l-4.006-2.306V298.48Z" fill="#000"/><path d="m381.353 336.278 57.36-33.08 3.989 2.307v37.78l-57.361 33.097-3.988-2.307v-37.797Z" fill="#412F6B"/><path opacity=".1" d="m381.353 336.278 57.36-33.08 3.989 2.307v37.78l-57.361 33.097-3.988-2.307v-37.797Z" fill="#000"/><path d="m442.719 343.285-57.377 33.097v-37.798l57.377-33.079v37.78Z" fill="#412F6B"/><path opacity=".25" d="m442.719 343.285-57.377 33.097v-37.798l57.377-33.079v37.78Z" fill="#fff"/><path opacity=".1" d="m381.353 336.277 3.988 2.307v37.797l-3.988-2.306v-37.798Z" fill="#000"/><path d="m315.823 374.075 57.36-33.097 4.006 2.306v37.798l-57.36 33.079-4.006-2.306v-37.78Z" fill="#412F6B"/><path opacity=".1" d="m315.823 374.075 57.36-33.097 4.006 2.306v37.798l-57.36 33.079-4.006-2.306v-37.78Z" fill="#000"/><path d="m377.189 381.082-57.36 33.08v-37.781l57.36-33.097v37.798Z" fill="#412F6B"/><path opacity=".25" d="m377.189 381.082-57.36 33.08v-37.781l57.36-33.097v37.798Z" fill="#fff"/><path opacity=".1" d="m315.823 374.075 4.006 2.307v37.78l-4.006-2.306v-37.781Z" fill="#000"/><path d="m250.293 411.856 57.361-33.08 4.006 2.307v37.78l-57.361 33.097-4.006-2.307v-37.797Z" fill="#412F6B"/><path opacity=".1" d="m250.293 411.856 57.361-33.08 4.006 2.307v37.78l-57.361 33.097-4.006-2.307v-37.797Z" fill="#000"/><path d="M311.66 418.863 254.3 451.96v-37.798l57.36-33.079v37.78Z" fill="#412F6B"/><path opacity=".25" d="M311.66 418.863 254.3 451.96v-37.798l57.36-33.079v37.78Z" fill="#fff"/><path opacity=".1" d="m250.293 411.855 4.006 2.306v37.798l-4.006-2.307v-37.797Z" fill="#000"/><path d="m184.764 449.653 57.378-33.097 3.988 2.307v37.798l-57.36 33.079-4.006-2.306v-37.781Z" fill="#412F6B"/><path opacity=".1" d="m184.764 449.653 57.378-33.097 3.988 2.307v37.798l-57.36 33.079-4.006-2.306v-37.781Z" fill="#000"/><path d="m246.131 456.661-57.36 33.079v-37.78l57.36-33.097v37.798Z" fill="#412F6B"/><path opacity=".25" d="m246.131 456.661-57.36 33.079v-37.78l57.36-33.097v37.798Z" fill="#fff"/><path opacity=".1" d="m184.764 449.654 4.006 2.307v37.78l-4.006-2.306v-37.781Z" fill="#000"/><path d="m119.252 487.434 57.36-33.08 4.006 2.307v37.798l-57.36 33.079-4.006-2.306v-37.798Z" fill="#412F6B"/><path opacity=".1" d="m119.252 487.434 57.36-33.08 4.006 2.307v37.798l-57.36 33.079-4.006-2.306v-37.798Z" fill="#000"/><path d="m180.619 494.459-57.36 33.08v-37.798l57.36-33.08v37.798Z" fill="#412F6B"/><path opacity=".25" d="m180.619 494.459-57.36 33.08v-37.798l57.36-33.08v37.798Z" fill="#fff"/><path opacity=".1" d="m119.252 487.434 4.006 2.307v37.797l-4.006-2.306v-37.798Z" fill="#000"/><path d="m53.722 525.232 57.36-33.08 4.006 2.307v37.78l-57.36 33.08-4.006-2.307v-37.78Z" fill="#412F6B"/><path opacity=".1" d="m53.722 525.232 57.36-33.08 4.006 2.307v37.78l-57.36 33.08-4.006-2.307v-37.78Z" fill="#000"/><path d="m115.089 532.239-57.36 33.08v-37.78l57.36-33.08v37.78Z" fill="#412F6B"/><path opacity=".25" d="m115.089 532.239-57.36 33.08v-37.78l57.36-33.08v37.78Z" fill="#fff"/><path opacity=".1" d="m53.722 525.232 4.006 2.306v37.781l-4.006-2.307v-37.78Z" fill="#000"/><path d="M57.728 527.504v37.815l-16.338-9.471v-37.816l16.338 9.472Z" fill="#412F6B"/><path opacity=".2" d="M57.728 527.504v37.815l-16.338-9.471v-37.816l16.338 9.472Z" fill="#000"/><path d="m45.396 515.726 16.338 9.506-4.006 2.306-16.338-9.506 4.006-2.306Z" fill="#412F6B"/><path opacity=".1" d="m45.396 515.726 16.338 9.506-4.006 2.306-16.338-9.506 4.006-2.306Z" fill="#000"/><path d="m53.74 477.842 20.432-11.831 3.989 2.307v37.798l-20.433 11.83-3.988-2.307v-37.797Z" fill="#412F6B"/><path opacity=".1" d="m53.74 477.842 20.432-11.831 3.989 2.307v37.798l-20.433 11.83-3.988-2.307v-37.797Z" fill="#000"/><path d="m78.16 506.116-20.431 11.83v-37.78l20.432-11.848v37.798Z" fill="#412F6B"/><path opacity=".25" d="m78.16 506.116-20.431 11.83v-37.78l20.432-11.848v37.798Z" fill="#fff"/><path opacity=".1" d="m53.74 477.842 3.988 2.324v37.78l-3.988-2.306v-37.798Z" fill="#000"/><path d="m409.953 272.462 57.36-33.08 4.006 2.307v37.798l-57.377 33.079-3.989-2.306v-37.798Z" fill="#412F6B"/><path opacity=".1" d="m409.953 272.462 57.36-33.08 4.006 2.307v37.798l-57.377 33.079-3.989-2.306v-37.798Z" fill="#000"/><path d="m471.32 279.487-57.378 33.08v-37.798l57.378-33.08v37.798Z" fill="#412F6B"/><path opacity=".25" d="m471.32 279.487-57.378 33.08v-37.798l57.378-33.08v37.798Z" fill="#fff"/><path opacity=".1" d="m409.953 272.462 3.989 2.307v37.798l-3.989-2.307v-37.798Z" fill="#000"/><path d="m344.424 310.259 57.36-33.097 4.006 2.324v37.781l-57.36 33.079-4.006-2.307v-37.78Z" fill="#412F6B"/><path opacity=".1" d="m344.424 310.259 57.36-33.097 4.006 2.324v37.781l-57.36 33.079-4.006-2.307v-37.78Z" fill="#000"/><path d="m405.791 317.267-57.36 33.08v-37.781l57.36-33.079v37.78Z" fill="#412F6B"/><path opacity=".25" d="m405.791 317.267-57.36 33.08v-37.781l57.36-33.079v37.78Z" fill="#fff"/><path opacity=".1" d="m344.424 310.26 4.006 2.306v37.78l-4.006-2.306v-37.78Z" fill="#000"/><path d="m278.895 348.039 57.36-33.08 4.006 2.307v37.798L282.9 388.143l-4.005-2.306v-37.798Z" fill="#412F6B"/><path opacity=".1" d="m278.895 348.039 57.36-33.08 4.006 2.307v37.798L282.9 388.143l-4.005-2.306v-37.798Z" fill="#000"/><path d="m340.261 355.064-57.36 33.08v-37.798l57.36-33.08v37.798Z" fill="#412F6B"/><path opacity=".25" d="m340.261 355.064-57.36 33.08v-37.798l57.36-33.08v37.798Z" fill="#fff"/><path opacity=".1" d="m278.895 348.04 4.005 2.306v37.798l-4.005-2.307V348.04Z" fill="#000"/><path d="m213.382 385.838 57.361-33.08 4.005 2.307v37.78l-57.377 33.097-3.989-2.324v-37.78Z" fill="#412F6B"/><path opacity=".1" d="m213.382 385.838 57.361-33.08 4.005 2.307v37.78l-57.377 33.097-3.989-2.324v-37.78Z" fill="#000"/><path d="m274.749 392.846-57.378 33.097v-37.798l57.378-33.079v37.78Z" fill="#412F6B"/><path opacity=".25" d="m274.749 392.846-57.378 33.097v-37.798l57.378-33.079v37.78Z" fill="#fff"/><path opacity=".1" d="m213.382 385.838 3.989 2.307v37.798l-3.989-2.324v-37.781Z" fill="#000"/><path d="m147.853 423.617 57.36-33.079 4.006 2.306v37.798l-57.36 33.079-4.006-2.306v-37.798Z" fill="#412F6B"/><path opacity=".1" d="m147.853 423.617 57.36-33.079 4.006 2.306v37.798l-57.36 33.079-4.006-2.306v-37.798Z" fill="#000"/><path d="m209.22 430.642-57.361 33.08v-37.781l57.361-33.097v37.798Z" fill="#412F6B"/><path opacity=".25" d="m209.22 430.642-57.361 33.08v-37.781l57.361-33.097v37.798Z" fill="#fff"/><path opacity=".1" d="m147.853 423.617 4.005 2.324v37.781l-4.005-2.307v-37.798Z" fill="#000"/><path d="m82.324 461.415 57.36-33.08 4.006 2.307v37.78l-57.36 33.097-4.006-2.306v-37.798Z" fill="#412F6B"/><path opacity=".1" d="m82.324 461.415 57.36-33.08 4.006 2.307v37.78l-57.36 33.097-4.006-2.306v-37.798Z" fill="#000"/><path d="M143.69 468.423 86.33 501.52v-37.798l57.36-33.08v37.781Z" fill="#412F6B"/><path opacity=".25" d="M143.69 468.423 86.33 501.52v-37.798l57.36-33.08v37.781Z" fill="#fff"/><path opacity=".1" d="m82.324 461.415 4.006 2.307v37.797l-4.006-2.306v-37.798Z" fill="#000"/><path d="m475.466 234.681 28.689-16.549 4.006 2.307v37.798l-28.689 16.531-4.006-2.307v-37.78Z" fill="#412F6B"/><path opacity=".1" d="m475.466 234.681 28.689-16.549 4.006 2.307v37.798l-28.689 16.531-4.006-2.307v-37.78Z" fill="#000"/><path d="m508.161 258.237-28.688 16.531v-37.78l28.688-16.549v37.798Z" fill="#412F6B"/><path opacity=".25" d="m508.161 258.237-28.688 16.531v-37.78l28.688-16.549v37.798Z" fill="#fff"/><path opacity=".1" d="m475.466 234.681 4.006 2.307v37.78l-4.006-2.307v-37.78Z" fill="#000"/><path d="M57.729 480.131v37.815l-16.322-9.471v-37.833l16.322 9.489Z" fill="#412F6B"/><path opacity=".2" d="M57.729 480.131v37.815l-16.322-9.471v-37.833l16.322 9.489Z" fill="#000"/><path d="m45.396 468.335 16.338 9.506-4.005 2.324-16.322-9.524 3.989-2.306Z" fill="#412F6B"/><path opacity=".1" d="m45.396 468.335 16.338 9.506-4.005 2.324-16.322-9.524 3.989-2.306Z" fill="#000"/><path d="m446.864 204.012 57.36-33.08 4.006 2.307v37.797l-57.36 33.08-4.006-2.307v-37.797Z" fill="#412F6B"/><path opacity=".1" d="m446.864 204.012 57.36-33.08 4.006 2.307v37.797l-57.36 33.08-4.006-2.307v-37.797Z" fill="#000"/><path d="m508.231 211.037-57.36 33.079v-37.797l57.36-33.08v37.798Z" fill="#412F6B"/><path opacity=".25" d="m508.231 211.037-57.36 33.079v-37.797l57.36-33.08v37.798Z" fill="#fff"/><path opacity=".1" d="m446.864 204.011 4.006 2.306v37.798l-4.006-2.307v-37.797Z" fill="#000"/><path d="m381.353 241.81 57.36-33.08 3.988 2.307v37.78l-57.36 33.097-3.988-2.324v-37.78Z" fill="#412F6B"/><path opacity=".1" d="m381.353 241.81 57.36-33.08 3.988 2.307v37.78l-57.36 33.097-3.988-2.324v-37.78Z" fill="#000"/><path d="m442.719 248.818-57.378 33.097v-37.798l57.378-33.079v37.78Z" fill="#412F6B"/><path opacity=".25" d="m442.719 248.818-57.378 33.097v-37.798l57.378-33.079v37.78Z" fill="#fff"/><path opacity=".1" d="m381.353 241.81 3.988 2.306v37.798l-3.988-2.324v-37.78Z" fill="#000"/><path d="m315.822 279.59 57.36-33.08 4.006 2.307v37.797l-57.36 33.08-4.006-2.307V279.59Z" fill="#412F6B"/><path opacity=".1" d="m315.822 279.59 57.36-33.08 4.006 2.307v37.797l-57.36 33.08-4.006-2.307V279.59Z" fill="#000"/><path d="m377.189 286.615-57.36 33.079v-37.78l57.36-33.097v37.798Z" fill="#412F6B"/><path opacity=".25" d="m377.189 286.615-57.36 33.079v-37.78l57.36-33.097v37.798Z" fill="#fff"/><path opacity=".1" d="m315.822 279.589 4.006 2.324v37.781l-4.006-2.307v-37.798Z" fill="#000"/><path d="m250.293 317.388 57.36-33.08 4.006 2.307v37.78l-57.36 33.097-4.006-2.307v-37.797Z" fill="#412F6B"/><path opacity=".1" d="m250.293 317.388 57.36-33.08 4.006 2.307v37.78l-57.36 33.097-4.006-2.307v-37.797Z" fill="#000"/><path d="m311.659 324.395-57.36 33.097v-37.797l57.36-33.08v37.78Z" fill="#412F6B"/><path opacity=".25" d="m311.659 324.395-57.36 33.097v-37.797l57.36-33.08v37.78Z" fill="#fff"/><path opacity=".1" d="m250.293 317.387 4.006 2.306v37.798l-4.006-2.307v-37.797Z" fill="#000"/><path d="m184.764 355.185 57.378-33.097 3.988 2.306v37.798l-57.36 33.08-4.006-2.307v-37.78Z" fill="#412F6B"/><path opacity=".1" d="m184.764 355.185 57.378-33.097 3.988 2.306v37.798l-57.36 33.08-4.006-2.307v-37.78Z" fill="#000"/><path d="m246.131 362.193-57.36 33.079v-37.78l57.36-33.097v37.798Z" fill="#412F6B"/><path opacity=".25" d="m246.131 362.193-57.36 33.079v-37.78l57.36-33.097v37.798Z" fill="#fff"/><path opacity=".1" d="m184.764 355.186 4.006 2.306v37.78l-4.006-2.306v-37.78Z" fill="#000"/><path d="m119.252 392.966 57.36-33.08 4.006 2.307v37.798l-57.36 33.079-4.006-2.307v-37.797Z" fill="#412F6B"/><path opacity=".1" d="m119.252 392.966 57.36-33.08 4.006 2.307v37.798l-57.36 33.079-4.006-2.307v-37.797Z" fill="#000"/><path d="m180.618 399.991-57.36 33.079v-37.798l57.36-33.079v37.798Z" fill="#412F6B"/><path opacity=".25" d="m180.618 400.025-57.36 33.08v-37.781l57.36-33.079v37.78Z" fill="#fff"/><path opacity=".1" d="m119.252 392.965 4.006 2.306v37.798l-4.006-2.307v-37.797Z" fill="#000"/><path d="m53.722 430.764 57.36-33.097 4.006 2.324v37.78l-57.36 33.08-4.006-2.307v-37.78Z" fill="#412F6B"/><path opacity=".1" d="m53.722 430.764 57.36-33.097 4.006 2.324v37.78l-57.36 33.08-4.006-2.307v-37.78Z" fill="#000"/><path d="m115.088 437.772-57.36 33.08v-37.78l57.36-33.08v37.78Z" fill="#412F6B"/><path opacity=".25" d="m115.088 437.772-57.36 33.08v-37.78l57.36-33.08v37.78Z" fill="#fff"/><path opacity=".1" d="m53.722 430.764 4.006 2.307v37.78l-4.006-2.306v-37.781Z" fill="#000"/><path d="M57.728 433.037v37.815l-16.339-9.471v-37.816l16.339 9.472Z" fill="#412F6B"/><path opacity=".2" d="M57.728 433.037v37.815l-16.339-9.471v-37.816l16.339 9.472Z" fill="#000"/><path d="m45.395 421.258 16.339 9.506-4.006 2.307-16.339-9.507 4.006-2.306Z" fill="#412F6B"/><path opacity=".1" d="m45.395 421.258 16.339 9.506-4.006 2.307-16.339-9.507 4.006-2.306Z" fill="#000"/><path d="m475.466 140.09 28.689-16.548 4.006 2.306v37.798l-28.689 16.531-4.006-2.307v-37.78Z" fill="#412F6B"/><path opacity=".1" d="m475.466 140.09 28.689-16.548 4.006 2.306v37.798l-28.689 16.531-4.006-2.307v-37.78Z" fill="#000"/><path d="m508.161 163.646-28.689 16.531v-37.78l28.689-16.549v37.798Z" fill="#412F6B"/><path opacity=".25" d="m508.161 163.646-28.689 16.531v-37.78l28.689-16.549v37.798Z" fill="#fff"/><path opacity=".1" d="m475.466 140.09 4.006 2.306v37.781l-4.006-2.307v-37.78Z" fill="#000"/><path d="m409.953 177.871 57.36-33.08 4.006 2.307v37.78l-57.377 33.097-3.989-2.307v-37.797Z" fill="#412F6B"/><path opacity=".1" d="m409.953 177.871 57.36-33.08 4.006 2.307v37.78l-57.377 33.097-3.989-2.307v-37.797Z" fill="#000"/><path d="m471.32 184.878-57.378 33.097v-37.798l57.378-33.079v37.78Z" fill="#412F6B"/><path opacity=".25" d="m471.32 184.878-57.378 33.097v-37.798l57.378-33.079v37.78Z" fill="#fff"/><path opacity=".1" d="m409.953 177.87 3.989 2.307v37.798l-3.989-2.307V177.87Z" fill="#000"/><path d="m344.424 215.668 57.36-33.097 4.006 2.307v37.797l-57.36 33.08-4.006-2.307v-37.78Z" fill="#412F6B"/><path opacity=".1" d="m344.424 215.668 57.36-33.097 4.006 2.307v37.797l-57.36 33.08-4.006-2.307v-37.78Z" fill="#000"/><path d="m405.79 222.676-57.36 33.079v-37.78l57.36-33.097v37.798Z" fill="#412F6B"/><path opacity=".25" d="m405.79 222.676-57.36 33.079v-37.78l57.36-33.097v37.798Z" fill="#fff"/><path opacity=".1" d="m344.424 215.669 4.006 2.307v37.78l-4.006-2.307v-37.78Z" fill="#000"/><path d="m278.895 253.447 57.36-33.079 4.006 2.307v37.797l-57.361 33.08-4.005-2.307v-37.798Z" fill="#412F6B"/><path opacity=".1" d="m278.895 253.447 57.36-33.079 4.006 2.307v37.797l-57.361 33.08-4.005-2.307v-37.798Z" fill="#000"/><path d="m340.261 260.472-57.361 33.08v-37.798l57.361-33.08v37.798Z" fill="#412F6B"/><path opacity=".25" d="m340.261 260.472-57.361 33.08v-37.798l57.361-33.08v37.798Z" fill="#fff"/><path opacity=".1" d="m278.895 253.448 4.005 2.307v37.797l-4.005-2.306v-37.798Z" fill="#000"/><path d="m323.922 213.169 16.339 9.506-57.36 33.079-16.339-9.506 57.36-33.079Zm-41.021 42.586v4.735l-16.339-9.471v-4.77l16.339 9.506Z" fill="#412F6B"/><path opacity=".2" d="M282.901 255.755v4.735l-16.339-9.471v-4.77l16.339 9.506Z" fill="#000"/><path d="m53.74 383.32 20.432-11.848 3.988 2.324v37.781l-20.432 11.83-3.988-2.307v-37.78Z" fill="#412F6B"/><path d="m61.84 364.273 16.32 9.524-20.431 11.83-16.322-9.506 20.433-11.848Z" fill="#412F6B"/><path d="m78.16 411.577-20.431 11.83v-37.78l20.432-11.83v37.78Z" fill="#412F6B"/><path opacity=".25" d="m78.16 411.577-20.431 11.83v-37.78l20.432-11.83v37.78Z" fill="#fff"/><path opacity=".1" d="m53.74 383.32 3.988 2.306v37.781L53.74 421.1v-37.78Z" fill="#000"/><path d="m213.383 291.298 57.36-33.08 4.006 2.307v37.78l-57.378 33.097-3.988-2.306v-37.798Z" fill="#412F6B"/><path d="m258.41 251.019 16.339 9.506-57.378 33.08-16.321-9.506 57.36-33.08Z" fill="#412F6B"/><path d="m274.749 298.305-57.377 33.097v-37.798l57.377-33.079v37.78Z" fill="#412F6B"/><path opacity=".25" d="m274.749 298.305-57.377 33.097v-37.798l57.377-33.079v37.78Z" fill="#fff"/><path opacity=".1" d="m213.383 291.299 3.988 2.307v37.798l-3.988-2.307v-37.798Z" fill="#000"/><path opacity=".1" d="m213.383 291.299 3.988 2.307v37.798l-3.988-2.307v-37.798Z" fill="#000"/><path d="M217.371 293.606v4.735l-16.321-9.471v-4.771l16.321 9.507Z" fill="#412F6B"/><path opacity=".2" d="M217.371 293.606v4.735l-16.321-9.471v-4.771l16.321 9.507Z" fill="#000"/><path d="M57.729 385.592v37.815l-16.322-9.471v-37.815l16.322 9.471Z" fill="#412F6B"/><path opacity=".2" d="M57.729 385.592v37.815l-16.322-9.471v-37.815l16.322 9.471Z" fill="#000"/><path d="m45.396 373.796 16.338 9.506-4.005 2.324-16.322-9.506 3.989-2.324Zm102.458-44.7 57.36-33.097 4.006 2.306v37.798l-57.361 33.08-4.005-2.307v-37.78Z" fill="#412F6B"/><path d="m192.881 288.8 16.339 9.506-57.36 33.097-16.339-9.506 57.36-33.097Z" fill="#412F6B"/><path d="m209.221 336.103-57.361 33.08v-37.781l57.361-33.097v37.798Z" fill="#412F6B"/><path opacity=".25" d="m209.221 336.103-57.361 33.08v-37.781l57.361-33.097v37.798Z" fill="#fff"/><path opacity=".1" d="m147.854 329.097 4.006 2.307v37.78l-4.006-2.307v-37.78Z" fill="#000"/><path opacity=".1" d="m147.854 329.097 4.006 2.307v37.78l-4.006-2.307v-37.78Z" fill="#000"/><path d="M151.86 331.403v4.736l-16.339-9.489v-4.753l16.339 9.506Z" fill="#412F6B"/><path opacity=".2" d="M151.86 331.403v4.736l-16.339-9.489v-4.753l16.339 9.506Z" fill="#000"/><path d="m82.324 366.876 57.36-33.079 4.006 2.306v37.781l-57.36 33.097-4.006-2.307v-37.798Z" fill="#412F6B"/><path d="m127.352 326.597 16.338 9.507-57.36 33.079-16.338-9.506 57.36-33.08Z" fill="#412F6B"/><path d="m143.69 373.884-57.36 33.097v-37.798l57.36-33.08v37.781Z" fill="#412F6B"/><path opacity=".25" d="m143.69 373.884-57.36 33.097v-37.798l57.36-33.08v37.781Z" fill="#fff"/><path opacity=".1" d="m82.324 366.877 4.006 2.307v37.797l-4.006-2.306v-37.798Z" fill="#000"/><path opacity=".1" d="m82.324 366.877 4.006 2.307v37.797l-4.006-2.306v-37.798Z" fill="#000"/><path d="M86.33 369.184v4.735l-16.338-9.471v-4.771l16.338 9.507Z" fill="#412F6B"/><path opacity=".2" d="M86.33 369.184v4.735l-16.338-9.471v-4.771l16.338 9.507Z" fill="#000"/><path d="m446.864 109.194 57.36-33.097 4.006 2.307v37.798l-57.36 33.079-4.006-2.307v-37.78Z" fill="#412F6B"/><path opacity=".1" d="m446.864 109.194 57.36-33.097 4.006 2.307v37.798l-57.36 33.079-4.006-2.307v-37.78Z" fill="#000"/><path d="m508.231 116.202-57.36 33.079v-37.78l57.36-33.097v37.798Z" fill="#412F6B"/><path opacity=".25" d="m508.231 116.202-57.36 33.079v-37.78l57.36-33.097v37.798Z" fill="#fff"/><path opacity=".1" d="m446.864 109.195 4.006 2.306v37.781l-4.006-2.307v-37.78Z" fill="#000"/><path d="m381.352 146.975 57.36-33.079 3.989 2.306V154l-57.361 33.08-3.988-2.307v-37.798Z" fill="#412F6B"/><path opacity=".1" d="m381.352 146.975 57.36-33.079 3.989 2.306V154l-57.361 33.08-3.988-2.307v-37.798Z" fill="#000"/><path d="m442.718 154-57.377 33.079v-37.797l57.377-33.08V154Z" fill="#412F6B"/><path opacity=".25" d="m442.718 154-57.377 33.079v-37.797l57.377-33.08V154Z" fill="#fff"/><path opacity=".1" d="m381.352 146.975 3.988 2.306v37.798l-3.988-2.307v-37.797Z" fill="#000"/><path d="m315.823 184.772 57.36-33.08 4.006 2.307v37.78l-57.36 33.08-4.006-2.307v-37.78Z" fill="#412F6B"/><path opacity=".1" d="m315.823 184.772 57.36-33.08 4.006 2.307v37.78l-57.36 33.08-4.006-2.307v-37.78Z" fill="#000"/><path d="m377.189 191.78-57.36 33.079v-37.78l57.36-33.08v37.781Z" fill="#412F6B"/><path opacity=".25" d="m377.189 191.78-57.36 33.079v-37.78l57.36-33.08v37.781Z" fill="#fff"/><path opacity=".1" d="m315.823 184.771 4.006 2.307v37.78l-4.006-2.306v-37.781Z" fill="#000"/><path d="m315.823 184.772 57.36-33.08 4.006 2.307v37.78l-57.36 33.08-4.006-2.307v-37.78Z" fill="#412F6B"/><path opacity=".1" d="m315.823 184.772 57.36-33.08 4.006 2.307v37.78l-57.36 33.08-4.006-2.307v-37.78Z" fill="#000"/><path d="m377.19 191.779-57.36 33.08v-37.78l57.36-33.08v37.78Z" fill="#412F6B"/><path opacity=".25" d="m377.19 191.779-57.36 33.08v-37.78l57.36-33.08v37.78Z" fill="#fff"/><path opacity=".1" d="m315.823 184.772 4.006 2.307v37.78l-4.006-2.307v-37.78Z" fill="#000"/><path d="M319.829 187.044v37.815l-16.339-9.471v-37.815l16.339 9.471Z" fill="#412F6B"/><path opacity=".2" d="M319.829 187.044v37.815l-16.339-9.471v-37.815l16.339 9.471Z" fill="#000"/><path d="m307.496 175.267 16.321 9.506-3.988 2.306-16.339-9.506 4.006-2.306Z" fill="#412F6B"/><path opacity=".1" d="m307.496 175.267 16.321 9.506-3.988 2.306-16.339-9.506 4.006-2.306Z" fill="#000"/><path d="m360.85 144.493 16.339 9.506-57.36 33.08-16.339-9.507 57.36-33.079Z" fill="#412F6B"/><path d="m319.829 224.859-16.339-9.471v5.015l16.286 9.471 32.958-19.012v-4.98l-32.905 18.977Zm61.523-77.64-32.923 18.978-16.338-9.489v-5.015l16.338 9.471 32.923-18.977v5.032Z" fill="#F0F0F0"/><path d="m409.953 83.28 57.36-33.08 4.006 2.307v37.78l-57.378 33.097-3.988-2.307V83.28Z" fill="#412F6B"/><path opacity=".1" d="m409.953 83.28 57.36-33.08 4.006 2.307v37.78l-57.378 33.097-3.988-2.307V83.28Z" fill="#000"/><path d="m471.32 90.287-57.378 33.097V85.587l57.378-33.08v37.78Z" fill="#412F6B"/><path opacity=".25" d="m471.32 90.287-57.378 33.097V85.587l57.378-33.08v37.78Z" fill="#fff"/><path opacity=".1" d="m409.953 83.28 3.988 2.307v37.798l-3.988-2.307V83.28Z" fill="#000"/><path d="m401.609 73.774 16.339 9.506-4.006 2.307-16.321-9.507 3.988-2.306Z" fill="#412F6B"/><path opacity=".1" d="m401.609 73.774 16.339 9.506-4.006 2.307-16.321-9.507 3.988-2.306Z" fill="#000"/><path d="m454.981 43.001 16.338 9.506-57.377 33.08-16.321-9.507 57.36-33.079Zm-41.04 42.586v4.77l-16.321-9.47v-4.771l16.321 9.471Z" fill="#412F6B"/><path opacity=".2" d="M413.941 85.587v4.77l-16.321-9.47v-4.771l16.321 9.471Z" fill="#000"/><path d="m344.423 121.078 57.36-33.097 4.006 2.306v37.798l-57.36 33.079-4.006-2.306v-37.78Z" fill="#412F6B"/><path opacity=".1" d="m344.423 121.078 57.36-33.097 4.006 2.306v37.798l-57.36 33.079-4.006-2.306v-37.78Z" fill="#000"/><path d="m405.79 128.086-57.36 33.079v-37.78l57.36-33.097v37.798Z" fill="#412F6B"/><path opacity=".25" d="m405.79 128.086-57.36 33.079v-37.78l57.36-33.097v37.798Z" fill="#fff"/><path opacity=".1" d="m344.423 121.078 4.006 2.307v37.78l-4.006-2.306v-37.781Z" fill="#000"/><path d="M348.429 123.35v37.815l-16.338-9.471v-37.815l16.338 9.471Z" fill="#412F6B"/><path opacity=".2" d="M348.429 123.35v37.815l-16.338-9.471v-37.815l16.338 9.471Z" fill="#000"/><path d="m336.097 111.572 16.321 9.506-3.989 2.307-16.338-9.506 4.006-2.307Z" fill="#412F6B"/><path opacity=".1" d="m336.097 111.572 16.321 9.506-3.989 2.307-16.338-9.506 4.006-2.307Z" fill="#000"/><path d="m389.451 80.782 16.339 9.506-57.361 33.097-16.338-9.506 57.36-33.097Zm86.013-35.301 28.689-16.53 4.006 2.306v37.78L479.47 85.586l-4.006-2.307V45.48Z" fill="#412F6B"/><path opacity=".1" d="m475.464 45.481 28.689-16.53 4.006 2.306v37.78L479.47 85.586l-4.006-2.307V45.48Z" fill="#000"/><path d="M508.159 69.038 479.47 85.586v-37.78l28.689-16.548v37.78Z" fill="#412F6B"/><path opacity=".25" d="M508.159 69.038 479.47 85.586v-37.78l28.689-16.548v37.78Z" fill="#fff"/><path opacity=".1" d="m475.465 45.481 4.006 2.325v37.78l-4.006-2.307V45.481Z" fill="#000"/><path d="M479.47 47.772v4.77l-16.338-9.489v-4.77l16.338 9.489Z" fill="#412F6B"/><path opacity=".2" d="M479.47 47.772v4.77l-16.338-9.489v-4.77l16.338 9.489Z" fill="#000"/><path d="m467.138 35.976 16.338 9.506-4.006 2.324-16.338-9.523 4.006-2.307Z" fill="#412F6B"/><path opacity=".1" d="m467.138 35.976 16.338 9.506-4.006 2.324-16.338-9.523 4.006-2.307Z" fill="#000"/><path d="m491.821 21.751 16.338 9.506-28.689 16.549-16.338-9.506 28.689-16.549Z" fill="#412F6B"/><path d="M237.961 268.931c.297.245.735.419 1.347.524 1.504.227 3.411-.209 4.688-.996 1.242-.769 2.449-1.817 3.919-1.905.682-.035 1.364.14 2.046.298 3.289.751 6.805.891 9.971-.298 3.149-1.188 5.878-3.861 6.473-7.164 5.545 1.188 11.72-2.254 13.61-7.602 3.008 0 6.087-.192 8.834-1.415 2.746-1.223 5.108-3.67 5.475-6.64 2.711.122 5.493.244 8.099-.542 2.607-.787 5.038-2.674 5.721-5.295.192-.734.314-1.608.979-1.975.368-.209.805-.192 1.242-.192 2.134.07 4.356.035 6.333-.786 1.977-.839 3.673-2.674 3.708-4.806.035-2.569-2.239-4.631-4.618-5.609a13.992 13.992 0 0 0-8.152-.786c-.787-2.587-2.991-4.684-5.615-5.348-2.624-.664-5.563.14-7.487 2.045-3.184-5.679-10.583-8.056-16.234-4.876-2.326 1.311-4.408 2.377-5.738 4.841-1.084 1.992-1.521 4.281-1.626 6.535-.035.595-.07 1.276-.525 1.66-.263.21-.595.298-.927.367-2.852.682-5.616 1.748-8.152 3.198-1.452.822-2.904 1.8-3.779 3.233-1.417 2.307-1.102 5.243-.892 7.951.018.227.035.472-.07.682-.175.384-.647.524-1.067.629-3.096.821-5.843 2.883-7.469 5.627-1.645 2.743-2.17 6.133-1.417 9.244-1.942.821-3.901 1.66-5.563 2.953-1.592 1.153-4.916 4.963-3.114 6.448Z" fill="#E0E0E0"/><path opacity=".1" d="M320.372 230.102c.035-2.568-2.239-4.63-4.618-5.609a14 14 0 0 0-8.152-.786c-.787-2.587-2.991-4.684-5.615-5.348-.35-.087-.717-.139-1.085-.192 1.172.822 1.662 2.062 1.907 2.761.542 1.486.63 3.146.087 4.649a13.207 13.207 0 0 1 6.735.716c1.19.454 2.432 1.223 2.694 2.464.245 1.083-.367 2.219-1.189 2.971-2.187 2.027-5.493 2.062-8.484 1.974.367 2.254.542 5.033-1.33 6.361-1.05.734-2.414.751-3.691.734-1.889-.018-3.779-.035-5.668-.07-.315 4.788-3.743 9.139-8.187 10.834 1.732-.174 3.447-.524 5.038-1.24 2.747-1.224 5.108-3.67 5.476-6.641 2.711.123 5.493.245 8.099-.541 2.607-.787 5.038-2.674 5.72-5.295.193-.734.315-1.608.98-1.975.367-.21.805-.192 1.242-.192 2.134.052 4.356.035 6.333-.786 1.976-.804 3.673-2.639 3.708-4.789Z" fill="#000"/><path d="m559.467 381.031 57.361 33.079L584.08 433l-57.377-33.079 32.764-18.89Z" fill="#412F6B"/><path opacity=".25" d="m559.467 381.031 57.361 33.079L584.08 433l-57.377-33.079 32.764-18.89Z" fill="#fff"/><path d="m584.045 433.018 32.782-18.907-.035 18.872-32.8 18.908.053-18.873Z" fill="#412F6B"/><path opacity=".2" d="m584.045 433.018 32.782-18.907-.035 18.872-32.8 18.908.053-18.873Z" fill="#000"/><path d="m526.632 418.811.07-18.89L584.08 433l-.087 18.89-57.361-33.079Z" fill="#412F6B"/><path d="m516.696 404.675 57.361 33.079-32.765 18.89-57.36-33.079 32.764-18.89Z" fill="#412F6B"/><path opacity=".25" d="m516.696 404.675 57.361 33.079-32.765 18.89-57.36-33.079 32.764-18.89Z" fill="#fff"/><path d="m541.274 456.662 32.782-18.908-.035 18.873-32.799 18.908.052-18.873Z" fill="#412F6B"/><path opacity=".2" d="m541.274 456.662 32.782-18.908-.035 18.873-32.799 18.908.052-18.873Z" fill="#000"/><path d="m483.861 442.455.07-18.89 57.36 33.079-.069 18.89-57.361-33.079Zm47.023-70.86 57.361 33.079-32.748 18.89-57.377-33.079 32.764-18.89Z" fill="#412F6B"/><path opacity=".25" d="m530.884 371.595 57.361 33.079-32.748 18.89-57.377-33.079 32.764-18.89Z" fill="#fff"/><path d="m555.462 423.582 32.782-18.907-.035 18.872-32.799 18.908.052-18.873Z" fill="#412F6B"/><path opacity=".2" d="m555.462 423.582 32.782-18.907-.035 18.872-32.799 18.908.052-18.873Z" fill="#000"/><path d="m498.049 409.357.07-18.872 57.378 33.079-.088 18.891-57.36-33.098Z" fill="#412F6B"/></g><defs><clipPath id="a"><path fill="#fff" d="M0 0h642v535H0z"/></clipPath></defs></svg>